<?xml version="1.0" encoding="UTF-8"?>
<!DOCTYPE svg PUBLIC "-//W3C//DTD SVG 1.1//EN" "http://www.w3.org/Graphics/SVG/1.1/DTD/svg11.dtd">
<svg xmlns="http://www.w3.org/2000/svg" version="1.1" width="200px" height="200px" style="shape-rendering:geometricPrecision; text-rendering:geometricPrecision; image-rendering:optimizeQuality; fill-rule:evenodd; clip-rule:evenodd" xmlns:xlink="http://www.w3.org/1999/xlink">
<g><path style="opacity:0.993" fill="#f1f1f1" d="M 122.5,99.5 C 115.087,96.9652 111.754,99.6319 112.5,107.5C 112.5,107.833 112.5,108.167 112.5,108.5C 108.167,109.5 105.5,112.167 104.5,116.5C 101.592,115.431 98.592,115.264 95.5,116C 93.5905,120.023 91.5905,123.856 89.5,127.5C 89.5,120.833 89.5,114.167 89.5,107.5C 86.8333,107.5 84.1667,107.5 81.5,107.5C 80.5093,113.979 80.176,120.646 80.5,127.5C 78.8333,127.5 77.1667,127.5 75.5,127.5C 75.5,120.833 75.5,114.167 75.5,107.5C 72.8333,107.5 70.1667,107.5 67.5,107.5C 67.5,114.5 67.5,121.5 67.5,128.5C 65.8333,128.5 64.1667,128.5 62.5,128.5C 62.5,117.167 62.5,105.833 62.5,94.5C 59.5,94.5 56.5,94.5 53.5,94.5C 53.5,106.167 53.5,117.833 53.5,129.5C 47.5293,130.241 41.5293,130.575 35.5,130.5C 35.5,118.833 35.5,107.167 35.5,95.5C 32.7131,94.5233 29.7131,94.19 26.5,94.5C 26.5,107.167 26.5,119.833 26.5,132.5C 23.7131,133.477 20.7131,133.81 17.5,133.5C 2.41928,109.524 2.91928,85.8572 19,62.5C 39.9416,40.1437 64.4416,35.3103 92.5,48C 111.486,59.8437 121.486,77.0103 122.5,99.5 Z"/></g>
<g><path style="opacity:0.79" fill="#6b62fd" d="M 168.5,131.5 C 163.195,132.442 157.861,132.609 152.5,132C 150.273,131.059 148.273,129.892 146.5,128.5C 146.158,127.662 145.492,127.328 144.5,127.5C 145.666,125.834 145.666,124.167 144.5,122.5C 143.818,123.243 143.151,123.909 142.5,124.5C 135.354,110.258 139.021,99.7582 153.5,93C 169.007,90.8367 178.007,97.5033 180.5,113C 179.61,121.302 175.61,127.469 168.5,131.5 Z M 158.5,96.5 C 168.924,97.091 174.591,102.591 175.5,113C 172.332,127.085 163.999,131.418 150.5,126C 140.988,116.602 141.321,107.602 151.5,99C 153.927,98.0977 156.26,97.2644 158.5,96.5 Z M 153.5,109.5 C 155.017,109.511 156.184,110.177 157,111.5C 157.414,111.043 157.914,110.709 158.5,110.5C 159.429,111.689 159.762,113.022 159.5,114.5C 157.194,114.993 154.861,115.326 152.5,115.5C 152.325,113.379 152.659,111.379 153.5,109.5 Z"/></g>
<g><path style="opacity:1" fill="#aca6f8" d="M 102.5,95.5 C 95.5,95.5 88.5,95.5 81.5,95.5C 81.5,97.8333 81.5,100.167 81.5,102.5C 80.5269,100.052 80.1936,97.3854 80.5,94.5C 88.0191,94.175 95.3524,94.5084 102.5,95.5 Z"/></g>
<g><path style="opacity:1" fill="#c0bdf6" d="M 35.5,95.5 C 35.1667,95.5 34.8333,95.5 34.5,95.5C 32.1667,95.5 29.8333,95.5 27.5,95.5C 27.5,107.833 27.5,120.167 27.5,132.5C 27.1667,132.5 26.8333,132.5 26.5,132.5C 26.5,119.833 26.5,107.167 26.5,94.5C 29.7131,94.19 32.7131,94.5233 35.5,95.5 Z"/></g>
<g><path style="opacity:1" fill="#6e65fe" d="M 34.5,95.5 C 34.8333,95.5 35.1667,95.5 35.5,95.5C 35.5,107.167 35.5,118.833 35.5,130.5C 35.5,131.5 35.5,132.5 35.5,133.5C 32.6146,133.806 29.9479,133.473 27.5,132.5C 28.4951,120.678 28.8284,108.678 28.5,96.5C 30.1667,96.5 31.8333,96.5 33.5,96.5C 33.3335,108.171 33.5001,119.838 34,131.5C 34.4999,119.505 34.6665,107.505 34.5,95.5 Z"/></g>
<g><path style="opacity:1" fill="#5b51ff" d="M 34.5,95.5 C 34.6665,107.505 34.4999,119.505 34,131.5C 33.5001,119.838 33.3335,108.171 33.5,96.5C 31.8333,96.5 30.1667,96.5 28.5,96.5C 28.8284,108.678 28.4951,120.678 27.5,132.5C 27.5,120.167 27.5,107.833 27.5,95.5C 29.8333,95.5 32.1667,95.5 34.5,95.5 Z"/></g>
<g><path style="opacity:1" fill="#877ffc" d="M 48.5,95.5 C 46.1667,95.5 43.8333,95.5 41.5,95.5C 41.5,104.167 41.5,112.833 41.5,121.5C 40.5067,112.682 40.1734,103.682 40.5,94.5C 43.3854,94.1936 46.0521,94.5269 48.5,95.5 Z"/></g>
<g><path style="opacity:1" fill="#675eff" d="M 48.5,95.5 C 48.5,104.167 48.5,112.833 48.5,121.5C 46.1667,121.5 43.8333,121.5 41.5,121.5C 41.5,112.833 41.5,104.167 41.5,95.5C 43.8333,95.5 46.1667,95.5 48.5,95.5 Z"/></g>
<g><path style="opacity:1" fill="#6c63ff" d="M 61.5,128.5 C 60.7659,129.708 60.4326,131.041 60.5,132.5C 58.8333,132.5 57.1667,132.5 55.5,132.5C 55.5,131.5 55.5,130.5 55.5,129.5C 55.5,118.5 55.5,107.5 55.5,96.5C 57.1667,96.5 58.8333,96.5 60.5,96.5C 60.1722,107.346 60.5056,118.013 61.5,128.5 Z"/></g>
<g><path style="opacity:1" fill="#544aff" d="M 61.5,128.5 C 60.5056,118.013 60.1722,107.346 60.5,96.5C 58.8333,96.5 57.1667,96.5 55.5,96.5C 55.5,107.5 55.5,118.5 55.5,129.5C 55.1667,129.5 54.8333,129.5 54.5,129.5C 54.5,118.167 54.5,106.833 54.5,95.5C 56.8333,95.5 59.1667,95.5 61.5,95.5C 61.5,106.5 61.5,117.5 61.5,128.5 Z"/></g>
<g><path style="opacity:1" fill="#9e98fa" d="M 62.5,128.5 C 62.1667,128.5 61.8333,128.5 61.5,128.5C 61.5,117.5 61.5,106.5 61.5,95.5C 59.1667,95.5 56.8333,95.5 54.5,95.5C 54.5,106.833 54.5,118.167 54.5,129.5C 54.1667,129.5 53.8333,129.5 53.5,129.5C 53.5,117.833 53.5,106.167 53.5,94.5C 56.5,94.5 59.5,94.5 62.5,94.5C 62.5,105.833 62.5,117.167 62.5,128.5 Z"/></g>
<g><path style="opacity:1" fill="#665dff" d="M 67.5,95.5 C 70.1667,95.5 72.8333,95.5 75.5,95.5C 75.5,97.8333 75.5,100.167 75.5,102.5C 72.8333,102.5 70.1667,102.5 67.5,102.5C 67.5,100.167 67.5,97.8333 67.5,95.5 Z"/></g>
<g><path style="opacity:1" fill="#675dff" d="M 102.5,95.5 C 102.5,97.8333 102.5,100.167 102.5,102.5C 95.5,102.5 88.5,102.5 81.5,102.5C 81.5,100.167 81.5,97.8333 81.5,95.5C 88.5,95.5 95.5,95.5 102.5,95.5 Z"/></g>
<g><path style="opacity:0.998" fill="#2d2b3e" d="M 122.5,99.5 C 123.355,100.531 124.022,101.697 124.5,103C 124.43,103.765 124.097,104.265 123.5,104.5C 121.071,104.585 119.071,105.585 117.5,107.5C 116.808,106.975 116.308,106.308 116,105.5C 115.184,106.823 114.017,107.489 112.5,107.5C 111.754,99.6319 115.087,96.9652 122.5,99.5 Z"/></g>
<g><path style="opacity:0.733" fill="#6b62ff" d="M 153.5,105.5 C 156.155,106.001 158.322,107.334 160,109.5C 163.925,104.36 167.758,104.36 171.5,109.5C 170.672,110.415 169.672,111.081 168.5,111.5C 164.6,108.553 163.1,109.553 164,114.5C 166.394,115.136 168.894,115.136 171.5,114.5C 170.236,119.079 167.236,120.579 162.5,119C 161.667,118.167 160.833,117.333 160,116.5C 156.603,119.981 152.936,120.314 149,117.5C 146.011,111.656 147.511,107.656 153.5,105.5 Z M 153.5,109.5 C 152.659,111.379 152.325,113.379 152.5,115.5C 154.861,115.326 157.194,114.993 159.5,114.5C 159.762,113.022 159.429,111.689 158.5,110.5C 157.914,110.709 157.414,111.043 157,111.5C 156.184,110.177 155.017,109.511 153.5,109.5 Z"/></g>
<g><path style="opacity:1" fill="#898a8b" d="M 80.5,127.5 C 80.5,127.833 80.5,128.167 80.5,128.5C 78.8333,128.5 77.1667,128.5 75.5,128.5C 75.5,130.167 75.5,131.833 75.5,133.5C 72.8333,133.5 70.1667,133.5 67.5,133.5C 67.5,131.833 67.5,130.167 67.5,128.5C 67.5,121.5 67.5,114.5 67.5,107.5C 70.1667,107.5 72.8333,107.5 75.5,107.5C 75.5,114.167 75.5,120.833 75.5,127.5C 77.1667,127.5 78.8333,127.5 80.5,127.5 Z"/></g>
<g><path style="opacity:1" fill="#908adf" d="M 81.5,107.5 C 81.5,116.167 81.5,124.833 81.5,133.5C 83.5,133.5 85.5,133.5 87.5,133.5C 87.5,133.833 87.5,134.167 87.5,134.5C 85.1667,134.5 82.8333,134.5 80.5,134.5C 80.5,132.5 80.5,130.5 80.5,128.5C 80.5,128.167 80.5,127.833 80.5,127.5C 80.176,120.646 80.5093,113.979 81.5,107.5 Z"/></g>
<g><path style="opacity:1" fill="#6e63fd" d="M 81.5,107.5 C 84.1667,107.5 86.8333,107.5 89.5,107.5C 89.5,114.167 89.5,120.833 89.5,127.5C 89.5,128.167 89.5,128.833 89.5,129.5C 88.8333,130.833 88.1667,132.167 87.5,133.5C 85.5,133.5 83.5,133.5 81.5,133.5C 81.5,124.833 81.5,116.167 81.5,107.5 Z"/></g>
<g><path style="opacity:1" fill="#f9aa9e" d="M 123.5,104.5 C 123.608,106.514 122.942,108.18 121.5,109.5C 118.951,109.441 116.951,110.441 115.5,112.5C 114.476,111.148 113.476,109.815 112.5,108.5C 112.5,108.167 112.5,107.833 112.5,107.5C 114.017,107.489 115.184,106.823 116,105.5C 116.308,106.308 116.808,106.975 117.5,107.5C 119.071,105.585 121.071,104.585 123.5,104.5 Z"/></g>
<g><path style="opacity:1" fill="#d3d0e2" d="M 112.5,108.5 C 113.476,109.815 114.476,111.148 115.5,112.5C 116.951,110.441 118.951,109.441 121.5,109.5C 120.985,111.894 120.319,114.228 119.5,116.5C 118.684,118.144 117.35,119.31 115.5,120C 116.252,120.671 116.586,121.504 116.5,122.5C 116.5,123.167 116.5,123.833 116.5,124.5C 113.971,126.265 111.638,128.265 109.5,130.5C 108.5,130.167 107.833,129.5 107.5,128.5C 106.589,124.543 105.589,120.543 104.5,116.5C 105.5,112.167 108.167,109.5 112.5,108.5 Z"/></g>
<g><path style="opacity:1" fill="#28283b" d="M 104.5,116.5 C 105.589,120.543 106.589,124.543 107.5,128.5C 106.292,127.766 104.959,127.433 103.5,127.5C 102.904,126.065 102.904,124.398 103.5,122.5C 100.751,122.726 98.0841,122.393 95.5,121.5C 94.4528,122.922 94.4528,124.422 95.5,126C 95.3613,127.301 94.6946,128.134 93.5,128.5C 92.0413,128.433 90.7079,128.766 89.5,129.5C 89.5,128.833 89.5,128.167 89.5,127.5C 91.5905,123.856 93.5905,120.023 95.5,116C 98.592,115.264 101.592,115.431 104.5,116.5 Z"/></g>
<g><path style="opacity:1" fill="#1d2135" d="M 129.5,125.5 C 127.251,124.92 125.585,123.587 124.5,121.5C 128.051,120.13 129.718,121.464 129.5,125.5 Z"/></g>
<g><path style="opacity:1" fill="#2a293c" d="M 117.5,123.5 C 119.921,124.891 122.588,125.725 125.5,126C 126.781,127.409 127.781,128.909 128.5,130.5C 128.5,131.167 128.5,131.833 128.5,132.5C 124.351,131.92 120.684,132.586 117.5,134.5C 114.921,134.394 112.588,135.061 110.5,136.5C 109.85,134.565 109.517,132.565 109.5,130.5C 111.638,128.265 113.971,126.265 116.5,124.5C 117.167,124.5 117.5,124.167 117.5,123.5 Z"/></g>
<g><path style="opacity:1" fill="#e4acac" d="M 103.5,127.5 C 102.172,131.254 99.5058,132.421 95.5,131C 94.6195,130.292 93.9528,129.458 93.5,128.5C 94.6946,128.134 95.3613,127.301 95.5,126C 94.4528,124.422 94.4528,122.922 95.5,121.5C 98.0841,122.393 100.751,122.726 103.5,122.5C 102.904,124.398 102.904,126.065 103.5,127.5 Z"/></g>
<g><path style="opacity:0.867" fill="#e7948a" d="M 119.5,116.5 C 120.806,118.473 122.473,120.139 124.5,121.5C 125.585,123.587 127.251,124.92 129.5,125.5C 130.635,127.213 132.302,127.88 134.5,127.5C 135.702,129.392 137.035,131.226 138.5,133C 134.673,133.976 131.34,133.143 128.5,130.5C 127.781,128.909 126.781,127.409 125.5,126C 122.588,125.725 119.921,124.891 117.5,123.5C 117.5,122.833 117.167,122.5 116.5,122.5C 116.586,121.504 116.252,120.671 115.5,120C 117.35,119.31 118.684,118.144 119.5,116.5 Z"/></g>
<g><path style="opacity:1" fill="#f86584" d="M 103.5,127.5 C 104.959,127.433 106.292,127.766 107.5,128.5C 107.833,129.5 108.5,130.167 109.5,130.5C 109.517,132.565 109.85,134.565 110.5,136.5C 111.53,139.229 111.53,141.896 110.5,144.5C 109.542,144.047 108.708,143.381 108,142.5C 107.83,140.285 107.163,138.285 106,136.5C 100.917,137.307 95.7503,137.807 90.5,138C 89.871,140.375 88.871,142.541 87.5,144.5C 85.2157,143.323 84.8823,141.656 86.5,139.5C 87.4511,138.081 87.7845,136.415 87.5,134.5C 87.5,134.167 87.5,133.833 87.5,133.5C 88.1667,132.167 88.8333,130.833 89.5,129.5C 90.7079,128.766 92.0413,128.433 93.5,128.5C 93.9528,129.458 94.6195,130.292 95.5,131C 99.5058,132.421 102.172,131.254 103.5,127.5 Z"/></g>
<g><path style="opacity:1" fill="#c8c7cf" d="M 144.5,127.5 C 144.5,127.833 144.5,128.167 144.5,128.5C 143.839,129.718 143.172,131.051 142.5,132.5C 141.374,131.192 141.374,129.858 142.5,128.5C 142.5,127.167 142.5,125.833 142.5,124.5C 143.151,123.909 143.818,123.243 144.5,122.5C 145.666,124.167 145.666,125.834 144.5,127.5 Z"/></g>
<g><path style="opacity:1" fill="#383549" d="M 62.5,128.5 C 64.1667,128.5 65.8333,128.5 67.5,128.5C 67.5,130.167 67.5,131.833 67.5,133.5C 70.1667,133.5 72.8333,133.5 75.5,133.5C 75.5,131.833 75.5,130.167 75.5,128.5C 77.1667,128.5 78.8333,128.5 80.5,128.5C 80.5,130.5 80.5,132.5 80.5,134.5C 82.8333,134.5 85.1667,134.5 87.5,134.5C 87.7845,136.415 87.4511,138.081 86.5,139.5C 68.5597,139.983 50.5597,139.483 32.5,138C 30.0481,137.71 27.7148,137.044 25.5,136C 28.8344,134.916 32.1677,134.082 35.5,133.5C 35.5,132.5 35.5,131.5 35.5,130.5C 41.5293,130.575 47.5293,130.241 53.5,129.5C 53.5,131.167 53.5,132.833 53.5,134.5C 56.5,134.5 59.5,134.5 62.5,134.5C 62.5,132.5 62.5,130.5 62.5,128.5 Z"/></g>
<g><path style="opacity:1" fill="#675ed8" d="M 61.5,128.5 C 61.8333,128.5 62.1667,128.5 62.5,128.5C 62.5,130.5 62.5,132.5 62.5,134.5C 59.5,134.5 56.5,134.5 53.5,134.5C 53.5,132.833 53.5,131.167 53.5,129.5C 53.8333,129.5 54.1667,129.5 54.5,129.5C 54.8333,129.5 55.1667,129.5 55.5,129.5C 55.5,130.5 55.5,131.5 55.5,132.5C 57.1667,132.5 58.8333,132.5 60.5,132.5C 60.4326,131.041 60.7659,129.708 61.5,128.5 Z"/></g>
<g><path style="opacity:0.984" fill="#3c3a52" d="M 134.5,127.5 C 137.096,128.265 139.763,128.599 142.5,128.5C 141.374,129.858 141.374,131.192 142.5,132.5C 143.172,131.051 143.839,129.718 144.5,128.5C 145.167,128.5 145.833,128.5 146.5,128.5C 148.273,129.892 150.273,131.059 152.5,132C 157.861,132.609 163.195,132.442 168.5,131.5C 179.315,132.453 189.648,135.12 199.5,139.5C 199.5,142.167 199.5,144.833 199.5,147.5C 186.758,152.884 173.425,156.051 159.5,157C 139.691,158.099 119.857,158.599 100,158.5C 70.1977,160.069 40.6977,157.903 11.5,152C 7.08454,150.957 3.08454,149.124 -0.5,146.5C -0.5,144.5 -0.5,142.5 -0.5,140.5C 5.16247,137.389 11.1625,135.055 17.5,133.5C 20.7131,133.81 23.7131,133.477 26.5,132.5C 26.8333,132.5 27.1667,132.5 27.5,132.5C 29.9479,133.473 32.6146,133.806 35.5,133.5C 32.1677,134.082 28.8344,134.916 25.5,136C 27.7148,137.044 30.0481,137.71 32.5,138C 50.5597,139.483 68.5597,139.983 86.5,139.5C 84.8823,141.656 85.2157,143.323 87.5,144.5C 95.2176,148.489 102.884,148.489 110.5,144.5C 111.53,141.896 111.53,139.229 110.5,136.5C 112.588,135.061 114.921,134.394 117.5,134.5C 120.885,136.245 124.552,136.745 128.5,136C 129.684,134.855 129.684,133.688 128.5,132.5C 128.5,131.833 128.5,131.167 128.5,130.5C 131.34,133.143 134.673,133.976 138.5,133C 137.035,131.226 135.702,129.392 134.5,127.5 Z"/></g>
<g><path style="opacity:1" fill="#d5d2e5" d="M 128.5,132.5 C 129.684,133.688 129.684,134.855 128.5,136C 124.552,136.745 120.885,136.245 117.5,134.5C 120.684,132.586 124.351,131.92 128.5,132.5 Z"/></g>
<g><path style="opacity:1" fill="#454059" d="M 110.5,144.5 C 102.884,148.489 95.2176,148.489 87.5,144.5C 88.871,142.541 89.871,140.375 90.5,138C 95.7503,137.807 100.917,137.307 106,136.5C 107.163,138.285 107.83,140.285 108,142.5C 108.708,143.381 109.542,144.047 110.5,144.5 Z"/></g>
<g><path style="opacity:1" fill="#efeef0" d="M 97.5,141.5 C 99.337,141.639 99.6704,142.306 98.5,143.5C 97.7025,143.043 97.3691,142.376 97.5,141.5 Z"/></g>
<g><path style="opacity:1" fill="#e9e6e7" d="M 105.5,151.5 C 107.256,152.552 107.923,154.219 107.5,156.5C 103.759,157.401 101.759,156.068 101.5,152.5C 103.099,152.768 104.432,152.434 105.5,151.5 Z"/></g>
<g><path style="opacity:1" fill="#d8d8dc" d="M 89.5,152.5 C 96.053,154.045 96.053,155.378 89.5,156.5C 89.5,155.167 89.5,153.833 89.5,152.5 Z"/></g>
</svg>
