<?xml version="1.0" standalone="no"?><!DOCTYPE svg PUBLIC "-//W3C//DTD SVG 1.1//EN" "http://www.w3.org/Graphics/SVG/1.1/DTD/svg11.dtd"><svg t="1659421526092" class="icon" viewBox="0 0 1024 1024" version="1.1" xmlns="http://www.w3.org/2000/svg" p-id="2382" xmlns:xlink="http://www.w3.org/1999/xlink" width="200" height="200"><defs><style type="text/css">@font-face { font-family: feedback-iconfont; src: url("//at.alicdn.com/t/font_1031158_u69w8yhxdu.woff2?t=1630033759944") format("woff2"), url("//at.alicdn.com/t/font_1031158_u69w8yhxdu.woff?t=1630033759944") format("woff"), url("//at.alicdn.com/t/font_1031158_u69w8yhxdu.ttf?t=1630033759944") format("truetype"); }
</style></defs><path fill="#314694" d="M853.333333 618.666667h-128c0 47.146667-38.186667 85.333333-85.333333 85.333333H384c-25.6 0-48.426667-11.52-64-29.44-3.2-3.626667-6.186667-7.68-8.746667-11.946667 0-0.213333-0.213333-0.426667-0.213333-0.426666-2.346667-4.053333-4.48-8.32-6.4-12.586667-0.64-1.493333-0.853333-2.773333-1.28-4.266667-1.066667-3.413333-2.346667-6.826667-2.986667-10.24-1.066667-5.546667-1.706667-10.88-1.706666-16.426666H106.666667v213.333333c0 47.146667 38.186667 85.333333 85.333333 85.333333h640c47.146667 0 85.333333-38.186667 85.333333-85.333333V618.666667h-64z" p-id="2383"></path><path fill="#314694" d="M661.333333 618.666667v-64h192V192c0-47.146667-38.186667-85.333333-85.333333-85.333333H469.333333c-47.146667 0-85.333333 38.186667-85.333333 85.333333v448h256c11.733333 0 21.333333-9.6 21.333333-21.333333z m-160-384h234.666667c17.706667 0 32 14.293333 32 32s-14.293333 32-32 32h-234.666667c-17.706667 0-32-14.293333-32-32s14.293333-32 32-32zM469.333333 394.666667c0-17.706667 14.293333-32 32-32h234.666667c17.706667 0 32 14.293333 32 32s-14.293333 32-32 32h-234.666667c-17.706667 0-32-14.293333-32-32zM320 554.666667V234.666667h-64c-47.146667 0-85.333333 38.186667-85.333333 85.333333v234.666667h149.333333z" p-id="2384"></path></svg>