<?xml version="1.0" encoding="UTF-8"?>
<!DOCTYPE svg PUBLIC "-//W3C//DTD SVG 1.1//EN" "http://www.w3.org/Graphics/SVG/1.1/DTD/svg11.dtd">
<svg xmlns="http://www.w3.org/2000/svg" version="1.1" width="200px" height="200px" style="shape-rendering:geometricPrecision; text-rendering:geometricPrecision; image-rendering:optimizeQuality; fill-rule:evenodd; clip-rule:evenodd" xmlns:xlink="http://www.w3.org/1999/xlink">
<g><path style="opacity:0.986" fill="#f1f1f1" d="M 40.5,73.5 C 41.4956,86.6562 41.8289,99.9895 41.5,113.5C 41.3345,117.514 41.5012,121.514 42,125.5C 42.8333,126.333 43.6667,127.167 44.5,128C 57.872,127.848 70.872,128.682 83.5,130.5C 82.4921,136.535 81.1588,142.535 79.5,148.5C 92.4829,149.499 105.483,149.832 118.5,149.5C 117.145,142.446 115.478,135.446 113.5,128.5C 127.504,128.667 141.504,128.5 155.5,128C 156.667,126.833 157.833,125.667 159,124.5C 159.83,100.663 159.663,76.9964 158.5,53.5C 158.084,51.2475 156.751,49.7475 154.5,49C 134.169,48.5 113.836,48.3334 93.5,48.5C 93.5,44.8333 93.5,41.1667 93.5,37.5C 98.0157,35.8949 102.682,34.7282 107.5,34C 119.549,33.1092 131.549,33.4425 143.5,35C 160.843,38.3463 171.677,48.513 176,65.5C 176.94,72.8442 177.94,80.1775 179,87.5C 182.618,92.4932 186.285,97.4932 190,102.5C 200.225,122.306 196.725,139.139 179.5,153C 168.301,160.287 156.134,164.787 143,166.5C 126.093,163.089 109.093,160.089 92,157.5C 85.463,158.046 78.963,158.88 72.5,160C 59.9373,164.98 46.9373,166.98 33.5,166C 17.2924,162.124 7.45912,151.957 4,135.5C 0.799634,116.972 4.79963,100.306 16,85.5C 18.3834,82.7272 21.2167,80.5605 24.5,79C 29.9781,77.4673 35.3114,75.634 40.5,73.5 Z"/></g>
<g><path style="opacity:0.993" fill="#334692" d="M 93.5,37.5 C 93.5,41.1667 93.5,44.8333 93.5,48.5C 93.5,49.1667 93.5,49.8333 93.5,50.5C 93.5,51.8333 93.5,53.1667 93.5,54.5C 93.5,55.5 93.5,56.5 93.5,57.5C 92.5,57.5 91.5,57.5 90.5,57.5C 80.5,57.5 70.5,57.5 60.5,57.5C 58.744,56.4479 58.0773,54.7812 58.5,52.5C 58.5,51.8333 58.5,51.1667 58.5,50.5C 58.5,49.8333 58.5,49.1667 58.5,48.5C 58.5,43.8333 58.5,39.1667 58.5,34.5C 70.1667,34.5 81.8333,34.5 93.5,34.5C 93.5,35.5 93.5,36.5 93.5,37.5 Z"/></g>
<g><path style="opacity:1" fill="#a5adcf" d="M 80.5,42.5 C 83.0115,42.838 85.3448,42.838 87.5,42.5C 88.3857,43.325 88.719,44.325 88.5,45.5C 85.8333,45.5 83.1667,45.5 80.5,45.5C 80.5,44.5 80.5,43.5 80.5,42.5 Z"/></g>
<g><path style="opacity:1" fill="#a5adcf" d="M 61.5,41.5 C 62.7498,41.5774 63.5831,42.244 64,43.5C 66.8475,43.2592 69.8475,42.5926 73,41.5C 74.439,43.0139 75.939,43.3473 77.5,42.5C 78.3857,43.325 78.719,44.325 78.5,45.5C 72.6597,45.219 66.6597,45.219 60.5,45.5C 60.4326,44.0413 60.7659,42.7079 61.5,41.5 Z"/></g>
<g><path style="opacity:1" fill="#413a44" d="M 58.5,48.5 C 58.5,49.1667 58.5,49.8333 58.5,50.5C 54.4862,50.3345 50.4862,50.5012 46.5,51C 45.3333,52.1667 44.1667,53.3333 43,54.5C 42.5001,73.4971 42.3334,92.4971 42.5,111.5C 48.6309,112.092 54.4642,111.425 60,109.5C 60.9182,106.402 61.4182,103.235 61.5,100C 60.5623,90.9782 58.729,82.1449 56,73.5C 55.1837,68.3158 55.3503,63.3158 56.5,58.5C 56.3669,67.613 58.2002,76.2796 62,84.5C 65.0301,93.3321 65.8634,102.332 64.5,111.5C 71.3543,111.824 78.021,111.491 84.5,110.5C 108.759,111.49 133.092,111.823 157.5,111.5C 157.833,92.1552 157.5,72.8218 156.5,53.5C 155.354,52.8551 154.354,52.0217 153.5,51C 133.503,50.5 113.503,50.3334 93.5,50.5C 93.5,49.8333 93.5,49.1667 93.5,48.5C 113.836,48.3334 134.169,48.5 154.5,49C 156.751,49.7475 158.084,51.2475 158.5,53.5C 158.5,73.5 158.5,93.5 158.5,113.5C 119.5,113.5 80.5,113.5 41.5,113.5C 41.8289,99.9895 41.4956,86.6562 40.5,73.5C 40.0714,66.0528 40.5714,58.7194 42,51.5C 42.8333,50.6667 43.6667,49.8333 44.5,49C 49.1548,48.5008 53.8215,48.3342 58.5,48.5 Z"/></g>
<g><path style="opacity:1" fill="#f3f1f1" d="M 58.5,52.5 C 58.0773,54.7812 58.744,56.4479 60.5,57.5C 61.6989,65.8793 64.0322,73.8793 67.5,81.5C 69.1667,81.5 70.8333,81.5 72.5,81.5C 72.5,82.5 72.5,83.5 72.5,84.5C 74.1667,84.5 75.8333,84.5 77.5,84.5C 77.5,83.5 77.5,82.5 77.5,81.5C 81.2699,80.2642 84.4365,77.9309 87,74.5C 88.2924,69.6215 89.7924,64.7882 91.5,60C 91.4301,59.2352 91.0967,58.7352 90.5,58.5C 90.5,58.1667 90.5,57.8333 90.5,57.5C 91.5,57.5 92.5,57.5 93.5,57.5C 93.5,56.5 93.5,55.5 93.5,54.5C 95.2517,54.4176 96.2517,55.2509 96.5,57C 95.3883,63.5032 94.2216,70.0032 93,76.5C 85.6586,86.7069 82.8253,98.0402 84.5,110.5C 78.021,111.491 71.3543,111.824 64.5,111.5C 65.8634,102.332 65.0301,93.3321 62,84.5C 58.2002,76.2796 56.3669,67.613 56.5,58.5C 54.8661,55.7624 55.5328,53.7624 58.5,52.5 Z"/></g>
<g><path style="opacity:1" fill="#f4a89e" d="M 79.5,77.5 C 78.3995,78.6049 77.7329,79.9382 77.5,81.5C 77.5,82.5 77.5,83.5 77.5,84.5C 75.8333,84.5 74.1667,84.5 72.5,84.5C 72.5,83.5 72.5,82.5 72.5,81.5C 72.2779,79.3925 71.2779,77.7258 69.5,76.5C 69.9461,74.6318 70.2795,72.7985 70.5,71C 73.2241,70.7305 75.8908,70.2305 78.5,69.5C 79.48,72.0865 79.8134,74.7531 79.5,77.5 Z"/></g>
<g><path style="opacity:1" fill="#18171d" d="M 90.5,58.5 C 91.0967,58.7352 91.4301,59.2352 91.5,60C 89.7924,64.7882 88.2924,69.6215 87,74.5C 84.4365,77.9309 81.2699,80.2642 77.5,81.5C 77.7329,79.9382 78.3995,78.6049 79.5,77.5C 84.2849,72.492 86.9515,66.492 87.5,59.5C 82.4889,59.6659 77.4889,59.4993 72.5,59C 78.4908,58.5005 84.4908,58.3338 90.5,58.5 Z"/></g>
<g><path style="opacity:1" fill="#3e3a4f" d="M 60.5,57.5 C 70.5,57.5 80.5,57.5 90.5,57.5C 90.5,57.8333 90.5,58.1667 90.5,58.5C 84.4908,58.3338 78.4908,58.5005 72.5,59C 77.4889,59.4993 82.4889,59.6659 87.5,59.5C 86.9515,66.492 84.2849,72.492 79.5,77.5C 79.8134,74.7531 79.48,72.0865 78.5,69.5C 75.8908,70.2305 73.2241,70.7305 70.5,71C 70.2795,72.7985 69.9461,74.6318 69.5,76.5C 71.2779,77.7258 72.2779,79.3925 72.5,81.5C 70.8333,81.5 69.1667,81.5 67.5,81.5C 64.0322,73.8793 61.6989,65.8793 60.5,57.5 Z"/></g>
<g><path style="opacity:1" fill="#403e57" d="M 93.5,50.5 C 113.503,50.3334 133.503,50.5 153.5,51C 154.354,52.0217 155.354,52.8551 156.5,53.5C 157.5,72.8218 157.833,92.1552 157.5,111.5C 133.092,111.823 108.759,111.49 84.5,110.5C 82.8253,98.0402 85.6586,86.7069 93,76.5C 94.2216,70.0032 95.3883,63.5032 96.5,57C 96.2517,55.2509 95.2517,54.4176 93.5,54.5C 93.5,53.1667 93.5,51.8333 93.5,50.5 Z"/></g>
<g><path style="opacity:1" fill="#a8a6b1" d="M 101.5,94.5 C 110.857,94.1684 120.19,94.5017 129.5,95.5C 124.833,95.8333 120.167,96.1667 115.5,96.5C 110.449,96.4933 105.783,95.8266 101.5,94.5 Z"/></g>
<g><path style="opacity:1" fill="#c3c2c9" d="M 122.5,91.5 C 128.206,91.1712 133.872,91.5046 139.5,92.5C 136.667,92.8333 133.833,93.1667 131,93.5C 127.748,93.4809 124.915,92.8142 122.5,91.5 Z"/></g>
<g><path style="opacity:1" fill="#bfbec6" d="M 101.5,91.5 C 107.537,91.1707 113.537,91.5041 119.5,92.5C 116.5,92.8333 113.5,93.1667 110.5,93.5C 107.087,93.483 104.087,92.8164 101.5,91.5 Z"/></g>
<g><path style="opacity:1" fill="#6860d1" d="M 145.5,82.5 C 147.833,82.5 150.167,82.5 152.5,82.5C 152.5,83.5 152.5,84.5 152.5,85.5C 150.167,85.5 147.833,85.5 145.5,85.5C 145.5,84.5 145.5,83.5 145.5,82.5 Z"/></g>
<g><path style="opacity:1" fill="#6d63f7" d="M 125.5,73.5 C 129.167,73.5 132.833,73.5 136.5,73.5C 136.5,74.1667 136.5,74.8333 136.5,75.5C 131.59,78.0683 126.257,79.0683 120.5,78.5C 121.785,76.5484 123.451,74.8818 125.5,73.5 Z"/></g>
<g><path style="opacity:1" fill="#0c0f14" d="M 113.5,74.5 C 115.05,75.4408 116.716,76.1075 118.5,76.5C 118.833,77.5 119.5,78.1667 120.5,78.5C 126.257,79.0683 131.59,78.0683 136.5,75.5C 137.525,75.8966 137.692,76.5632 137,77.5C 130.108,80.9089 122.942,81.4089 115.5,79C 113.681,77.5847 113.015,76.0847 113.5,74.5 Z"/></g>
<g><path style="opacity:1" fill="#6059c4" d="M 96.5,76.5 C 99.2469,76.1866 101.914,76.52 104.5,77.5C 103.652,78.9911 102.319,79.6578 100.5,79.5C 98.0182,79.8896 96.6848,78.8896 96.5,76.5 Z"/></g>
<g><path style="opacity:1" fill="#6e65f3" d="M 113.5,74.5 C 113.5,74.1667 113.5,73.8333 113.5,73.5C 116.518,73.3354 119.518,73.502 122.5,74C 121.307,75.0946 119.973,75.928 118.5,76.5C 116.716,76.1075 115.05,75.4408 113.5,74.5 Z"/></g>
<g><path style="opacity:1" fill="#c2be92" d="M 135.5,71.5 C 136.338,71.8417 136.672,72.5084 136.5,73.5C 132.833,73.5 129.167,73.5 125.5,73.5C 125.5,73.1667 125.5,72.8333 125.5,72.5C 129.042,72.8128 132.375,72.4794 135.5,71.5 Z"/></g>
<g><path style="opacity:1" fill="#f5f542" d="M 123.5,70.5 C 127.505,69.1618 131.505,69.4952 135.5,71.5C 132.375,72.4794 129.042,72.8128 125.5,72.5C 125.167,71.5 124.5,70.8333 123.5,70.5 Z"/></g>
<g><path style="opacity:1" fill="#6a7acc" d="M 123.5,70.5 C 124.5,70.8333 125.167,71.5 125.5,72.5C 125.5,72.8333 125.5,73.1667 125.5,73.5C 123.451,74.8818 121.785,76.5484 120.5,78.5C 119.5,78.1667 118.833,77.5 118.5,76.5C 119.973,75.928 121.307,75.0946 122.5,74C 119.518,73.502 116.518,73.3354 113.5,73.5C 112.494,73.0623 112.494,72.3957 113.5,71.5C 117.042,71.8128 120.375,71.4794 123.5,70.5 Z"/></g>
<g><path style="opacity:1" fill="#6a5bf7" d="M 123.5,70.5 C 120.375,71.4794 117.042,71.8128 113.5,71.5C 116.627,68.5451 119.96,68.2118 123.5,70.5 Z"/></g>
<g><path style="opacity:1" fill="#d9d850" d="M 140.5,66.5 C 142.924,66.1924 145.257,66.5258 147.5,67.5C 146.333,67.8333 145.167,68.1667 144,68.5C 142.319,68.3917 141.152,67.7251 140.5,66.5 Z"/></g>
<g><path style="opacity:1" fill="#6f64ed" d="M 106.5,59.5 C 108.924,59.1924 111.257,59.5258 113.5,60.5C 112.333,60.8333 111.167,61.1667 110,61.5C 108.319,61.3917 107.152,60.7251 106.5,59.5 Z"/></g>
<g><path style="opacity:1" fill="#3f3d56" d="M 58.5,50.5 C 58.5,51.1667 58.5,51.8333 58.5,52.5C 55.5328,53.7624 54.8661,55.7624 56.5,58.5C 55.3503,63.3158 55.1837,68.3158 56,73.5C 58.729,82.1449 60.5623,90.9782 61.5,100C 61.4182,103.235 60.9182,106.402 60,109.5C 54.4642,111.425 48.6309,112.092 42.5,111.5C 42.3334,92.4971 42.5001,73.4971 43,54.5C 44.1667,53.3333 45.3333,52.1667 46.5,51C 50.4862,50.5012 54.4862,50.3345 58.5,50.5 Z"/></g>
<g><path style="opacity:1" fill="#8d95c1" d="M 60.5,48.5 C 63.6556,48.8366 66.9889,48.8366 70.5,48.5C 70.7778,50.3464 70.1112,51.6798 68.5,52.5C 65.9159,51.6072 63.2492,51.2739 60.5,51.5C 60.5,50.5 60.5,49.5 60.5,48.5 Z"/></g>
<g><path style="opacity:1" fill="#b0b7d5" d="M 80.5,48.5 C 82.5851,49.3503 84.5851,49.6837 86.5,49.5C 85.4729,51.024 83.9729,51.6906 82,51.5C 78.2671,51.3873 77.7671,50.3873 80.5,48.5 Z"/></g>
<g><path style="opacity:1" fill="#64607b" d="M 158.5,53.5 C 159.663,76.9964 159.83,100.663 159,124.5C 157.833,125.667 156.667,126.833 155.5,128C 141.504,128.5 127.504,128.667 113.5,128.5C 103.24,127.898 93.2404,128.564 83.5,130.5C 70.872,128.682 57.872,127.848 44.5,128C 43.6667,127.167 42.8333,126.333 42,125.5C 41.5012,121.514 41.3345,117.514 41.5,113.5C 80.5,113.5 119.5,113.5 158.5,113.5C 158.5,93.5 158.5,73.5 158.5,53.5 Z"/></g>
<g><path style="opacity:1" fill="#3c3b53" d="M 113.5,128.5 C 115.478,135.446 117.145,142.446 118.5,149.5C 105.483,149.832 92.4829,149.499 79.5,148.5C 81.1588,142.535 82.4921,136.535 83.5,130.5C 93.2404,128.564 103.24,127.898 113.5,128.5 Z"/></g>
</svg>
