<?xml version="1.0" encoding="UTF-8"?>
<!DOCTYPE svg PUBLIC "-//W3C//DTD SVG 1.1//EN" "http://www.w3.org/Graphics/SVG/1.1/DTD/svg11.dtd">
<svg xmlns="http://www.w3.org/2000/svg" version="1.1" width="200px" height="200px" style="shape-rendering:geometricPrecision; text-rendering:geometricPrecision; image-rendering:optimizeQuality; fill-rule:evenodd; clip-rule:evenodd" xmlns:xlink="http://www.w3.org/1999/xlink">
<g><path style="opacity:0.918" fill="#302d40" d="M 106.5,39.5 C 105.833,39.5 105.5,39.8333 105.5,40.5C 105.167,40.5 104.833,40.5 104.5,40.5C 103.833,40.5 103.167,40.5 102.5,40.5C 103.341,38.6208 103.675,36.6208 103.5,34.5C 100.011,35.2376 96.6774,36.5709 93.5,38.5C 94.7277,41.0715 96.7277,42.4048 99.5,42.5C 99.5,42.8333 99.5,43.1667 99.5,43.5C 97.8014,43.6204 96.1347,43.9537 94.5,44.5C 92.5749,44.4096 91.4083,43.4096 91,41.5C 87.6448,30.6915 91.4781,26.3582 102.5,28.5C 106.451,31.3709 107.785,35.0375 106.5,39.5 Z"/></g>
<g><path style="opacity:0.778" fill="#6b62fe" d="M 62.5,38.5 C 59.5,38.5 56.5,38.5 53.5,38.5C 51.5526,36.7838 50.2193,34.6171 49.5,32C 51.7008,31.1751 53.5341,31.6751 55,33.5C 56.2684,31.2827 57.7684,29.2827 59.5,27.5C 61.1307,29.0588 61.964,31.0588 62,33.5C 63.8138,32.2404 65.6471,32.2404 67.5,33.5C 66.1455,35.5212 64.4788,37.1879 62.5,38.5 Z"/></g>
<g><path style="opacity:1" fill="#f3bcbb" d="M 102.5,40.5 C 101.71,41.4013 100.71,42.0679 99.5,42.5C 96.7277,42.4048 94.7277,41.0715 93.5,38.5C 96.6774,36.5709 100.011,35.2376 103.5,34.5C 103.675,36.6208 103.341,38.6208 102.5,40.5 Z"/></g>
<g><path style="opacity:0.953" fill="#202359" d="M 53.5,38.5 C 56.5,38.5 59.5,38.5 62.5,38.5C 62.5,38.8333 62.5,39.1667 62.5,39.5C 61.6586,41.3792 61.3253,43.3792 61.5,45.5C 59.1667,45.5 56.8333,45.5 54.5,45.5C 53.6314,43.283 53.298,40.9496 53.5,38.5 Z"/></g>
<g><path style="opacity:1" fill="#cdcdcd" d="M 106.5,39.5 C 108.933,39.2729 110.599,40.2729 111.5,42.5C 112.561,48.2196 115.561,52.5529 120.5,55.5C 118.545,54.6765 116.545,54.5099 114.5,55C 113.295,56.3756 111.962,57.5423 110.5,58.5C 108.606,59.0476 106.94,60.0476 105.5,61.5C 102.346,59.6103 99.6789,57.277 97.5,54.5C 97.1436,52.8102 96.1436,51.8102 94.5,51.5C 95.1228,49.2895 96.1228,47.2895 97.5,45.5C 98.5,45.1667 99.1667,44.5 99.5,43.5C 101.674,43.2503 103.341,42.2503 104.5,40.5C 104.833,40.5 105.167,40.5 105.5,40.5C 106.167,40.5 106.5,40.1667 106.5,39.5 Z"/></g>
<g><path style="opacity:0.982" fill="#e4e4e4" d="M 62.5,39.5 C 66.1667,39.5 69.8333,39.5 73.5,39.5C 73.5,40.5 73.5,41.5 73.5,42.5C 74.8333,42.5 76.1667,42.5 77.5,42.5C 77.5,43.5 77.5,44.5 77.5,45.5C 84.1667,45.5 90.8333,45.5 97.5,45.5C 96.1228,47.2895 95.1228,49.2895 94.5,51.5C 92.2133,55.1219 89.5466,58.4552 86.5,61.5C 85.017,59.9062 83.517,58.2395 82,56.5C 77.626,60.3793 73.126,64.0459 68.5,67.5C 53.3424,66.5038 38.0091,66.1705 22.5,66.5C 22.5,59.5 22.5,52.5 22.5,45.5C 33.1667,45.5 43.8333,45.5 54.5,45.5C 56.8333,45.5 59.1667,45.5 61.5,45.5C 61.3253,43.3792 61.6586,41.3792 62.5,39.5 Z"/></g>
<g><path style="opacity:0.995" fill="#e6e6e6" d="M 116.5,45.5 C 134.167,45.5 151.833,45.5 169.5,45.5C 169.5,52.8333 169.5,60.1667 169.5,67.5C 155.99,67.8289 142.656,67.4956 129.5,66.5C 129.672,65.5084 129.338,64.8417 128.5,64.5C 128.167,63.8333 127.833,63.1667 127.5,62.5C 129.14,61.2099 129.64,59.5433 129,57.5C 124.257,53.9205 120.091,49.9205 116.5,45.5 Z"/></g>
<g><path style="opacity:1" fill="#fdb7b7" d="M 111.5,42.5 C 113.411,43.075 115.078,44.075 116.5,45.5C 120.091,49.9205 124.257,53.9205 129,57.5C 129.64,59.5433 129.14,61.2099 127.5,62.5C 125.386,59.9302 123.053,57.5968 120.5,55.5C 115.561,52.5529 112.561,48.2196 111.5,42.5 Z"/></g>
<g><path style="opacity:1" fill="#29283b" d="M 120.5,55.5 C 123.053,57.5968 125.386,59.9302 127.5,62.5C 127.833,63.1667 128.167,63.8333 128.5,64.5C 121.687,65.4912 114.687,65.8245 107.5,65.5C 107.196,64.8501 106.863,64.1835 106.5,63.5C 107.857,61.8144 109.19,60.1477 110.5,58.5C 111.962,57.5423 113.295,56.3756 114.5,55C 116.545,54.5099 118.545,54.6765 120.5,55.5 Z"/></g>
<g><path style="opacity:1" fill="#695dfd" d="M 41.5,54.5 C 45.1378,53.7366 46.6378,55.0699 46,58.5C 42.3307,60.0093 40.8307,58.6759 41.5,54.5 Z"/></g>
<g><path style="opacity:1" fill="#1c1f53" d="M 34.5,54.5 C 38.1612,54.3501 39.1612,55.8501 37.5,59C 33.7071,59.4866 32.7071,57.9866 34.5,54.5 Z"/></g>
<g><path style="opacity:1" fill="#fe6380" d="M 49.5,54.5 C 50.8333,54.5 52.1667,54.5 53.5,54.5C 53.9899,56.9484 53.1566,58.615 51,59.5C 48.3894,58.5001 47.8894,56.8334 49.5,54.5 Z"/></g>
<g><path style="opacity:1" fill="#25275a" d="M 86.5,61.5 C 85.5186,63.4893 84.5186,65.4893 83.5,67.5C 83.685,68.5837 84.0183,69.5837 84.5,70.5C 76.1831,76.8197 68.1831,83.4863 60.5,90.5C 59.5,90.5 58.5,90.5 57.5,90.5C 58.2341,89.2921 58.5674,87.9587 58.5,86.5C 63.4943,86.671 65.3276,84.3376 64,79.5C 58.1793,77.0285 55.6793,78.6951 56.5,84.5C 53.7287,85.7734 52.062,84.7734 51.5,81.5C 54.0599,79.7267 56.3932,77.7267 58.5,75.5C 62.1464,73.1829 65.4797,70.5162 68.5,67.5C 73.126,64.0459 77.626,60.3793 82,56.5C 83.517,58.2395 85.017,59.9062 86.5,61.5 Z"/></g>
<g><path style="opacity:1" fill="#fbb8b8" d="M 94.5,51.5 C 96.1436,51.8102 97.1436,52.8102 97.5,54.5C 93.8052,58.7151 90.6386,63.3817 88,68.5C 87.1841,69.8228 86.0174,70.4894 84.5,70.5C 84.0183,69.5837 83.685,68.5837 83.5,67.5C 84.5186,65.4893 85.5186,63.4893 86.5,61.5C 89.5466,58.4552 92.2133,55.1219 94.5,51.5 Z"/></g>
<g><path style="opacity:1" fill="#696875" d="M 128.5,64.5 C 129.338,64.8417 129.672,65.5084 129.5,66.5C 121.981,66.825 114.648,66.4916 107.5,65.5C 114.687,65.8245 121.687,65.4912 128.5,64.5 Z"/></g>
<g><path style="opacity:0.954" fill="#f0f0f0" d="M 22.5,66.5 C 38.0091,66.1705 53.3424,66.5038 68.5,67.5C 65.4797,70.5162 62.1464,73.1829 58.5,75.5C 51.2537,74.536 43.9204,74.2027 36.5,74.5C 36.3253,76.6208 36.6586,78.6208 37.5,80.5C 33.3174,79.8456 30.484,81.5123 29,85.5C 28.1264,88.3787 28.4597,91.0454 30,93.5C 30.3076,92.6919 30.8076,92.0253 31.5,91.5C 32.5237,92.8532 33.857,93.5198 35.5,93.5C 31.5887,96.841 30.5887,100.841 32.5,105.5C 33.1969,108.423 34.1969,111.256 35.5,114C 33.8914,118.665 33.058,123.499 33,128.5C 31.3844,132.347 30.3844,136.347 30,140.5C 27.637,144.345 25.137,148.011 22.5,151.5C 22.5,123.167 22.5,94.8333 22.5,66.5 Z"/></g>
<g><path style="opacity:0.987" fill="#efefef" d="M 97.5,54.5 C 99.6789,57.277 102.346,59.6103 105.5,61.5C 106.94,60.0476 108.606,59.0476 110.5,58.5C 109.19,60.1477 107.857,61.8144 106.5,63.5C 106.863,64.1835 107.196,64.8501 107.5,65.5C 114.648,66.4916 121.981,66.825 129.5,66.5C 142.656,67.4956 155.99,67.8289 169.5,67.5C 169.5,75.1667 169.5,82.8333 169.5,90.5C 166.833,89.1667 164.167,89.1667 161.5,90.5C 161.5,88.5 161.5,86.5 161.5,84.5C 158.615,84.1936 155.948,84.5269 153.5,85.5C 150.807,82.4608 149.807,78.7941 150.5,74.5C 130.167,74.5 109.833,74.5 89.5,74.5C 89.5,86.5 89.5,98.5 89.5,110.5C 92.8333,110.5 96.1667,110.5 99.5,110.5C 99.5,117.5 99.5,124.5 99.5,131.5C 117.167,131.5 134.833,131.5 152.5,131.5C 152.5,130.5 152.5,129.5 152.5,128.5C 135.991,128.83 119.658,128.496 103.5,127.5C 121.864,126.847 139.864,127.513 157.5,129.5C 156.778,129.918 156.278,130.584 156,131.5C 154.825,138.548 153.659,145.548 152.5,152.5C 118.833,152.5 85.1667,152.5 51.5,152.5C 51.5,152.167 51.5,151.833 51.5,151.5C 52.3238,147.688 52.8238,143.688 53,139.5C 53.4828,140.448 53.6495,141.448 53.5,142.5C 63.1667,142.5 72.8333,142.5 82.5,142.5C 82.5,138.167 82.5,133.833 82.5,129.5C 72.5,129.5 62.5,129.5 52.5,129.5C 52.7947,131.735 52.4614,133.735 51.5,135.5C 51.0019,130.848 50.6686,126.181 50.5,121.5C 51.404,122.209 51.7373,123.209 51.5,124.5C 61.8333,124.5 72.1667,124.5 82.5,124.5C 82.5,120.167 82.5,115.833 82.5,111.5C 70.7527,111.189 59.0861,111.522 47.5,112.5C 47.4431,111.391 47.1098,110.391 46.5,109.5C 46.5,108.5 46.5,107.5 46.5,106.5C 47.1667,105.167 47.8333,103.833 48.5,102.5C 48.5,103.5 48.5,104.5 48.5,105.5C 59.8333,105.5 71.1667,105.5 82.5,105.5C 82.5,101.167 82.5,96.8333 82.5,92.5C 75.1591,92.6663 67.8258,92.4997 60.5,92C 61.7383,91.31 61.7383,90.81 60.5,90.5C 68.1831,83.4863 76.1831,76.8197 84.5,70.5C 86.0174,70.4894 87.1841,69.8228 88,68.5C 90.6386,63.3817 93.8052,58.7151 97.5,54.5 Z"/></g>
<g><path style="opacity:1" fill="#dddbdb" d="M 58.5,75.5 C 56.3932,77.7267 54.0599,79.7267 51.5,81.5C 50.2921,82.2341 48.9587,82.5674 47.5,82.5C 47.8885,87.6278 47.3885,92.6278 46,97.5C 45.1841,96.1772 44.0174,95.5106 42.5,95.5C 41.5,94.8333 40.5,94.1667 39.5,93.5C 41.7626,91.2335 42.0959,88.5668 40.5,85.5C 41.7287,84.7189 43.062,84.2189 44.5,84C 42.6909,81.7621 40.3576,80.5954 37.5,80.5C 36.6586,78.6208 36.3253,76.6208 36.5,74.5C 43.9204,74.2027 51.2537,74.536 58.5,75.5 Z"/></g>
<g><path style="opacity:1" fill="#e5e4e4" d="M 153.5,85.5 C 154.11,86.391 154.443,87.391 154.5,88.5C 154.167,88.5 153.833,88.5 153.5,88.5C 151.833,87.1667 150.167,85.8333 148.5,84.5C 133.5,84.5 118.5,84.5 103.5,84.5C 102.504,98.6569 102.171,112.99 102.5,127.5C 101.833,114.66 101.167,101.66 100.5,88.5C 99.5027,95.8032 99.1694,103.137 99.5,110.5C 96.1667,110.5 92.8333,110.5 89.5,110.5C 89.5,98.5 89.5,86.5 89.5,74.5C 109.833,74.5 130.167,74.5 150.5,74.5C 149.807,78.7941 150.807,82.4608 153.5,85.5 Z"/></g>
<g><path style="opacity:1" fill="#f46684" d="M 58.5,86.5 C 57.8333,85.8333 57.1667,85.1667 56.5,84.5C 55.6793,78.6951 58.1793,77.0285 64,79.5C 65.3276,84.3376 63.4943,86.671 58.5,86.5 Z"/></g>
<g><path style="opacity:1" fill="#2a293c" d="M 37.5,80.5 C 40.3576,80.5954 42.6909,81.7621 44.5,84C 43.062,84.2189 41.7287,84.7189 40.5,85.5C 42.0959,88.5668 41.7626,91.2335 39.5,93.5C 38.1667,93.5 36.8333,93.5 35.5,93.5C 33.857,93.5198 32.5237,92.8532 31.5,91.5C 30.8076,92.0253 30.3076,92.6919 30,93.5C 28.4597,91.0454 28.1264,88.3787 29,85.5C 30.484,81.5123 33.3174,79.8456 37.5,80.5 Z"/></g>
<g><path style="opacity:1" fill="#304590" d="M 148.5,84.5 C 150.167,85.8333 151.833,87.1667 153.5,88.5C 154.826,94.4607 157.492,99.794 161.5,104.5C 161.295,111.141 161.295,117.807 161.5,124.5C 160.599,125.29 159.932,126.29 159.5,127.5C 158.833,127.5 158.5,127.167 158.5,126.5C 140.674,125.503 122.674,125.17 104.5,125.5C 104.5,112.167 104.5,98.8333 104.5,85.5C 119.343,85.8293 134.01,85.496 148.5,84.5 Z"/></g>
<g><path style="opacity:1" fill="#2b3f8d" d="M 161.5,90.5 C 160.596,91.209 160.263,92.209 160.5,93.5C 158.456,91.7806 156.456,90.1139 154.5,88.5C 154.443,87.391 154.11,86.391 153.5,85.5C 155.948,84.5269 158.615,84.1936 161.5,84.5C 161.5,86.5 161.5,88.5 161.5,90.5 Z"/></g>
<g><path style="opacity:0.992" fill="#312f42" d="M 169.5,90.5 C 170.652,91.8336 171.652,93.3336 172.5,95C 170.837,96.4946 169.837,98.328 169.5,100.5C 168.312,99.3157 167.145,99.3157 166,100.5C 165.283,99.9558 164.783,99.2891 164.5,98.5C 165.244,95.0504 163.91,93.3838 160.5,93.5C 160.263,92.209 160.596,91.209 161.5,90.5C 164.167,89.1667 166.833,89.1667 169.5,90.5 Z"/></g>
<g><path style="opacity:1" fill="#f1bcbc" d="M 51.5,81.5 C 52.062,84.7734 53.7287,85.7734 56.5,84.5C 57.1667,85.1667 57.8333,85.8333 58.5,86.5C 58.5674,87.9587 58.2341,89.2921 57.5,90.5C 54.6433,93.5464 52.81,97.2131 52,101.5C 50.9887,102.337 49.8221,102.67 48.5,102.5C 47.8333,103.833 47.1667,105.167 46.5,106.5C 46.5,104.833 46.5,103.167 46.5,101.5C 41.8588,101.892 39.5255,99.8922 39.5,95.5C 40.5,95.5 41.5,95.5 42.5,95.5C 44.0174,95.5106 45.1841,96.1772 46,97.5C 47.3885,92.6278 47.8885,87.6278 47.5,82.5C 48.9587,82.5674 50.2921,82.2341 51.5,81.5 Z"/></g>
<g><path style="opacity:0.989" fill="#6c62f9" d="M 153.5,88.5 C 153.833,88.5 154.167,88.5 154.5,88.5C 156.456,90.1139 158.456,91.7806 160.5,93.5C 161.08,95.7488 162.413,97.4154 164.5,98.5C 164.783,99.2891 165.283,99.9558 166,100.5C 167.145,99.3157 168.312,99.3157 169.5,100.5C 171.533,101.898 172.533,103.898 172.5,106.5C 171.992,109.534 171.325,112.534 170.5,115.5C 171.277,117.447 172.277,119.28 173.5,121C 173.43,121.765 173.097,122.265 172.5,122.5C 169.145,122.091 166.145,122.758 163.5,124.5C 162.833,124.5 162.167,124.5 161.5,124.5C 161.295,117.807 161.295,111.141 161.5,104.5C 157.492,99.794 154.826,94.4607 153.5,88.5 Z"/></g>
<g><path style="opacity:1" fill="#e2e2e2" d="M 57.5,90.5 C 58.5,90.5 59.5,90.5 60.5,90.5C 61.7383,90.81 61.7383,91.31 60.5,92C 67.8258,92.4997 75.1591,92.6663 82.5,92.5C 82.5,96.8333 82.5,101.167 82.5,105.5C 71.1667,105.5 59.8333,105.5 48.5,105.5C 48.5,104.5 48.5,103.5 48.5,102.5C 49.8221,102.67 50.9887,102.337 52,101.5C 52.81,97.2131 54.6433,93.5464 57.5,90.5 Z"/></g>
<g><path style="opacity:1" fill="#ebb9b5" d="M 160.5,93.5 C 163.91,93.3838 165.244,95.0504 164.5,98.5C 162.413,97.4154 161.08,95.7488 160.5,93.5 Z"/></g>
<g><path style="opacity:1" fill="#3d3b54" d="M 35.5,93.5 C 36.8333,93.5 38.1667,93.5 39.5,93.5C 40.5,94.1667 41.5,94.8333 42.5,95.5C 41.5,95.5 40.5,95.5 39.5,95.5C 39.5255,99.8922 41.8588,101.892 46.5,101.5C 46.5,103.167 46.5,104.833 46.5,106.5C 46.5,107.5 46.5,108.5 46.5,109.5C 43.282,110.692 40.1153,112.025 37,113.5C 35.6882,110.014 34.1882,107.347 32.5,105.5C 30.5887,100.841 31.5887,96.841 35.5,93.5 Z"/></g>
<g><path style="opacity:1" fill="#f76683" d="M 131.5,95.5 C 137.704,95.3137 139.037,97.8137 135.5,103C 130.632,102.711 129.299,100.211 131.5,95.5 Z"/></g>
<g><path style="opacity:1" fill="#97a2c8" d="M 120.5,99.5 C 121.496,99.4142 122.329,99.7476 123,100.5C 126.585,106.002 129.919,111.669 133,117.5C 136.509,113.791 140.009,110.125 143.5,106.5C 147.803,111.809 152.137,117.142 156.5,122.5C 140.5,123.833 124.5,123.833 108.5,122.5C 112.766,114.969 116.766,107.302 120.5,99.5 Z"/></g>
<g><path style="opacity:0.995" fill="#2d2c3f" d="M 46.5,109.5 C 47.1098,110.391 47.4431,111.391 47.5,112.5C 48.3307,115.659 49.3307,118.659 50.5,121.5C 50.6686,126.181 51.0019,130.848 51.5,135.5C 51.5,140.833 51.5,146.167 51.5,151.5C 51.5,151.833 51.5,152.167 51.5,152.5C 51.5,154.5 51.5,156.5 51.5,158.5C 51.585,160.929 52.585,162.929 54.5,164.5C 51.9135,165.48 49.2469,165.813 46.5,165.5C 46.5,164.5 46.5,163.5 46.5,162.5C 49.5,162.833 50.8333,161.5 50.5,158.5C 49.1667,158.5 47.8333,158.5 46.5,158.5C 46.1667,158.5 45.8333,158.5 45.5,158.5C 45.634,156.708 45.3007,155.042 44.5,153.5C 45.0431,153.44 45.3764,153.107 45.5,152.5C 44.5609,144.845 43.5609,137.178 42.5,129.5C 38.7444,137.346 34.7444,145.013 30.5,152.5C 29.3625,155.508 27.3625,157.508 24.5,158.5C 23.4863,157.326 22.153,156.66 20.5,156.5C 20.8925,154.716 21.5592,153.05 22.5,151.5C 25.137,148.011 27.637,144.345 30,140.5C 30.3844,136.347 31.3844,132.347 33,128.5C 33.058,123.499 33.8914,118.665 35.5,114C 34.1969,111.256 33.1969,108.423 32.5,105.5C 34.1882,107.347 35.6882,110.014 37,113.5C 40.1153,112.025 43.282,110.692 46.5,109.5 Z"/></g>
<g><path style="opacity:1" fill="#e3e3e3" d="M 50.5,121.5 C 49.3307,118.659 48.3307,115.659 47.5,112.5C 59.0861,111.522 70.7527,111.189 82.5,111.5C 82.5,115.833 82.5,120.167 82.5,124.5C 72.1667,124.5 61.8333,124.5 51.5,124.5C 51.7373,123.209 51.404,122.209 50.5,121.5 Z"/></g>
<g><path style="opacity:1" fill="#162f86" d="M 103.5,84.5 C 118.5,84.5 133.5,84.5 148.5,84.5C 134.01,85.496 119.343,85.8293 104.5,85.5C 104.5,98.8333 104.5,112.167 104.5,125.5C 122.674,125.17 140.674,125.503 158.5,126.5C 140.167,126.5 121.833,126.5 103.5,126.5C 103.5,112.5 103.5,98.5 103.5,84.5 Z"/></g>
<g><path style="opacity:1" fill="#6975a8" d="M 103.5,84.5 C 103.5,98.5 103.5,112.5 103.5,126.5C 121.833,126.5 140.167,126.5 158.5,126.5C 158.5,127.167 158.833,127.5 159.5,127.5C 159.167,128.167 158.833,128.833 158.5,129.5C 158.167,129.5 157.833,129.5 157.5,129.5C 139.864,127.513 121.864,126.847 103.5,127.5C 103.167,127.5 102.833,127.5 102.5,127.5C 102.171,112.99 102.504,98.6569 103.5,84.5 Z"/></g>
<g><path style="opacity:1" fill="#d4d4d3" d="M 102.5,127.5 C 102.833,127.5 103.167,127.5 103.5,127.5C 119.658,128.496 135.991,128.83 152.5,128.5C 152.5,129.5 152.5,130.5 152.5,131.5C 134.833,131.5 117.167,131.5 99.5,131.5C 99.5,124.5 99.5,117.5 99.5,110.5C 99.1694,103.137 99.5027,95.8032 100.5,88.5C 101.167,101.66 101.833,114.66 102.5,127.5 Z"/></g>
<g><path style="opacity:1" fill="#dfb2b1" d="M 161.5,124.5 C 162.167,124.5 162.833,124.5 163.5,124.5C 163.108,126.179 162.608,127.846 162,129.5C 160.708,130.791 159.542,130.791 158.5,129.5C 158.833,128.833 159.167,128.167 159.5,127.5C 159.932,126.29 160.599,125.29 161.5,124.5 Z"/></g>
<g><path style="opacity:1" fill="#e2e2e2" d="M 51.5,151.5 C 51.5,146.167 51.5,140.833 51.5,135.5C 52.4614,133.735 52.7947,131.735 52.5,129.5C 62.5,129.5 72.5,129.5 82.5,129.5C 82.5,133.833 82.5,138.167 82.5,142.5C 72.8333,142.5 63.1667,142.5 53.5,142.5C 53.6495,141.448 53.4828,140.448 53,139.5C 52.8238,143.688 52.3238,147.688 51.5,151.5 Z"/></g>
<g><path style="opacity:0.98" fill="#2b2b3e" d="M 172.5,122.5 C 171.221,127.449 171.221,132.449 172.5,137.5C 177.729,140.274 182.729,143.274 187.5,146.5C 186.599,147.29 185.932,148.29 185.5,149.5C 184.833,150.833 184.167,152.167 183.5,153.5C 182.833,153.5 182.5,153.833 182.5,154.5C 182.565,154.938 182.399,155.272 182,155.5C 180.184,154.671 178.351,153.837 176.5,153C 175.663,151.989 175.33,150.822 175.5,149.5C 174.167,149.5 172.833,149.5 171.5,149.5C 171.573,147.973 170.906,146.973 169.5,146.5C 168.581,143.911 166.914,141.911 164.5,140.5C 164.817,137.428 164.484,134.428 163.5,131.5C 162.614,132.325 162.281,133.325 162.5,134.5C 161.193,140.932 161.193,147.266 162.5,153.5C 162.065,155.703 162.065,157.703 162.5,159.5C 161.527,161.948 161.194,164.615 161.5,167.5C 153.992,168.206 152.992,166.539 158.5,162.5C 160.552,161.947 160.885,160.947 159.5,159.5C 158.791,158.596 157.791,158.263 156.5,158.5C 154.833,158.5 153.167,158.5 151.5,158.5C 151.325,156.379 151.659,154.379 152.5,152.5C 153.659,145.548 154.825,138.548 156,131.5C 156.278,130.584 156.778,129.918 157.5,129.5C 157.833,129.5 158.167,129.5 158.5,129.5C 159.542,130.791 160.708,130.791 162,129.5C 162.608,127.846 163.108,126.179 163.5,124.5C 166.145,122.758 169.145,122.091 172.5,122.5 Z M 169.5,146.5 C 170.906,146.973 171.573,147.973 171.5,149.5C 170.833,149.167 170.167,148.833 169.5,148.5C 169.5,147.833 169.5,147.167 169.5,146.5 Z"/></g>
<g><path style="opacity:0.972" fill="#e3e3e4" d="M 162.5,134.5 C 163.167,136.5 163.833,138.5 164.5,140.5C 166.914,141.911 168.581,143.911 169.5,146.5C 169.5,147.167 169.5,147.833 169.5,148.5C 169.5,149.833 169.5,151.167 169.5,152.5C 166.941,152.198 164.607,152.532 162.5,153.5C 161.193,147.266 161.193,140.932 162.5,134.5 Z"/></g>
<g><path style="opacity:1" fill="#94949c" d="M 164.5,140.5 C 163.833,138.5 163.167,136.5 162.5,134.5C 162.281,133.325 162.614,132.325 163.5,131.5C 164.484,134.428 164.817,137.428 164.5,140.5 Z"/></g>
<g><path style="opacity:0.97" fill="#ebebeb" d="M 44.5,153.5 C 40.03,152.514 35.3633,152.181 30.5,152.5C 34.7444,145.013 38.7444,137.346 42.5,129.5C 43.5609,137.178 44.5609,144.845 45.5,152.5C 45.3764,153.107 45.0431,153.44 44.5,153.5 Z"/></g>
<g><path style="opacity:0.694" fill="#e2b1b2" d="M 187.5,146.5 C 188.391,147.11 189.391,147.443 190.5,147.5C 190.573,149.027 189.906,150.027 188.5,150.5C 187.609,149.89 186.609,149.557 185.5,149.5C 185.932,148.29 186.599,147.29 187.5,146.5 Z"/></g>
<g><path style="opacity:0.033" fill="#030303" d="M 169.5,148.5 C 170.167,148.833 170.833,149.167 171.5,149.5C 172.914,151.598 172.248,152.598 169.5,152.5C 169.5,151.167 169.5,149.833 169.5,148.5 Z"/></g>
<g><path style="opacity:0.997" fill="#2a293e" d="M 190.5,147.5 C 194.935,148.71 195.601,151.044 192.5,154.5C 191.675,155.386 190.675,155.719 189.5,155.5C 189.634,153.708 189.301,152.042 188.5,150.5C 189.906,150.027 190.573,149.027 190.5,147.5 Z"/></g>
<g><path style="opacity:0.02" fill="#ededee" d="M 182.5,154.5 C 182.5,153.833 182.833,153.5 183.5,153.5C 184.742,155.346 184.409,155.679 182.5,154.5 Z"/></g>
<g><path style="opacity:1" fill="#f4cbc8" d="M 20.5,156.5 C 22.153,156.66 23.4863,157.326 24.5,158.5C 23.8333,158.5 23.5,158.833 23.5,159.5C 21.6203,159.771 20.287,159.104 19.5,157.5C 20.1667,157.5 20.5,157.167 20.5,156.5 Z"/></g>
<g><path style="opacity:0.964" fill="#3e3c55" d="M 19.5,157.5 C 20.287,159.104 21.6203,159.771 23.5,159.5C 23.7352,160.097 24.2352,160.43 25,160.5C 31.8444,159.814 38.6778,159.147 45.5,158.5C 45.8333,158.5 46.1667,158.5 46.5,158.5C 46.5,159.833 46.5,161.167 46.5,162.5C 46.5,163.5 46.5,164.5 46.5,165.5C 49.2469,165.813 51.9135,165.48 54.5,164.5C 52.585,162.929 51.585,160.929 51.5,158.5C 86.6821,157.45 121.682,157.45 156.5,158.5C 157.791,158.263 158.791,158.596 159.5,159.5C 158.761,159.369 158.094,159.536 157.5,160C 158.252,160.671 158.586,161.504 158.5,162.5C 152.992,166.539 153.992,168.206 161.5,167.5C 161.194,164.615 161.527,161.948 162.5,159.5C 168.705,160.606 175.038,161.773 181.5,163C 182.973,163.71 183.64,164.876 183.5,166.5C 169.965,168.988 156.298,170.488 142.5,171C 110.5,171.667 78.5,171.667 46.5,171C 32.7015,170.488 19.0348,168.988 5.5,166.5C 5.28099,165.325 5.61432,164.325 6.5,163.5C 10.1353,162.394 13.8019,161.394 17.5,160.5C 17.9424,159.261 18.6091,158.261 19.5,157.5 Z"/></g>
<g><path style="opacity:1" fill="#edc3c1" d="M 159.5,159.5 C 160.885,160.947 160.552,161.947 158.5,162.5C 158.586,161.504 158.252,160.671 157.5,160C 158.094,159.536 158.761,159.369 159.5,159.5 Z"/></g>
<g><path style="opacity:1" fill="#ac9197" d="M 46.5,158.5 C 47.8333,158.5 49.1667,158.5 50.5,158.5C 50.8333,161.5 49.5,162.833 46.5,162.5C 46.5,161.167 46.5,159.833 46.5,158.5 Z"/></g>
</svg>
