<?xml version="1.0" encoding="UTF-8"?>
<!DOCTYPE svg PUBLIC "-//W3C//DTD SVG 1.1//EN" "http://www.w3.org/Graphics/SVG/1.1/DTD/svg11.dtd">
<svg xmlns="http://www.w3.org/2000/svg" version="1.1" width="200px" height="200px" style="shape-rendering:geometricPrecision; text-rendering:geometricPrecision; image-rendering:optimizeQuality; fill-rule:evenodd; clip-rule:evenodd" xmlns:xlink="http://www.w3.org/1999/xlink">
<g><path style="opacity:1" fill="#fefdfe" d="M -0.5,-0.5 C 66.1667,-0.5 132.833,-0.5 199.5,-0.5C 199.5,66.1667 199.5,132.833 199.5,199.5C 132.833,199.5 66.1667,199.5 -0.5,199.5C -0.5,132.833 -0.5,66.1667 -0.5,-0.5 Z"/></g>
<g><path style="opacity:1" fill="#373547" d="M 102.5,40.5 C 103.341,38.6208 103.675,36.6208 103.5,34.5C 100.011,35.2376 96.6774,36.5709 93.5,38.5C 94.8569,40.1856 96.1902,41.8523 97.5,43.5C 93.8384,44.3629 91.6718,43.0296 91,39.5C 89.1778,31.3332 92.3445,27.4998 100.5,28C 104.095,29.7642 106.428,32.5976 107.5,36.5C 106.395,38.6114 104.729,39.9447 102.5,40.5 Z"/></g>
<g><path style="opacity:1" fill="#7b71ff" d="M 60.5,29.5 C 60.5432,33.8926 60.0432,34.2259 59,30.5C 56.9354,32.8248 56.6021,35.1581 58,37.5C 58.4244,35.3855 59.5911,34.5521 61.5,35C 60.695,36.1127 60.0283,37.2794 59.5,38.5C 57.5,38.5 55.5,38.5 53.5,38.5C 51.3,36.4768 50.6333,34.1435 51.5,31.5C 54.9013,34.3198 57.2346,33.4864 58.5,29C 59.4368,28.3083 60.1034,28.475 60.5,29.5 Z"/></g>
<g><path style="opacity:1" fill="#a69fff" d="M 60.5,29.5 C 61.4345,30.5676 61.7678,31.901 61.5,33.5C 67.2896,33.1975 67.6229,34.8641 62.5,38.5C 62.1667,38.5 61.8333,38.5 61.5,38.5C 60.8333,38.5 60.1667,38.5 59.5,38.5C 60.0283,37.2794 60.695,36.1127 61.5,35C 59.5911,34.5521 58.4244,35.3855 58,37.5C 56.6021,35.1581 56.9354,32.8248 59,30.5C 60.0432,34.2259 60.5432,33.8926 60.5,29.5 Z"/></g>
<g><path style="opacity:1" fill="#f2bdbc" d="M 102.5,40.5 C 101.035,41.7368 99.3684,42.7368 97.5,43.5C 96.1902,41.8523 94.8569,40.1856 93.5,38.5C 96.6774,36.5709 100.011,35.2376 103.5,34.5C 103.675,36.6208 103.341,38.6208 102.5,40.5 Z"/></g>
<g><path style="opacity:1" fill="#25275a" d="M 53.5,38.5 C 55.5,38.5 57.5,38.5 59.5,38.5C 60.1667,38.5 60.8333,38.5 61.5,38.5C 61.5,40.8333 61.5,43.1667 61.5,45.5C 59.1667,45.5 56.8333,45.5 54.5,45.5C 54.0074,43.1944 53.6741,40.861 53.5,38.5 Z"/></g>
<g><path style="opacity:1" fill="#cdcdcd" d="M 111.5,42.5 C 112.55,48.2116 115.55,52.545 120.5,55.5C 118.545,54.6765 116.545,54.5099 114.5,55C 113.295,56.3756 111.962,57.5423 110.5,58.5C 108.606,59.0476 106.94,60.0476 105.5,61.5C 102.346,59.6103 99.6789,57.277 97.5,54.5C 97.1436,52.8102 96.1436,51.8102 94.5,51.5C 95.1667,49.8333 95.8333,48.1667 96.5,46.5C 100.673,43.2407 105.34,41.4073 110.5,41C 111.056,41.3826 111.389,41.8826 111.5,42.5 Z"/></g>
<g><path style="opacity:1" fill="#e4e4e4" d="M 61.5,38.5 C 61.8333,38.5 62.1667,38.5 62.5,38.5C 62.3398,40.1992 62.5065,41.8659 63,43.5C 67.7367,42.5308 72.57,42.1975 77.5,42.5C 77.5,43.5 77.5,44.5 77.5,45.5C 83.8692,45.347 90.2026,45.6803 96.5,46.5C 95.8333,48.1667 95.1667,49.8333 94.5,51.5C 92.2133,55.1219 89.5466,58.4552 86.5,61.5C 85.017,59.9062 83.517,58.2395 82,56.5C 77.626,60.3793 73.126,64.0459 68.5,67.5C 53.676,66.5039 38.676,66.1706 23.5,66.5C 23.5,59.8333 23.5,53.1667 23.5,46.5C 33.1667,46.5 42.8333,46.5 52.5,46.5C 55.408,47.5691 58.408,47.7358 61.5,47C 58.9644,46.8138 56.631,46.3138 54.5,45.5C 56.8333,45.5 59.1667,45.5 61.5,45.5C 61.5,43.1667 61.5,40.8333 61.5,38.5 Z"/></g>
<g><path style="opacity:1" fill="#e6e6e6" d="M 169.5,47.5 C 168.509,53.979 168.176,60.6457 168.5,67.5C 155.323,67.8288 142.323,67.4955 129.5,66.5C 129.672,65.5084 129.338,64.8417 128.5,64.5C 128.167,63.8333 127.833,63.1667 127.5,62.5C 129.14,61.2099 129.64,59.5433 129,57.5C 124.64,53.9681 120.473,50.3014 116.5,46.5C 125.16,45.8335 133.994,45.5002 143,45.5C 152.193,45.5018 161.026,46.1685 169.5,47.5 Z"/></g>
<g><path style="opacity:1" fill="#fcb8b8" d="M 111.5,42.5 C 113.167,43.8333 114.833,45.1667 116.5,46.5C 120.473,50.3014 124.64,53.9681 129,57.5C 129.64,59.5433 129.14,61.2099 127.5,62.5C 125.386,59.9302 123.053,57.5968 120.5,55.5C 115.55,52.545 112.55,48.2116 111.5,42.5 Z"/></g>
<g><path style="opacity:1" fill="#695dfd" d="M 41.5,54.5 C 45.1378,53.7366 46.6378,55.0699 46,58.5C 42.3307,60.0093 40.8307,58.6759 41.5,54.5 Z"/></g>
<g><path style="opacity:1" fill="#1c1f53" d="M 34.5,54.5 C 38.1612,54.3501 39.1612,55.8501 37.5,59C 33.7071,59.4866 32.7071,57.9866 34.5,54.5 Z"/></g>
<g><path style="opacity:1" fill="#fe6380" d="M 49.5,54.5 C 50.8333,54.5 52.1667,54.5 53.5,54.5C 53.9899,56.9484 53.1566,58.615 51,59.5C 48.3894,58.5001 47.8894,56.8334 49.5,54.5 Z"/></g>
<g><path style="opacity:1" fill="#25275a" d="M 86.5,61.5 C 85.5186,63.4893 84.5186,65.4893 83.5,67.5C 83.685,68.5837 84.0183,69.5837 84.5,70.5C 76.1831,76.8197 68.1831,83.4863 60.5,90.5C 59.5,90.5 58.5,90.5 57.5,90.5C 58.2341,89.2921 58.5674,87.9587 58.5,86.5C 63.4943,86.671 65.3276,84.3376 64,79.5C 58.1793,77.0285 55.6793,78.6951 56.5,84.5C 53.7287,85.7734 52.062,84.7734 51.5,81.5C 54.0599,79.7267 56.3932,77.7267 58.5,75.5C 62.1464,73.1829 65.4797,70.5162 68.5,67.5C 73.126,64.0459 77.626,60.3793 82,56.5C 83.517,58.2395 85.017,59.9062 86.5,61.5 Z"/></g>
<g><path style="opacity:1" fill="#fbb8b8" d="M 94.5,51.5 C 96.1436,51.8102 97.1436,52.8102 97.5,54.5C 93.8052,58.7151 90.6386,63.3817 88,68.5C 87.1841,69.8228 86.0174,70.4894 84.5,70.5C 84.0183,69.5837 83.685,68.5837 83.5,67.5C 84.5186,65.4893 85.5186,63.4893 86.5,61.5C 89.5466,58.4552 92.2133,55.1219 94.5,51.5 Z"/></g>
<g><path style="opacity:1" fill="#f0f0f0" d="M 52.5,46.5 C 42.8333,46.5 33.1667,46.5 23.5,46.5C 23.5,53.1667 23.5,59.8333 23.5,66.5C 38.676,66.1706 53.676,66.5039 68.5,67.5C 65.4797,70.5162 62.1464,73.1829 58.5,75.5C 51.2537,74.536 43.9204,74.2027 36.5,74.5C 36.3253,76.6208 36.6586,78.6208 37.5,80.5C 33.3174,79.8456 30.484,81.5123 29,85.5C 28.1264,88.3787 28.4597,91.0454 30,93.5C 30.3076,92.6919 30.8076,92.0253 31.5,91.5C 32.5237,92.8532 33.857,93.5198 35.5,93.5C 34.5423,94.9616 33.3756,96.2949 32,97.5C 31.1838,103.386 32.3505,108.886 35.5,114C 33.8914,118.665 33.058,123.499 33,128.5C 31.3844,132.347 30.3844,136.347 30,140.5C 28.7225,142.747 27.2225,144.747 25.5,146.5C 25.19,145.262 24.69,145.262 24,146.5C 23.0358,112.84 22.5358,79.1729 22.5,45.5C 32.6806,45.1726 42.6806,45.506 52.5,46.5 Z"/></g>
<g><path style="opacity:1" fill="#efefef" d="M 169.5,47.5 C 170.122,61.7448 169.455,75.7448 167.5,89.5C 165.435,89.5172 163.435,89.8505 161.5,90.5C 161.5,88.5 161.5,86.5 161.5,84.5C 158.615,84.1936 155.948,84.5269 153.5,85.5C 150.807,82.4608 149.807,78.7941 150.5,74.5C 130.167,74.5 109.833,74.5 89.5,74.5C 89.5,86.5 89.5,98.5 89.5,110.5C 92.8333,110.5 96.1667,110.5 99.5,110.5C 99.5,117.5 99.5,124.5 99.5,131.5C 117.167,131.5 134.833,131.5 152.5,131.5C 152.5,130.5 152.5,129.5 152.5,128.5C 135.991,128.83 119.658,128.496 103.5,127.5C 121.864,126.847 139.864,127.513 157.5,129.5C 156.778,129.918 156.278,130.584 156,131.5C 154.919,138.325 153.753,144.992 152.5,151.5C 152.167,143.5 151.833,143.5 151.5,151.5C 149.549,151.773 148.049,151.107 147,149.5C 116.057,151.488 84.8904,152.155 53.5,151.5C 53.5,148.5 53.5,145.5 53.5,142.5C 63.1667,142.5 72.8333,142.5 82.5,142.5C 82.5,138.167 82.5,133.833 82.5,129.5C 72.5,129.5 62.5,129.5 52.5,129.5C 52.7947,131.735 52.4614,133.735 51.5,135.5C 51.0019,130.848 50.6686,126.181 50.5,121.5C 51.404,122.209 51.7373,123.209 51.5,124.5C 61.8333,124.5 72.1667,124.5 82.5,124.5C 82.5,120.167 82.5,115.833 82.5,111.5C 70.7527,111.189 59.0861,111.522 47.5,112.5C 46.8505,110.565 46.5172,108.565 46.5,106.5C 47.1667,105.167 47.8333,103.833 48.5,102.5C 48.5,103.5 48.5,104.5 48.5,105.5C 59.8333,105.5 71.1667,105.5 82.5,105.5C 82.5,101.167 82.5,96.8333 82.5,92.5C 75.1591,92.6663 67.8258,92.4997 60.5,92C 61.7383,91.31 61.7383,90.81 60.5,90.5C 68.1831,83.4863 76.1831,76.8197 84.5,70.5C 86.0174,70.4894 87.1841,69.8228 88,68.5C 90.6386,63.3817 93.8052,58.7151 97.5,54.5C 99.6789,57.277 102.346,59.6103 105.5,61.5C 106.94,60.0476 108.606,59.0476 110.5,58.5C 109.19,60.1477 107.857,61.8144 106.5,63.5C 106.863,64.1835 107.196,64.8501 107.5,65.5C 114.648,66.4916 121.981,66.825 129.5,66.5C 142.323,67.4955 155.323,67.8288 168.5,67.5C 168.176,60.6457 168.509,53.979 169.5,47.5 Z"/></g>
<g><path style="opacity:1" fill="#696875" d="M 128.5,64.5 C 129.338,64.8417 129.672,65.5084 129.5,66.5C 121.981,66.825 114.648,66.4916 107.5,65.5C 114.687,65.8245 121.687,65.4912 128.5,64.5 Z"/></g>
<g><path style="opacity:1" fill="#29283b" d="M 120.5,55.5 C 123.053,57.5968 125.386,59.9302 127.5,62.5C 127.833,63.1667 128.167,63.8333 128.5,64.5C 121.687,65.4912 114.687,65.8245 107.5,65.5C 107.196,64.8501 106.863,64.1835 106.5,63.5C 107.857,61.8144 109.19,60.1477 110.5,58.5C 111.962,57.5423 113.295,56.3756 114.5,55C 116.545,54.5099 118.545,54.6765 120.5,55.5 Z"/></g>
<g><path style="opacity:1" fill="#dcdbdb" d="M 58.5,75.5 C 56.3932,77.7267 54.0599,79.7267 51.5,81.5C 50.2921,82.2341 48.9587,82.5674 47.5,82.5C 47.8885,87.6278 47.3885,92.6278 46,97.5C 45.1841,96.1772 44.0174,95.5106 42.5,95.5C 41.5,94.8333 40.5,94.1667 39.5,93.5C 41.7626,91.2335 42.0959,88.5668 40.5,85.5C 41.7287,84.7189 43.062,84.2189 44.5,84C 42.6909,81.7621 40.3576,80.5954 37.5,80.5C 36.6586,78.6208 36.3253,76.6208 36.5,74.5C 43.9204,74.2027 51.2537,74.536 58.5,75.5 Z"/></g>
<g><path style="opacity:1" fill="#e5e4e4" d="M 153.5,85.5 C 154.11,86.391 154.443,87.391 154.5,88.5C 154.167,88.5 153.833,88.5 153.5,88.5C 151.833,87.1667 150.167,85.8333 148.5,84.5C 133.5,84.5 118.5,84.5 103.5,84.5C 102.504,98.6569 102.171,112.99 102.5,127.5C 101.833,114.66 101.167,101.66 100.5,88.5C 99.5027,95.8032 99.1694,103.137 99.5,110.5C 96.1667,110.5 92.8333,110.5 89.5,110.5C 89.5,98.5 89.5,86.5 89.5,74.5C 109.833,74.5 130.167,74.5 150.5,74.5C 149.807,78.7941 150.807,82.4608 153.5,85.5 Z"/></g>
<g><path style="opacity:1" fill="#f46684" d="M 58.5,86.5 C 57.8333,85.8333 57.1667,85.1667 56.5,84.5C 55.6793,78.6951 58.1793,77.0285 64,79.5C 65.3276,84.3376 63.4943,86.671 58.5,86.5 Z"/></g>
<g><path style="opacity:1" fill="#2a293c" d="M 37.5,80.5 C 40.3576,80.5954 42.6909,81.7621 44.5,84C 43.062,84.2189 41.7287,84.7189 40.5,85.5C 42.0959,88.5668 41.7626,91.2335 39.5,93.5C 38.1667,93.5 36.8333,93.5 35.5,93.5C 33.857,93.5198 32.5237,92.8532 31.5,91.5C 30.8076,92.0253 30.3076,92.6919 30,93.5C 28.4597,91.0454 28.1264,88.3787 29,85.5C 30.484,81.5123 33.3174,79.8456 37.5,80.5 Z"/></g>
<g><path style="opacity:1" fill="#304590" d="M 148.5,84.5 C 150.167,85.8333 151.833,87.1667 153.5,88.5C 154.826,94.4607 157.492,99.794 161.5,104.5C 161.295,111.141 161.295,117.807 161.5,124.5C 160.599,125.29 159.932,126.29 159.5,127.5C 158.833,127.5 158.5,127.167 158.5,126.5C 140.674,125.503 122.674,125.17 104.5,125.5C 104.5,112.167 104.5,98.8333 104.5,85.5C 119.343,85.8293 134.01,85.496 148.5,84.5 Z"/></g>
<g><path style="opacity:1" fill="#2b3f8d" d="M 161.5,90.5 C 160.596,91.209 160.263,92.209 160.5,93.5C 158.456,91.7806 156.456,90.1139 154.5,88.5C 154.443,87.391 154.11,86.391 153.5,85.5C 155.948,84.5269 158.615,84.1936 161.5,84.5C 161.5,86.5 161.5,88.5 161.5,90.5 Z"/></g>
<g><path style="opacity:1" fill="#302f41" d="M 167.5,89.5 C 172.151,92.4398 172.485,95.7731 168.5,99.5C 166.625,101.078 165.292,100.745 164.5,98.5C 165.244,95.0504 163.91,93.3838 160.5,93.5C 160.263,92.209 160.596,91.209 161.5,90.5C 163.435,89.8505 165.435,89.5172 167.5,89.5 Z"/></g>
<g><path style="opacity:1" fill="#f1bcbc" d="M 51.5,81.5 C 52.062,84.7734 53.7287,85.7734 56.5,84.5C 57.1667,85.1667 57.8333,85.8333 58.5,86.5C 58.5674,87.9587 58.2341,89.2921 57.5,90.5C 54.6433,93.5464 52.81,97.2131 52,101.5C 50.9887,102.337 49.8221,102.67 48.5,102.5C 47.8333,103.833 47.1667,105.167 46.5,106.5C 46.5,104.833 46.5,103.167 46.5,101.5C 41.8588,101.892 39.5255,99.8922 39.5,95.5C 40.5,95.5 41.5,95.5 42.5,95.5C 44.0174,95.5106 45.1841,96.1772 46,97.5C 47.3885,92.6278 47.8885,87.6278 47.5,82.5C 48.9587,82.5674 50.2921,82.2341 51.5,81.5 Z"/></g>
<g><path style="opacity:1" fill="#6f65fb" d="M 153.5,88.5 C 153.833,88.5 154.167,88.5 154.5,88.5C 156.456,90.1139 158.456,91.7806 160.5,93.5C 161.08,95.7488 162.413,97.4154 164.5,98.5C 165.292,100.745 166.625,101.078 168.5,99.5C 170.673,101.492 172.006,103.992 172.5,107C 169.901,111.733 169.901,116.399 172.5,121C 172.43,121.765 172.097,122.265 171.5,122.5C 168.467,122.132 165.8,122.798 163.5,124.5C 162.833,124.5 162.167,124.5 161.5,124.5C 161.295,117.807 161.295,111.141 161.5,104.5C 157.492,99.794 154.826,94.4607 153.5,88.5 Z"/></g>
<g><path style="opacity:1" fill="#e2e2e2" d="M 57.5,90.5 C 58.5,90.5 59.5,90.5 60.5,90.5C 61.7383,90.81 61.7383,91.31 60.5,92C 67.8258,92.4997 75.1591,92.6663 82.5,92.5C 82.5,96.8333 82.5,101.167 82.5,105.5C 71.1667,105.5 59.8333,105.5 48.5,105.5C 48.5,104.5 48.5,103.5 48.5,102.5C 49.8221,102.67 50.9887,102.337 52,101.5C 52.81,97.2131 54.6433,93.5464 57.5,90.5 Z"/></g>
<g><path style="opacity:1" fill="#ebb9b5" d="M 160.5,93.5 C 163.91,93.3838 165.244,95.0504 164.5,98.5C 162.413,97.4154 161.08,95.7488 160.5,93.5 Z"/></g>
<g><path style="opacity:1" fill="#f76683" d="M 131.5,95.5 C 137.704,95.3137 139.037,97.8137 135.5,103C 130.632,102.711 129.299,100.211 131.5,95.5 Z"/></g>
<g><path style="opacity:1" fill="#97a2c8" d="M 120.5,99.5 C 121.496,99.4142 122.329,99.7476 123,100.5C 126.585,106.002 129.919,111.669 133,117.5C 136.509,113.791 140.009,110.125 143.5,106.5C 147.803,111.809 152.137,117.142 156.5,122.5C 140.5,123.833 124.5,123.833 108.5,122.5C 112.766,114.969 116.766,107.302 120.5,99.5 Z"/></g>
<g><path style="opacity:1" fill="#302f43" d="M 35.5,93.5 C 36.8333,93.5 38.1667,93.5 39.5,93.5C 40.5,94.1667 41.5,94.8333 42.5,95.5C 41.5,95.5 40.5,95.5 39.5,95.5C 39.5255,99.8922 41.8588,101.892 46.5,101.5C 46.5,103.167 46.5,104.833 46.5,106.5C 46.5172,108.565 46.8505,110.565 47.5,112.5C 48.3307,115.659 49.3307,118.659 50.5,121.5C 50.6686,126.181 51.0019,130.848 51.5,135.5C 51.5,140.833 51.5,146.167 51.5,151.5C 51.5,152.5 51.5,153.5 51.5,154.5C 50.5655,155.568 50.2322,156.901 50.5,158.5C 49.1667,158.5 47.8333,158.5 46.5,158.5C 44.9294,148.914 43.596,139.248 42.5,129.5C 38.2751,138.952 33.2751,147.952 27.5,156.5C 25.9255,157.631 24.2588,157.798 22.5,157C 21.9781,156.439 21.6448,155.772 21.5,155C 23.079,152.263 24.4123,149.429 25.5,146.5C 27.2225,144.747 28.7225,142.747 30,140.5C 30.3844,136.347 31.3844,132.347 33,128.5C 33.058,123.499 33.8914,118.665 35.5,114C 32.3505,108.886 31.1838,103.386 32,97.5C 33.3756,96.2949 34.5423,94.9616 35.5,93.5 Z"/></g>
<g><path style="opacity:1" fill="#e3e3e3" d="M 50.5,121.5 C 49.3307,118.659 48.3307,115.659 47.5,112.5C 59.0861,111.522 70.7527,111.189 82.5,111.5C 82.5,115.833 82.5,120.167 82.5,124.5C 72.1667,124.5 61.8333,124.5 51.5,124.5C 51.7373,123.209 51.404,122.209 50.5,121.5 Z"/></g>
<g><path style="opacity:1" fill="#162f86" d="M 103.5,84.5 C 118.5,84.5 133.5,84.5 148.5,84.5C 134.01,85.496 119.343,85.8293 104.5,85.5C 104.5,98.8333 104.5,112.167 104.5,125.5C 122.674,125.17 140.674,125.503 158.5,126.5C 140.167,126.5 121.833,126.5 103.5,126.5C 103.5,112.5 103.5,98.5 103.5,84.5 Z"/></g>
<g><path style="opacity:1" fill="#6975a8" d="M 103.5,84.5 C 103.5,98.5 103.5,112.5 103.5,126.5C 121.833,126.5 140.167,126.5 158.5,126.5C 158.5,127.167 158.833,127.5 159.5,127.5C 159.167,128.167 158.833,128.833 158.5,129.5C 158.167,129.5 157.833,129.5 157.5,129.5C 139.864,127.513 121.864,126.847 103.5,127.5C 103.167,127.5 102.833,127.5 102.5,127.5C 102.171,112.99 102.504,98.6569 103.5,84.5 Z"/></g>
<g><path style="opacity:1" fill="#d4d4d3" d="M 102.5,127.5 C 102.833,127.5 103.167,127.5 103.5,127.5C 119.658,128.496 135.991,128.83 152.5,128.5C 152.5,129.5 152.5,130.5 152.5,131.5C 134.833,131.5 117.167,131.5 99.5,131.5C 99.5,124.5 99.5,117.5 99.5,110.5C 99.1694,103.137 99.5027,95.8032 100.5,88.5C 101.167,101.66 101.833,114.66 102.5,127.5 Z"/></g>
<g><path style="opacity:1" fill="#dfb2b1" d="M 161.5,124.5 C 162.167,124.5 162.833,124.5 163.5,124.5C 163.108,126.179 162.608,127.846 162,129.5C 160.708,130.791 159.542,130.791 158.5,129.5C 158.833,128.833 159.167,128.167 159.5,127.5C 159.932,126.29 160.599,125.29 161.5,124.5 Z"/></g>
<g><path style="opacity:1" fill="#e2e2e2" d="M 53.5,142.5 C 53.6495,141.448 53.4828,140.448 53,139.5C 52.8238,143.688 52.3238,147.688 51.5,151.5C 51.5,146.167 51.5,140.833 51.5,135.5C 52.4614,133.735 52.7947,131.735 52.5,129.5C 62.5,129.5 72.5,129.5 82.5,129.5C 82.5,133.833 82.5,138.167 82.5,142.5C 72.8333,142.5 63.1667,142.5 53.5,142.5 Z"/></g>
<g><path style="opacity:1" fill="#2f2e41" d="M 171.5,122.5 C 171.334,127.511 171.501,132.511 172,137.5C 177.119,140.304 181.953,143.471 186.5,147C 185.403,149.921 183.737,152.421 181.5,154.5C 178.196,154.322 176.529,152.656 176.5,149.5C 174.712,149.785 173.045,149.452 171.5,148.5C 169.86,145.196 167.527,142.529 164.5,140.5C 164.817,137.428 164.484,134.428 163.5,131.5C 162.614,132.325 162.281,133.325 162.5,134.5C 161.531,142.748 161.198,151.082 161.5,159.5C 158.447,159.089 155.447,158.423 152.5,157.5C 152.08,155.674 152.08,153.674 152.5,151.5C 153.753,144.992 154.919,138.325 156,131.5C 156.278,130.584 156.778,129.918 157.5,129.5C 157.833,129.5 158.167,129.5 158.5,129.5C 159.542,130.791 160.708,130.791 162,129.5C 162.608,127.846 163.108,126.179 163.5,124.5C 165.8,122.798 168.467,122.132 171.5,122.5 Z"/></g>
<g><path style="opacity:1" fill="#94949c" d="M 164.5,140.5 C 163.833,138.5 163.167,136.5 162.5,134.5C 162.281,133.325 162.614,132.325 163.5,131.5C 164.484,134.428 164.817,137.428 164.5,140.5 Z"/></g>
<g><path style="opacity:1" fill="#403f50" d="M 189.5,148.5 C 195.306,149.001 195.973,151.001 191.5,154.5C 190.232,152.696 189.565,150.696 189.5,148.5 Z"/></g>
<g><path style="opacity:1" fill="#a49ba5" d="M 51.5,154.5 C 51.5,155.833 51.5,157.167 51.5,158.5C 54.5,158.5 57.5,158.5 60.5,158.5C 55.5934,159.079 50.9268,160.413 46.5,162.5C 46.5,161.5 46.5,160.5 46.5,159.5C 46.5,159.167 46.5,158.833 46.5,158.5C 47.8333,158.5 49.1667,158.5 50.5,158.5C 50.2322,156.901 50.5655,155.568 51.5,154.5 Z"/></g>
<g><path style="opacity:1" fill="#424058" d="M 46.5,159.5 C 46.5,160.5 46.5,161.5 46.5,162.5C 50.9268,160.413 55.5934,159.079 60.5,158.5C 89.847,158.25 119.18,158.75 148.5,160C 152.415,160.015 156.082,160.848 159.5,162.5C 162.568,160.543 165.901,160.043 169.5,161C 173.084,162.073 176.75,162.74 180.5,163C 183.464,163.84 183.797,164.84 181.5,166C 171.258,167.891 160.924,169.225 150.5,170C 105.438,172.531 60.4378,171.864 15.5,168C 11.8659,167.844 8.5326,166.844 5.5,165C 10.3786,163.139 15.0453,160.973 19.5,158.5C 23.309,160.05 27.309,160.716 31.5,160.5C 36.5144,160.277 41.5144,159.944 46.5,159.5 Z"/></g>
</svg>
