<?xml version="1.0" encoding="UTF-8" standalone="no"?><!DOCTYPE svg PUBLIC "-//W3C//DTD SVG 1.1//EN" "http://www.w3.org/Graphics/SVG/1.1/DTD/svg11.dtd"><!-- Generated by graphviz version 2.40.1 (20161225.0304)
 --><!-- Title: g Pages: 1 --><svg xmlns="http://www.w3.org/2000/svg" xmlns:xlink="http://www.w3.org/1999/xlink" width="556pt" height="489pt" viewBox="0.00 0.00 556.00 489.00">
<g id="graph0" class="graph" transform="scale(1 1) rotate(0) translate(4 485)">
<title>g</title>
<text text-anchor="middle" x="274" y="-450" font-family="Microsoft YaHei" font-size="30.00" fill="#1874cd">系统部署结构</text>
<g id="clust1" class="cluster">
<title>cluster_0</title>
<path fill="transparent" stroke="#1874cd" d="M214,-179.6C214,-179.6 428,-179.6 428,-179.6 434,-179.6 440,-185.6 440,-191.6 440,-191.6 440,-245.4 440,-245.4 440,-251.4 434,-257.4 428,-257.4 428,-257.4 214,-257.4 214,-257.4 208,-257.4 202,-251.4 202,-245.4 202,-245.4 202,-191.6 202,-191.6 202,-185.6 208,-179.6 214,-179.6"/>
<text text-anchor="middle" x="321" y="-240.8" font-family="Microsoft YaHei" font-size="14.00" fill="#1874cd">MQTT Broker集群</text>
</g>
<g id="clust3" class="cluster">
<title>cluster_2</title>
<path fill="transparent" stroke="#1874cd" d="M79,-351.2C79,-351.2 125,-351.2 125,-351.2 131,-351.2 137,-357.2 137,-363.2 137,-363.2 137,-417 137,-417 137,-423 131,-429 125,-429 125,-429 79,-429 79,-429 73,-429 67,-423 67,-417 67,-417 67,-363.2 67,-363.2 67,-357.2 73,-351.2 79,-351.2"/>
<text text-anchor="middle" x="102" y="-412.4" font-family="Microsoft YaHei" font-size="14.00" fill="#1874cd">用户端</text>
</g>
<g id="clust4" class="cluster">
<title>cluster_3</title>
<path fill="transparent" stroke="#1874cd" d="M79,-265.4C79,-265.4 125,-265.4 125,-265.4 131,-265.4 137,-271.4 137,-277.4 137,-277.4 137,-331.2 137,-331.2 137,-337.2 131,-343.2 125,-343.2 125,-343.2 79,-343.2 79,-343.2 73,-343.2 67,-337.2 67,-331.2 67,-331.2 67,-277.4 67,-277.4 67,-271.4 73,-265.4 79,-265.4"/>
<text text-anchor="middle" x="102" y="-326.6" font-family="Microsoft YaHei" font-size="14.00" fill="#1874cd">前端服务</text>
</g>
<g id="clust5" class="cluster">
<title>cluster_4</title>
<path fill="transparent" stroke="#1874cd" d="M288,-265.4C288,-265.4 478,-265.4 478,-265.4 484,-265.4 490,-271.4 490,-277.4 490,-277.4 490,-331.2 490,-331.2 490,-337.2 484,-343.2 478,-343.2 478,-343.2 288,-343.2 288,-343.2 282,-343.2 276,-337.2 276,-331.2 276,-331.2 276,-277.4 276,-277.4 276,-271.4 282,-265.4 288,-265.4"/>
<text text-anchor="middle" x="383" y="-326.6" font-family="Microsoft YaHei" font-size="14.00" fill="#1874cd">设备端</text>
</g>
<g id="clust6" class="cluster">
<title>cluster_5</title>
<path fill="transparent" stroke="#1874cd" d="M20,-8C20,-8 378,-8 378,-8 384,-8 390,-14 390,-20 390,-20 390,-73.8 390,-73.8 390,-79.8 384,-85.8 378,-85.8 378,-85.8 20,-85.8 20,-85.8 14,-85.8 8,-79.8 8,-73.8 8,-73.8 8,-20 8,-20 8,-14 14,-8 20,-8"/>
<text text-anchor="middle" x="199" y="-69.2" font-family="Microsoft YaHei" font-size="14.00" fill="#1874cd">数据库集群</text>
</g>
<g id="clust7" class="cluster">
<title>cluster_6</title>
<path fill="transparent" stroke="#1874cd" d="M32,-179.6C32,-179.6 80,-179.6 80,-179.6 86,-179.6 92,-185.6 92,-191.6 92,-191.6 92,-245.4 92,-245.4 92,-251.4 86,-257.4 80,-257.4 80,-257.4 32,-257.4 32,-257.4 26,-257.4 20,-251.4 20,-245.4 20,-245.4 20,-191.6 20,-191.6 20,-185.6 26,-179.6 32,-179.6"/>
<text text-anchor="middle" x="56" y="-240.8" font-family="Microsoft YaHei" font-size="14.00" fill="#1874cd">前端代理</text>
</g>
<g id="clust8" class="cluster">
<title>cluster_7</title>
<path fill="transparent" stroke="#1874cd" d="M410,-8C410,-8 528,-8 528,-8 534,-8 540,-14 540,-20 540,-20 540,-73.8 540,-73.8 540,-79.8 534,-85.8 528,-85.8 528,-85.8 410,-85.8 410,-85.8 404,-85.8 398,-79.8 398,-73.8 398,-73.8 398,-20 398,-20 398,-14 404,-8 410,-8"/>
<text text-anchor="middle" x="469" y="-69.2" font-family="Microsoft YaHei" font-size="14.00" fill="#1874cd">缓存服务集群</text>
</g>
<g id="clust9" class="cluster">
<title>cluster_8</title>
<path fill="transparent" stroke="#1874cd" d="M173,-93.8C173,-93.8 363,-93.8 363,-93.8 369,-93.8 375,-99.8 375,-105.8 375,-105.8 375,-159.6 375,-159.6 375,-165.6 369,-171.6 363,-171.6 363,-171.6 173,-171.6 173,-171.6 167,-171.6 161,-165.6 161,-159.6 161,-159.6 161,-105.8 161,-105.8 161,-99.8 167,-93.8 173,-93.8"/>
<text text-anchor="middle" x="268" y="-155" font-family="Microsoft YaHei" font-size="14.00" fill="#1874cd">后端集群</text>
</g>
<g id="clust10" class="cluster">
<title>cluster_9</title>
<path fill="transparent" stroke="#1874cd" d="M112,-179.6C112,-179.6 182,-179.6 182,-179.6 188,-179.6 194,-185.6 194,-191.6 194,-191.6 194,-245.4 194,-245.4 194,-251.4 188,-257.4 182,-257.4 182,-257.4 112,-257.4 112,-257.4 106,-257.4 100,-251.4 100,-245.4 100,-245.4 100,-191.6 100,-191.6 100,-185.6 106,-179.6 112,-179.6"/>
<text text-anchor="middle" x="147" y="-240.8" font-family="Microsoft YaHei" font-size="14.00" fill="#1874cd">规则引擎</text>
</g>
<!-- MQTT Broker -->
<g id="node1" class="node">
<title>MQTT Broker</title>
<path fill="#1874cd" stroke="#1874cd" d="M345.9856,-188.1C345.9856,-188.1 420.0144,-188.1 420.0144,-188.1 426.0144,-188.1 432.0144,-194.1 432.0144,-200.1 432.0144,-200.1 432.0144,-212.1 432.0144,-212.1 432.0144,-218.1 426.0144,-224.1 420.0144,-224.1 420.0144,-224.1 345.9856,-224.1 345.9856,-224.1 339.9856,-224.1 333.9856,-218.1 333.9856,-212.1 333.9856,-212.1 333.9856,-200.1 333.9856,-200.1 333.9856,-194.1 339.9856,-188.1 345.9856,-188.1"/>
<text text-anchor="middle" x="383" y="-201.9" font-family="Microsoft YaHei" font-size="14.00" fill="#ffffff">MQTT Broker</text>
</g>
<!-- 后端 -->
<g id="node13" class="node">
<title>后端</title>
<path fill="#1874cd" stroke="#1874cd" d="M325,-102.3C325,-102.3 355,-102.3 355,-102.3 361,-102.3 367,-108.3 367,-114.3 367,-114.3 367,-126.3 367,-126.3 367,-132.3 361,-138.3 355,-138.3 355,-138.3 325,-138.3 325,-138.3 319,-138.3 313,-132.3 313,-126.3 313,-126.3 313,-114.3 313,-114.3 313,-108.3 319,-102.3 325,-102.3"/>
<text text-anchor="middle" x="339.8913" y="-116.1" font-family="Microsoft YaHei" font-size="14.00" fill="#ffffff">后端</text>
</g>
<!-- MQTT Broker&#45;&gt;后端 -->
<g id="edge2" class="edge">
<title>MQTT Broker-&gt;后端</title>
<path fill="none" stroke="#1874cd" d="M370.2145,-179.6C369.0878,-177.5988 367.961,-175.5977 366.8342,-173.5965"/>
<polygon fill="#1874cd" stroke="#1874cd" points="373.6638,-178.5918 365.7075,-171.5954 367.5642,-182.0264 373.6638,-178.5918"/>
</g>
<!-- MQTT Broker1 -->
<g id="node2" class="node">
<title>MQTT Broker1</title>
<path fill="#1874cd" stroke="#1874cd" d="M222.4856,-188.1C222.4856,-188.1 303.5144,-188.1 303.5144,-188.1 309.5144,-188.1 315.5144,-194.1 315.5144,-200.1 315.5144,-200.1 315.5144,-212.1 315.5144,-212.1 315.5144,-218.1 309.5144,-224.1 303.5144,-224.1 303.5144,-224.1 222.4856,-224.1 222.4856,-224.1 216.4856,-224.1 210.4856,-218.1 210.4856,-212.1 210.4856,-212.1 210.4856,-200.1 210.4856,-200.1 210.4856,-194.1 216.4856,-188.1 222.4856,-188.1"/>
<text text-anchor="middle" x="263" y="-201.9" font-family="Microsoft YaHei" font-size="14.00" fill="#ffffff">MQTT Broker1</text>
</g>
<!-- 用户 -->
<g id="node3" class="node">
<title>用户</title>
<path fill="#1874cd" stroke="#1874cd" d="M87,-359.7C87,-359.7 117,-359.7 117,-359.7 123,-359.7 129,-365.7 129,-371.7 129,-371.7 129,-383.7 129,-383.7 129,-389.7 123,-395.7 117,-395.7 117,-395.7 87,-395.7 87,-395.7 81,-395.7 75,-389.7 75,-383.7 75,-383.7 75,-371.7 75,-371.7 75,-365.7 81,-359.7 87,-359.7"/>
<text text-anchor="middle" x="101.9493" y="-373.5" font-family="Microsoft YaHei" font-size="14.00" fill="#ffffff">用户</text>
</g>
<!-- 前端 -->
<g id="node4" class="node">
<title>前端</title>
<path fill="#1874cd" stroke="#1874cd" d="M87,-273.9C87,-273.9 117,-273.9 117,-273.9 123,-273.9 129,-279.9 129,-285.9 129,-285.9 129,-297.9 129,-297.9 129,-303.9 123,-309.9 117,-309.9 117,-309.9 87,-309.9 87,-309.9 81,-309.9 75,-303.9 75,-297.9 75,-297.9 75,-285.9 75,-285.9 75,-279.9 81,-273.9 87,-273.9"/>
<text text-anchor="middle" x="101.8913" y="-287.7" font-family="Microsoft YaHei" font-size="14.00" fill="#ffffff">前端</text>
</g>
<!-- 用户&#45;&gt;前端 -->
<g id="edge4" class="edge">
<title>用户-&gt;前端</title>
<path fill="none" stroke="#1874cd" d="M102,-359.504C102,-348.1286 102,-333.2378 102,-320.3277"/>
<polygon fill="#1874cd" stroke="#1874cd" points="105.5001,-320.0697 102,-310.0697 98.5001,-320.0698 105.5001,-320.0697"/>
</g>
<!-- Nginx -->
<g id="node10" class="node">
<title>Nginx</title>
<path fill="#1874cd" stroke="#1874cd" d="M42,-188.1C42,-188.1 72,-188.1 72,-188.1 78,-188.1 84,-194.1 84,-200.1 84,-200.1 84,-212.1 84,-212.1 84,-218.1 78,-224.1 72,-224.1 72,-224.1 42,-224.1 42,-224.1 36,-224.1 30,-218.1 30,-212.1 30,-212.1 30,-200.1 30,-200.1 30,-194.1 36,-188.1 42,-188.1"/>
<text text-anchor="middle" x="56.9986" y="-201.9" font-family="Microsoft YaHei" font-size="14.00" fill="#ffffff">Nginx</text>
</g>
<!-- 前端&#45;&gt;Nginx -->
<g id="edge5" class="edge">
<title>前端-&gt;Nginx</title>
<path fill="none" stroke="#1874cd" d="M92.4567,-273.704C86.3115,-261.9873 78.2104,-246.5412 71.3031,-233.3713"/>
<polygon fill="#1874cd" stroke="#1874cd" points="74.2739,-231.5 66.5296,-224.2697 68.0748,-234.7513 74.2739,-231.5"/>
</g>
<!-- 规则引擎 -->
<g id="node16" class="node">
<title>规则引擎</title>
<path fill="#1874cd" stroke="#1874cd" d="M120.4737,-188.1C120.4737,-188.1 173.5263,-188.1 173.5263,-188.1 179.5263,-188.1 185.5263,-194.1 185.5263,-200.1 185.5263,-200.1 185.5263,-212.1 185.5263,-212.1 185.5263,-218.1 179.5263,-224.1 173.5263,-224.1 173.5263,-224.1 120.4737,-224.1 120.4737,-224.1 114.4737,-224.1 108.4737,-218.1 108.4737,-212.1 108.4737,-212.1 108.4737,-200.1 108.4737,-200.1 108.4737,-194.1 114.4737,-188.1 120.4737,-188.1"/>
<text text-anchor="middle" x="147" y="-201.9" font-family="Microsoft YaHei" font-size="14.00" fill="#ffffff">规则引擎</text>
</g>
<!-- 前端&#45;&gt;规则引擎 -->
<g id="edge8" class="edge">
<title>前端-&gt;规则引擎</title>
<path fill="none" stroke="#1874cd" d="M111.5433,-273.704C117.6885,-261.9873 125.7896,-246.5412 132.6969,-233.3713"/>
<polygon fill="#1874cd" stroke="#1874cd" points="135.9252,-234.7513 137.4704,-224.2697 129.7261,-231.5 135.9252,-234.7513"/>
</g>
<!-- 设备 -->
<g id="node5" class="node">
<title>设备</title>
<path fill="#1874cd" stroke="#1874cd" d="M440,-273.9C440,-273.9 470,-273.9 470,-273.9 476,-273.9 482,-279.9 482,-285.9 482,-285.9 482,-297.9 482,-297.9 482,-303.9 476,-309.9 470,-309.9 470,-309.9 440,-309.9 440,-309.9 434,-309.9 428,-303.9 428,-297.9 428,-297.9 428,-285.9 428,-285.9 428,-279.9 434,-273.9 440,-273.9"/>
<text text-anchor="middle" x="454.5859" y="-287.7" font-family="Microsoft YaHei" font-size="14.00" fill="#ffffff">设备</text>
</g>
<!-- 设备1 -->
<g id="node6" class="node">
<title>设备1</title>
<path fill="#1874cd" stroke="#1874cd" d="M368,-273.9C368,-273.9 398,-273.9 398,-273.9 404,-273.9 410,-279.9 410,-285.9 410,-285.9 410,-297.9 410,-297.9 410,-303.9 404,-309.9 398,-309.9 398,-309.9 368,-309.9 368,-309.9 362,-309.9 356,-303.9 356,-297.9 356,-297.9 356,-285.9 356,-285.9 356,-279.9 362,-273.9 368,-273.9"/>
<text text-anchor="middle" x="382.5859" y="-287.7" font-family="Microsoft YaHei" font-size="14.00" fill="#ffffff">设备1</text>
</g>
<!-- 设备1&#45;&gt;MQTT Broker -->
<g id="edge1" class="edge">
<title>设备1-&gt;MQTT Broker</title>
<path fill="none" stroke="#1874cd" d="M383,-265.4C383,-263.3992 383,-261.3985 383,-259.3977"/>
<polygon fill="#1874cd" stroke="#1874cd" points="386.5005,-267.3967 383,-257.3969 379.5005,-267.3971 386.5005,-267.3967"/>
</g>
<!-- 设备2 -->
<g id="node7" class="node">
<title>设备2</title>
<path fill="#1874cd" stroke="#1874cd" d="M296,-273.9C296,-273.9 326,-273.9 326,-273.9 332,-273.9 338,-279.9 338,-285.9 338,-285.9 338,-297.9 338,-297.9 338,-303.9 332,-309.9 326,-309.9 326,-309.9 296,-309.9 296,-309.9 290,-309.9 284,-303.9 284,-297.9 284,-297.9 284,-285.9 284,-285.9 284,-279.9 290,-273.9 296,-273.9"/>
<text text-anchor="middle" x="310.5859" y="-287.7" font-family="Microsoft YaHei" font-size="14.00" fill="#ffffff">设备2</text>
</g>
<!-- PostgreSQL(TimescaleDB) -->
<g id="node8" class="node">
<title>PostgreSQL(TimescaleDB)</title>
<path fill="#1874cd" stroke="#1874cd" d="M223.6367,-16.5C223.6367,-16.5 370.3633,-16.5 370.3633,-16.5 376.3633,-16.5 382.3633,-22.5 382.3633,-28.5 382.3633,-28.5 382.3633,-40.5 382.3633,-40.5 382.3633,-46.5 376.3633,-52.5 370.3633,-52.5 370.3633,-52.5 223.6367,-52.5 223.6367,-52.5 217.6367,-52.5 211.6367,-46.5 211.6367,-40.5 211.6367,-40.5 211.6367,-28.5 211.6367,-28.5 211.6367,-22.5 217.6367,-16.5 223.6367,-16.5"/>
<text text-anchor="middle" x="297" y="-30.3" font-family="Microsoft YaHei" font-size="14.00" fill="#ffffff">PostgreSQL(TimescaleDB)</text>
</g>
<!-- PostgreSQL(TimescaleDB)1 -->
<g id="node9" class="node">
<title>PostgreSQL(TimescaleDB)1</title>
<path fill="#1874cd" stroke="#1874cd" d="M28.1367,-16.5C28.1367,-16.5 181.8633,-16.5 181.8633,-16.5 187.8633,-16.5 193.8633,-22.5 193.8633,-28.5 193.8633,-28.5 193.8633,-40.5 193.8633,-40.5 193.8633,-46.5 187.8633,-52.5 181.8633,-52.5 181.8633,-52.5 28.1367,-52.5 28.1367,-52.5 22.1367,-52.5 16.1367,-46.5 16.1367,-40.5 16.1367,-40.5 16.1367,-28.5 16.1367,-28.5 16.1367,-22.5 22.1367,-16.5 28.1367,-16.5"/>
<text text-anchor="middle" x="105" y="-30.3" font-family="Microsoft YaHei" font-size="14.00" fill="#ffffff">PostgreSQL(TimescaleDB)1</text>
</g>
<!-- 后端2 -->
<g id="node15" class="node">
<title>后端2</title>
<path fill="#1874cd" stroke="#1874cd" d="M181,-102.3C181,-102.3 211,-102.3 211,-102.3 217,-102.3 223,-108.3 223,-114.3 223,-114.3 223,-126.3 223,-126.3 223,-132.3 217,-138.3 211,-138.3 211,-138.3 181,-138.3 181,-138.3 175,-138.3 169,-132.3 169,-126.3 169,-126.3 169,-114.3 169,-114.3 169,-108.3 175,-102.3 181,-102.3"/>
<text text-anchor="middle" x="195.8913" y="-116.1" font-family="Microsoft YaHei" font-size="14.00" fill="#ffffff">后端2</text>
</g>
<!-- Nginx&#45;&gt;后端2 -->
<g id="edge6" class="edge">
<title>Nginx-&gt;后端2</title>
<path fill="none" stroke="#1874cd" d="M83.2871,-187.9168C87.5098,-185.0891 91.8545,-182.2341 96,-179.6 117.0308,-166.2371 141.0325,-151.9724 160.2493,-140.7831"/>
<polygon fill="#1874cd" stroke="#1874cd" points="158.1168,-149.9093 161,-139.7141 152.3882,-145.8861 158.1168,-149.9093"/>
</g>
<!-- Redis -->
<g id="node11" class="node">
<title>Redis</title>
<path fill="#1874cd" stroke="#1874cd" d="M490,-16.5C490,-16.5 520,-16.5 520,-16.5 526,-16.5 532,-22.5 532,-28.5 532,-28.5 532,-40.5 532,-40.5 532,-46.5 526,-52.5 520,-52.5 520,-52.5 490,-52.5 490,-52.5 484,-52.5 478,-46.5 478,-40.5 478,-40.5 478,-28.5 478,-28.5 478,-22.5 484,-16.5 490,-16.5"/>
<text text-anchor="middle" x="504.9432" y="-30.3" font-family="Microsoft YaHei" font-size="14.00" fill="#ffffff">Redis</text>
</g>
<!-- Redis1 -->
<g id="node12" class="node">
<title>Redis1</title>
<path fill="#1874cd" stroke="#1874cd" d="M417.5568,-16.5C417.5568,-16.5 448.4432,-16.5 448.4432,-16.5 454.4432,-16.5 460.4432,-22.5 460.4432,-28.5 460.4432,-28.5 460.4432,-40.5 460.4432,-40.5 460.4432,-46.5 454.4432,-52.5 448.4432,-52.5 448.4432,-52.5 417.5568,-52.5 417.5568,-52.5 411.5568,-52.5 405.5568,-46.5 405.5568,-40.5 405.5568,-40.5 405.5568,-28.5 405.5568,-28.5 405.5568,-22.5 411.5568,-16.5 417.5568,-16.5"/>
<text text-anchor="middle" x="433" y="-30.3" font-family="Microsoft YaHei" font-size="14.00" fill="#ffffff">Redis1</text>
</g>
<!-- 后端&#45;&gt;PostgreSQL(TimescaleDB) -->
<g id="edge7" class="edge">
<title>后端-&gt;PostgreSQL(TimescaleDB)</title>
<path fill="none" stroke="#1874cd" d="M327.2145,-93.8C326.0878,-91.7988 324.961,-89.7977 323.8342,-87.7965"/>
<polygon fill="#1874cd" stroke="#1874cd" points="330.6638,-92.7918 322.7075,-85.7954 324.5642,-96.2264 330.6638,-92.7918"/>
</g>
<!-- 后端&#45;&gt;Redis -->
<g id="edge3" class="edge">
<title>后端-&gt;Redis</title>
<path fill="none" stroke="#1874cd" d="M374.9969,-117.4896C399.9025,-114.1771 433.5755,-106.9644 460.444,-91.265"/>
<polygon fill="#1874cd" stroke="#1874cd" points="462.4565,-94.1327 469,-85.8 458.6884,-88.2334 462.4565,-94.1327"/>
</g>
<!-- 后端1 -->
<g id="node14" class="node">
<title>后端1</title>
<path fill="#1874cd" stroke="#1874cd" d="M253,-102.3C253,-102.3 283,-102.3 283,-102.3 289,-102.3 295,-108.3 295,-114.3 295,-114.3 295,-126.3 295,-126.3 295,-132.3 289,-138.3 283,-138.3 283,-138.3 253,-138.3 253,-138.3 247,-138.3 241,-132.3 241,-126.3 241,-126.3 241,-114.3 241,-114.3 241,-108.3 247,-102.3 253,-102.3"/>
<text text-anchor="middle" x="267.8913" y="-116.1" font-family="Microsoft YaHei" font-size="14.00" fill="#ffffff">后端1</text>
</g>
</g>
</svg>