<?xml version="1.0" encoding="UTF-8" standalone="no"?>
<!DOCTYPE svg PUBLIC "-//W3C//DTD SVG 1.1//EN" "http://www.w3.org/Graphics/SVG/1.1/DTD/svg11.dtd">
<!-- Generated by graphviz version 2.40.1 (20161225.0304)
 -->
<!-- Title: G Pages: 1 -->
<svg xmlns="http://www.w3.org/2000/svg" xmlns:xlink="http://www.w3.org/1999/xlink" width="916pt" height="920pt" viewBox="0.00 0.00 916.00 920.40">
  <g id="graph0" class="graph" transform="scale(1 1) rotate(0) translate(4 916.4)">
    <title>G</title>
    <g id="clust1" class="cluster">
      <title>cluster_0</title>
      <path fill="transparent" stroke="#1874cd" d="M178,-752.6C178,-752.6 744,-752.6 744,-752.6 750,-752.6 756,-758.6 756,-764.6 756,-764.6 756,-892.4 756,-892.4 756,-898.4 750,-904.4 744,-904.4 744,-904.4 178,-904.4 178,-904.4 172,-904.4 166,-898.4 166,-892.4 166,-892.4 166,-764.6 166,-764.6 166,-758.6 172,-752.6 178,-752.6"/>
      <text text-anchor="middle" x="461" y="-887.8" font-family="Microsoft YaHei" font-size="14.00" fill="#000000">设备</text>
    </g>
    <g id="clust4" class="cluster">
      <title>cluster_1</title>
      <path fill="transparent" stroke="#1874cd" d="M458,-655.8C458,-655.8 580,-655.8 580,-655.8 586,-655.8 592,-661.8 592,-667.8 592,-667.8 592,-721.6 592,-721.6 592,-727.6 586,-733.6 580,-733.6 580,-733.6 458,-733.6 458,-733.6 452,-733.6 446,-727.6 446,-721.6 446,-721.6 446,-667.8 446,-667.8 446,-661.8 452,-655.8 458,-655.8"/>
      <text text-anchor="middle" x="519" y="-717" font-family="Microsoft YaHei" font-size="14.00" fill="#000000">传输</text>
    </g>
    <g id="clust5" class="cluster">
      <title>cluster_2</title>
      <path fill="transparent" stroke="#1874cd" d="M458,-469.2C458,-469.2 580,-469.2 580,-469.2 586,-469.2 592,-475.2 592,-481.2 592,-481.2 592,-624.3 592,-624.3 592,-630.3 586,-636.3 580,-636.3 580,-636.3 458,-636.3 458,-636.3 452,-636.3 446,-630.3 446,-624.3 446,-624.3 446,-481.2 446,-481.2 446,-475.2 452,-469.2 458,-469.2"/>
      <text text-anchor="middle" x="519" y="-619.7" font-family="Microsoft YaHei" font-size="14.00" fill="#000000">转换</text>
    </g>
    <g id="clust6" class="cluster">
      <title>cluster_3</title>
      <path fill="transparent" stroke="#1874cd" d="M392,-372.4C392,-372.4 514,-372.4 514,-372.4 520,-372.4 526,-378.4 526,-384.4 526,-384.4 526,-438.2 526,-438.2 526,-444.2 520,-450.2 514,-450.2 514,-450.2 392,-450.2 392,-450.2 386,-450.2 380,-444.2 380,-438.2 380,-438.2 380,-384.4 380,-384.4 380,-378.4 386,-372.4 392,-372.4"/>
      <text text-anchor="middle" x="453" y="-433.6" font-family="Microsoft YaHei" font-size="14.00" fill="#000000">标准设备数据</text>
    </g>
    <g id="clust7" class="cluster">
      <title>cluster_4</title>
      <path fill="transparent" stroke="#ff0000" d="M20,-104.8C20,-104.8 438,-104.8 438,-104.8 444,-104.8 450,-110.8 450,-116.8 450,-116.8 450,-170.6 450,-170.6 450,-176.6 444,-182.6 438,-182.6 438,-182.6 20,-182.6 20,-182.6 14,-182.6 8,-176.6 8,-170.6 8,-170.6 8,-116.8 8,-116.8 8,-110.8 14,-104.8 20,-104.8"/>
      <text text-anchor="middle" x="229" y="-166" font-family="Microsoft YaHei" font-size="14.00" fill="#000000">设备插件</text>
    </g>
    <g id="clust8" class="cluster">
      <title>cluster_5</title>
      <path fill="transparent" stroke="#ff0000" d="M470,-104.8C470,-104.8 888,-104.8 888,-104.8 894,-104.8 900,-110.8 900,-116.8 900,-116.8 900,-170.6 900,-170.6 900,-176.6 894,-182.6 888,-182.6 888,-182.6 470,-182.6 470,-182.6 464,-182.6 458,-176.6 458,-170.6 458,-170.6 458,-116.8 458,-116.8 458,-110.8 464,-104.8 470,-104.8"/>
      <text text-anchor="middle" x="679" y="-166" font-family="Microsoft YaHei" font-size="14.00" fill="#000000">汇总插件(举例如下)</text>
    </g>
    <g id="clust9" class="cluster">
      <title>cluster_6</title>
      <path fill="transparent" stroke="#ff0000" d="M100,-8C100,-8 518,-8 518,-8 524,-8 530,-14 530,-20 530,-20 530,-73.8 530,-73.8 530,-79.8 524,-85.8 518,-85.8 518,-85.8 100,-85.8 100,-85.8 94,-85.8 88,-79.8 88,-73.8 88,-73.8 88,-20 88,-20 88,-14 94,-8 100,-8"/>
      <text text-anchor="middle" x="309" y="-69.2" font-family="Microsoft YaHei" font-size="14.00" fill="#000000">输出</text>
    </g>
    <g id="clust10" class="cluster">
      <title>cluster_7</title>
      <path fill="transparent" stroke="#1874cd" d="M392,-201.6C392,-201.6 514,-201.6 514,-201.6 520,-201.6 526,-207.6 526,-213.6 526,-213.6 526,-341.4 526,-341.4 526,-347.4 520,-353.4 514,-353.4 514,-353.4 392,-353.4 392,-353.4 386,-353.4 380,-347.4 380,-341.4 380,-341.4 380,-213.6 380,-213.6 380,-207.6 386,-201.6 392,-201.6"/>
      <text text-anchor="middle" x="453" y="-336.8" font-family="Microsoft YaHei" font-size="14.00" fill="#000000">ThingsPanel</text>
    </g>
    <g id="clust11" class="cluster">
      <title>cluster_8</title>
      <path fill="transparent" stroke="#1874cd" d="M612,-559C612,-559 734,-559 734,-559 740,-559 746,-565 746,-571 746,-571 746,-624.8 746,-624.8 746,-630.8 740,-636.8 734,-636.8 734,-636.8 612,-636.8 612,-636.8 606,-636.8 600,-630.8 600,-624.8 600,-624.8 600,-571 600,-571 600,-565 606,-559 612,-559"/>
      <text text-anchor="middle" x="673" y="-620.2" font-family="Microsoft YaHei" font-size="14.00" fill="#000000">网络组件规则引擎</text>
    </g>
    <!-- 设备1 -->
    <g id="node1" class="node">
      <title>设备1</title>
      <path fill="#1874cd" stroke="#1874cd" d="M334,-835.1C334,-835.1 440,-835.1 440,-835.1 446,-835.1 452,-841.1 452,-847.1 452,-847.1 452,-859.1 452,-859.1 452,-865.1 446,-871.1 440,-871.1 440,-871.1 334,-871.1 334,-871.1 328,-871.1 322,-865.1 322,-859.1 322,-859.1 322,-847.1 322,-847.1 322,-841.1 328,-835.1 334,-835.1"/>
      <text text-anchor="middle" x="386.5859" y="-848.9" font-family="Microsoft YaHei" font-size="14.00" fill="#ffffff">设备1</text>
    </g>
    <!-- 网关 -->
    <g id="node4" class="node">
      <title>网关</title>
      <path fill="#1874cd" stroke="#1874cd" d="M362,-761.1C362,-761.1 468,-761.1 468,-761.1 474,-761.1 480,-767.1 480,-773.1 480,-773.1 480,-785.1 480,-785.1 480,-791.1 474,-797.1 468,-797.1 468,-797.1 362,-797.1 362,-797.1 356,-797.1 350,-791.1 350,-785.1 350,-785.1 350,-773.1 350,-773.1 350,-767.1 356,-761.1 362,-761.1"/>
      <text text-anchor="middle" x="415" y="-774.9" font-family="Microsoft YaHei" font-size="14.00" fill="#ffffff">网关</text>
    </g>
    <!-- 设备1&#45;&gt;网关 -->
    <g id="edge1" class="edge">
      <title>设备1-&gt;网关</title>
      <path fill="none" stroke="#1874cd" d="M393.9214,-834.8079C397.1425,-826.2947 401.0422,-815.9885 404.607,-806.5671"/>
      <polygon fill="#1874cd" stroke="#1874cd" points="407.8928,-807.7732 408.1583,-797.1817 401.3458,-805.2959 407.8928,-807.7732"/>
    </g>
    <!-- 设备2 -->
    <g id="node2" class="node">
      <title>设备2</title>
      <path fill="#1874cd" stroke="#1874cd" d="M186,-835.1C186,-835.1 292,-835.1 292,-835.1 298,-835.1 304,-841.1 304,-847.1 304,-847.1 304,-859.1 304,-859.1 304,-865.1 298,-871.1 292,-871.1 292,-871.1 186,-871.1 186,-871.1 180,-871.1 174,-865.1 174,-859.1 174,-859.1 174,-847.1 174,-847.1 174,-841.1 180,-835.1 186,-835.1"/>
      <text text-anchor="middle" x="238.5859" y="-848.9" font-family="Microsoft YaHei" font-size="14.00" fill="#ffffff">设备2</text>
    </g>
    <!-- 设备2&#45;&gt;网关 -->
    <g id="edge2" class="edge">
      <title>设备2-&gt;网关</title>
      <path fill="none" stroke="#1874cd" d="M282.0544,-834.9976C306.4355,-824.7464 337.1086,-811.8498 362.8469,-801.028"/>
      <polygon fill="#1874cd" stroke="#1874cd" points="364.2236,-804.246 372.0854,-797.1436 361.5105,-797.7932 364.2236,-804.246"/>
    </g>
    <!-- 设备3 -->
    <g id="node3" class="node">
      <title>设备3</title>
      <path fill="#1874cd" stroke="#1874cd" d="M482,-835.1C482,-835.1 588,-835.1 588,-835.1 594,-835.1 600,-841.1 600,-847.1 600,-847.1 600,-859.1 600,-859.1 600,-865.1 594,-871.1 588,-871.1 588,-871.1 482,-871.1 482,-871.1 476,-871.1 470,-865.1 470,-859.1 470,-859.1 470,-847.1 470,-847.1 470,-841.1 476,-835.1 482,-835.1"/>
      <text text-anchor="middle" x="534.5859" y="-848.9" font-family="Microsoft YaHei" font-size="14.00" fill="#ffffff">设备3</text>
    </g>
    <!-- 设备3&#45;&gt;网关 -->
    <g id="edge3" class="edge">
      <title>设备3-&gt;网关</title>
      <path fill="none" stroke="#1874cd" d="M505.6447,-834.9976C489.8094,-825.2325 470.0813,-813.0668 453.077,-802.5808"/>
      <polygon fill="#1874cd" stroke="#1874cd" points="454.817,-799.5419 444.4681,-797.272 451.1427,-805.5001 454.817,-799.5419"/>
    </g>
    <!-- MQTT -->
    <g id="node6" class="node">
      <title>MQTT</title>
      <path fill="#1874cd" stroke="#1874cd" d="M466,-664.3C466,-664.3 572,-664.3 572,-664.3 578,-664.3 584,-670.3 584,-676.3 584,-676.3 584,-688.3 584,-688.3 584,-694.3 578,-700.3 572,-700.3 572,-700.3 466,-700.3 466,-700.3 460,-700.3 454,-694.3 454,-688.3 454,-688.3 454,-676.3 454,-676.3 454,-670.3 460,-664.3 466,-664.3"/>
      <text text-anchor="middle" x="518.8282" y="-678.1" font-family="Microsoft YaHei" font-size="14.00" fill="#ffffff">MQTT</text>
    </g>
    <!-- 网关&#45;&gt;MQTT -->
    <g id="edge9" class="edge">
      <title>网关-&gt;MQTT</title>
      <path fill="none" stroke="#1874cd" d="M434.5616,-760.8927C450.831,-745.7496 474.1539,-724.0413 492.1672,-707.2751"/>
      <polygon fill="#1874cd" stroke="#1874cd" points="494.5908,-709.8009 499.5261,-700.4257 489.8216,-704.6769 494.5908,-709.8009"/>
    </g>
    <!-- 单设备 -->
    <g id="node5" class="node">
      <title>单设备</title>
      <path fill="#1874cd" stroke="#1874cd" d="M630,-835.1C630,-835.1 736,-835.1 736,-835.1 742,-835.1 748,-841.1 748,-847.1 748,-847.1 748,-859.1 748,-859.1 748,-865.1 742,-871.1 736,-871.1 736,-871.1 630,-871.1 630,-871.1 624,-871.1 618,-865.1 618,-859.1 618,-859.1 618,-847.1 618,-847.1 618,-841.1 624,-835.1 630,-835.1"/>
      <text text-anchor="middle" x="682.8359" y="-848.9" font-family="Microsoft YaHei" font-size="14.00" fill="#ffffff">单设备</text>
    </g>
    <!-- 单设备&#45;&gt;MQTT -->
    <g id="edge11" class="edge">
      <title>单设备-&gt;MQTT</title>
      <path fill="none" stroke="#1874cd" d="M665.4491,-834.8214C636.1032,-804.2587 577.0071,-742.7123 543.5515,-707.8695"/>
      <polygon fill="#1874cd" stroke="#1874cd" points="545.8754,-705.2363 536.4247,-700.4472 540.8261,-710.0845 545.8754,-705.2363"/>
    </g>
    <!-- 是否是网关 -->
    <g id="node7" class="node">
      <title>是否是网关</title>
      <polygon fill="#1874cd" stroke="#1874cd" points="519,-603.5 454,-585.5 519,-567.5 584,-585.5 519,-603.5"/>
      <text text-anchor="middle" x="519" y="-581.3" font-family="Microsoft YaHei" font-size="14.00" fill="#ffffff">是否是网关</text>
    </g>
    <!-- MQTT&#45;&gt;是否是网关 -->
    <g id="edge10" class="edge">
      <title>MQTT-&gt;是否是网关</title>
      <path fill="none" stroke="#1874cd" d="M519,-664.0927C519,-649.8961 519,-629.9292 519,-613.6739"/>
      <polygon fill="#1874cd" stroke="#1874cd" points="522.5001,-613.6257 519,-603.6257 515.5001,-613.6257 522.5001,-613.6257"/>
    </g>
    <!-- 转换 -->
    <g id="node8" class="node">
      <title>转换</title>
      <path fill="#1874cd" stroke="#1874cd" d="M466,-477.7C466,-477.7 572,-477.7 572,-477.7 578,-477.7 584,-483.7 584,-489.7 584,-489.7 584,-501.7 584,-501.7 584,-507.7 578,-513.7 572,-513.7 572,-513.7 466,-513.7 466,-513.7 460,-513.7 454,-507.7 454,-501.7 454,-501.7 454,-489.7 454,-489.7 454,-483.7 460,-477.7 466,-477.7"/>
      <text text-anchor="middle" x="518.6066" y="-491.5" font-family="Microsoft YaHei" font-size="14.00" fill="#ffffff">转换</text>
    </g>
    <!-- 是否是网关&#45;&gt;转换 -->
    <g id="edge4" class="edge">
      <title>是否是网关-&gt;转换</title>
      <path fill="none" stroke="#1874cd" d="M519,-567.3276C519,-554.9124 519,-538.2106 519,-524.0579"/>
      <polygon fill="#1874cd" stroke="#1874cd" points="522.5001,-523.8453 519,-513.8453 515.5001,-523.8454 522.5001,-523.8453"/>
      <text text-anchor="middle" x="526.3913" y="-536.4" font-family="Microsoft YaHei" font-size="14.00" fill="#000000">是</text>
    </g>
    <!-- 标准设备 -->
    <g id="node9" class="node">
      <title>标准设备</title>
      <path fill="#1874cd" stroke="#1874cd" d="M400,-380.9C400,-380.9 506,-380.9 506,-380.9 512,-380.9 518,-386.9 518,-392.9 518,-392.9 518,-404.9 518,-404.9 518,-410.9 512,-416.9 506,-416.9 506,-416.9 400,-416.9 400,-416.9 394,-416.9 388,-410.9 388,-404.9 388,-404.9 388,-392.9 388,-392.9 388,-386.9 394,-380.9 400,-380.9"/>
      <text text-anchor="middle" x="452.5859" y="-394.7" font-family="Microsoft YaHei" font-size="14.00" fill="#ffffff">标准设备</text>
    </g>
    <!-- 是否是网关&#45;&gt;标准设备 -->
    <g id="edge12" class="edge">
      <title>是否是网关-&gt;标准设备</title>
      <path fill="none" stroke="#1874cd" d="M495.2506,-574.0357C473.9918,-562.3077 444.202,-541.888 431,-514.2 417.587,-486.0693 428.0504,-450.4017 438.6501,-426.2407"/>
      <polygon fill="#1874cd" stroke="#1874cd" points="441.9239,-427.5017 442.9771,-416.9593 435.5795,-424.5439 441.9239,-427.5017"/>
      <text text-anchor="middle" x="438" y="-491.5" font-family="Microsoft YaHei" font-size="14.00" fill="#000000">否</text>
    </g>
    <!-- 转换&#45;&gt;标准设备 -->
    <g id="edge14" class="edge">
      <title>转换-&gt;标准设备</title>
      <path fill="none" stroke="#1874cd" d="M506.5859,-477.4927C496.6299,-462.8905 482.5115,-442.1836 471.2658,-425.6899"/>
      <polygon fill="#1874cd" stroke="#1874cd" points="473.8836,-423.3163 465.3584,-417.0257 468.1,-427.2597 473.8836,-423.3163"/>
    </g>
    <!-- 数据对接 -->
    <g id="node19" class="node">
      <title>数据对接</title>
      <path fill="#1874cd" stroke="#1874cd" d="M400,-284.1C400,-284.1 506,-284.1 506,-284.1 512,-284.1 518,-290.1 518,-296.1 518,-296.1 518,-308.1 518,-308.1 518,-314.1 512,-320.1 506,-320.1 506,-320.1 400,-320.1 400,-320.1 394,-320.1 388,-314.1 388,-308.1 388,-308.1 388,-296.1 388,-296.1 388,-290.1 394,-284.1 400,-284.1"/>
      <text text-anchor="middle" x="452.8899" y="-297.9" font-family="Microsoft YaHei" font-size="14.00" fill="#ffffff">数据对接</text>
    </g>
    <!-- 标准设备&#45;&gt;数据对接 -->
    <g id="edge15" class="edge">
      <title>标准设备-&gt;数据对接</title>
      <path fill="none" stroke="#1874cd" d="M453,-380.6927C453,-366.4961 453,-346.5292 453,-330.2739"/>
      <polygon fill="#1874cd" stroke="#1874cd" points="456.5001,-330.2257 453,-320.2257 449.5001,-330.2257 456.5001,-330.2257"/>
    </g>
    <!-- 图表单元 -->
    <g id="node10" class="node">
      <title>图表单元</title>
      <path fill="#1874cd" stroke="#1874cd" d="M324,-113.3C324,-113.3 430,-113.3 430,-113.3 436,-113.3 442,-119.3 442,-125.3 442,-125.3 442,-137.3 442,-137.3 442,-143.3 436,-149.3 430,-149.3 430,-149.3 324,-149.3 324,-149.3 318,-149.3 312,-143.3 312,-137.3 312,-137.3 312,-125.3 312,-125.3 312,-119.3 318,-113.3 324,-113.3"/>
      <text text-anchor="middle" x="376.8566" y="-127.1" font-family="Microsoft YaHei" font-size="14.00" fill="#ffffff">图表单元</text>
    </g>
    <!-- 图表大屏 -->
    <g id="node17" class="node">
      <title>图表大屏</title>
      <path fill="#1874cd" stroke="#1874cd" d="M404,-16.5C404,-16.5 510,-16.5 510,-16.5 516,-16.5 522,-22.5 522,-28.5 522,-28.5 522,-40.5 522,-40.5 522,-46.5 516,-52.5 510,-52.5 510,-52.5 404,-52.5 404,-52.5 398,-52.5 392,-46.5 392,-40.5 392,-40.5 392,-28.5 392,-28.5 392,-22.5 398,-16.5 404,-16.5"/>
      <text text-anchor="middle" x="456.7749" y="-30.3" font-family="Microsoft YaHei" font-size="14.00" fill="#ffffff">图表大屏</text>
    </g>
    <!-- 图表单元&#45;&gt;图表大屏 -->
    <g id="edge16" class="edge">
      <title>图表单元-&gt;图表大屏</title>
      <path fill="none" stroke="#1874cd" d="M392.0474,-113.0927C404.3388,-98.2201 421.864,-77.0145 435.6133,-60.378"/>
      <polygon fill="#1874cd" stroke="#1874cd" points="438.3475,-62.5637 442.0201,-52.6257 432.9517,-58.1043 438.3475,-62.5637"/>
    </g>
    <!-- 报表单元 -->
    <g id="node11" class="node">
      <title>报表单元</title>
      <path fill="#1874cd" stroke="#1874cd" d="M28,-113.3C28,-113.3 134,-113.3 134,-113.3 140,-113.3 146,-119.3 146,-125.3 146,-125.3 146,-137.3 146,-137.3 146,-143.3 140,-149.3 134,-149.3 134,-149.3 28,-149.3 28,-149.3 22,-149.3 16,-143.3 16,-137.3 16,-137.3 16,-125.3 16,-125.3 16,-119.3 22,-113.3 28,-113.3"/>
      <text text-anchor="middle" x="80.6066" y="-127.1" font-family="Microsoft YaHei" font-size="14.00" fill="#ffffff">报表单元</text>
    </g>
    <!-- 分类报表 -->
    <g id="node16" class="node">
      <title>分类报表</title>
      <path fill="#1874cd" stroke="#1874cd" d="M108,-16.5C108,-16.5 214,-16.5 214,-16.5 220,-16.5 226,-22.5 226,-28.5 226,-28.5 226,-40.5 226,-40.5 226,-46.5 220,-52.5 214,-52.5 214,-52.5 108,-52.5 108,-52.5 102,-52.5 96,-46.5 96,-40.5 96,-40.5 96,-28.5 96,-28.5 96,-22.5 102,-16.5 108,-16.5"/>
      <text text-anchor="middle" x="160.6066" y="-30.3" font-family="Microsoft YaHei" font-size="14.00" fill="#ffffff">分类报表</text>
    </g>
    <!-- 报表单元&#45;&gt;分类报表 -->
    <g id="edge21" class="edge">
      <title>报表单元-&gt;分类报表</title>
      <path fill="none" stroke="#1874cd" d="M96.0474,-113.0927C108.3388,-98.2201 125.864,-77.0145 139.6133,-60.378"/>
      <polygon fill="#1874cd" stroke="#1874cd" points="142.3475,-62.5637 146.0201,-52.6257 136.9517,-58.1043 142.3475,-62.5637"/>
    </g>
    <!-- 组态单元 -->
    <g id="node12" class="node">
      <title>组态单元</title>
      <path fill="#1874cd" stroke="#1874cd" d="M176,-113.3C176,-113.3 282,-113.3 282,-113.3 288,-113.3 294,-119.3 294,-125.3 294,-125.3 294,-137.3 294,-137.3 294,-143.3 288,-149.3 282,-149.3 282,-149.3 176,-149.3 176,-149.3 170,-149.3 164,-143.3 164,-137.3 164,-137.3 164,-125.3 164,-125.3 164,-119.3 170,-113.3 176,-113.3"/>
      <text text-anchor="middle" x="228.75" y="-127.1" font-family="Microsoft YaHei" font-size="14.00" fill="#ffffff">组态单元</text>
    </g>
    <!-- 组态大屏 -->
    <g id="node18" class="node">
      <title>组态大屏</title>
      <path fill="#1874cd" stroke="#1874cd" d="M256,-16.5C256,-16.5 362,-16.5 362,-16.5 368,-16.5 374,-22.5 374,-28.5 374,-28.5 374,-40.5 374,-40.5 374,-46.5 368,-52.5 362,-52.5 362,-52.5 256,-52.5 256,-52.5 250,-52.5 244,-46.5 244,-40.5 244,-40.5 244,-28.5 244,-28.5 244,-22.5 250,-16.5 256,-16.5"/>
      <text text-anchor="middle" x="308.6683" y="-30.3" font-family="Microsoft YaHei" font-size="14.00" fill="#ffffff">组态大屏</text>
    </g>
    <!-- 组态单元&#45;&gt;组态大屏 -->
    <g id="edge20" class="edge">
      <title>组态单元-&gt;组态大屏</title>
      <path fill="none" stroke="#1874cd" d="M244.0474,-113.0927C256.3388,-98.2201 273.864,-77.0145 287.6133,-60.378"/>
      <polygon fill="#1874cd" stroke="#1874cd" points="290.3475,-62.5637 294.0201,-52.6257 284.9517,-58.1043 290.3475,-62.5637"/>
    </g>
    <!-- 热力图图表单元 -->
    <g id="node13" class="node">
      <title>热力图图表单元</title>
      <path fill="#1874cd" stroke="#1874cd" d="M774,-113.3C774,-113.3 880,-113.3 880,-113.3 886,-113.3 892,-119.3 892,-125.3 892,-125.3 892,-137.3 892,-137.3 892,-143.3 886,-149.3 880,-149.3 880,-149.3 774,-149.3 774,-149.3 768,-149.3 762,-143.3 762,-137.3 762,-137.3 762,-125.3 762,-125.3 762,-119.3 768,-113.3 774,-113.3"/>
      <text text-anchor="middle" x="826.6869" y="-127.1" font-family="Microsoft YaHei" font-size="14.00" fill="#ffffff">热力图图表单元</text>
    </g>
    <!-- 热力图图表单元&#45;&gt;图表大屏 -->
    <g id="edge17" class="edge">
      <title>热力图图表单元-&gt;图表大屏</title>
      <path fill="none" stroke="#1874cd" d="M779.0897,-113.2725C770.4592,-110.2745 761.5033,-107.3239 753,-104.8 678.6546,-82.7334 592.2207,-62.8539 532.0206,-49.9115"/>
      <polygon fill="#1874cd" stroke="#1874cd" points="532.7278,-46.4837 522.217,-47.8153 531.2641,-53.3289 532.7278,-46.4837"/>
    </g>
    <!-- 地图图表单元 -->
    <g id="node14" class="node">
      <title>地图图表单元</title>
      <path fill="#1874cd" stroke="#1874cd" d="M478,-113.3C478,-113.3 584,-113.3 584,-113.3 590,-113.3 596,-119.3 596,-125.3 596,-125.3 596,-137.3 596,-137.3 596,-143.3 590,-149.3 584,-149.3 584,-149.3 478,-149.3 478,-149.3 472,-149.3 466,-143.3 466,-137.3 466,-137.3 466,-125.3 466,-125.3 466,-119.3 472,-113.3 478,-113.3"/>
      <text text-anchor="middle" x="530.8566" y="-127.1" font-family="Microsoft YaHei" font-size="14.00" fill="#ffffff">地图图表单元</text>
    </g>
    <!-- 地图图表单元&#45;&gt;图表大屏 -->
    <g id="edge18" class="edge">
      <title>地图图表单元-&gt;图表大屏</title>
      <path fill="none" stroke="#1874cd" d="M517.0812,-113.0927C505.815,-98.3553 489.7951,-77.3996 477.1304,-60.8328"/>
      <polygon fill="#1874cd" stroke="#1874cd" points="479.7103,-58.4446 470.8564,-52.6257 474.1492,-62.6959 479.7103,-58.4446"/>
    </g>
    <!-- 全局统计图表单元 -->
    <g id="node15" class="node">
      <title>全局统计图表单元</title>
      <path fill="#1874cd" stroke="#1874cd" d="M626,-113.3C626,-113.3 732,-113.3 732,-113.3 738,-113.3 744,-119.3 744,-125.3 744,-125.3 744,-137.3 744,-137.3 744,-143.3 738,-149.3 732,-149.3 732,-149.3 626,-149.3 626,-149.3 620,-149.3 614,-143.3 614,-137.3 614,-137.3 614,-125.3 614,-125.3 614,-119.3 620,-113.3 626,-113.3"/>
      <text text-anchor="middle" x="679.3545" y="-127.1" font-family="Microsoft YaHei" font-size="14.00" fill="#ffffff">全局统计图表单元</text>
    </g>
    <!-- 全局统计图表单元&#45;&gt;图表大屏 -->
    <g id="edge19" class="edge">
      <title>全局统计图表单元-&gt;图表大屏</title>
      <path fill="none" stroke="#1874cd" d="M637.5039,-113.2062C600.8292,-97.2147 547.2158,-73.8373 507.9478,-56.7151"/>
      <polygon fill="#1874cd" stroke="#1874cd" points="508.858,-53.2937 498.2925,-52.505 506.0601,-59.7103 508.858,-53.2937"/>
    </g>
    <!-- 数据 -->
    <g id="node20" class="node">
      <title>数据</title>
      <path fill="#1874cd" stroke="#1874cd" d="M400,-210.1C400,-210.1 506,-210.1 506,-210.1 512,-210.1 518,-216.1 518,-222.1 518,-222.1 518,-234.1 518,-234.1 518,-240.1 512,-246.1 506,-246.1 506,-246.1 400,-246.1 400,-246.1 394,-246.1 388,-240.1 388,-234.1 388,-234.1 388,-222.1 388,-222.1 388,-216.1 394,-210.1 400,-210.1"/>
      <text text-anchor="middle" x="452.6413" y="-223.9" font-family="Microsoft YaHei" font-size="14.00" fill="#ffffff">数据</text>
    </g>
    <!-- 数据对接&#45;&gt;数据 -->
    <g id="edge5" class="edge">
      <title>数据对接-&gt;数据</title>
      <path fill="none" stroke="#1874cd" d="M453,-283.8079C453,-275.5635 453,-265.6376 453,-256.4622"/>
      <polygon fill="#1874cd" stroke="#1874cd" points="456.5001,-256.1817 453,-246.1817 449.5001,-256.1818 456.5001,-256.1817"/>
    </g>
    <!-- 数据&#45;&gt;图表单元 -->
    <g id="edge6" class="edge">
      <title>数据-&gt;图表单元</title>
      <path fill="none" stroke="#1874cd" d="M438.705,-209.8927C427.1343,-195.1553 410.6815,-174.1996 397.6745,-157.6328"/>
      <polygon fill="#1874cd" stroke="#1874cd" points="400.1592,-155.1298 391.2309,-149.4257 394.6534,-159.4525 400.1592,-155.1298"/>
    </g>
    <!-- 数据&#45;&gt;报表单元 -->
    <g id="edge7" class="edge">
      <title>数据-&gt;报表单元</title>
      <path fill="none" stroke="#1874cd" d="M387.7083,-221.6095C313.1426,-213.5893 196.1486,-198.9802 155,-182.6 138.7967,-176.1499 122.6623,-165.579 109.614,-155.7039"/>
      <polygon fill="#1874cd" stroke="#1874cd" points="111.5473,-152.7725 101.5153,-149.3653 107.2329,-158.2849 111.5473,-152.7725"/>
    </g>
    <!-- 数据&#45;&gt;组态单元 -->
    <g id="edge8" class="edge">
      <title>数据-&gt;组态单元</title>
      <path fill="none" stroke="#1874cd" d="M387.7882,-210.4782C354.7236,-201.1131 318.3738,-190.0329 303,-182.6 287.7607,-175.2321 272.1739,-164.9191 259.2601,-155.4707"/>
      <polygon fill="#1874cd" stroke="#1874cd" points="261.2923,-152.6199 251.1903,-149.4261 257.0958,-158.2225 261.2923,-152.6199"/>
    </g>
    <!-- 数据&#45;&gt;热力图图表单元 -->
    <g id="edge22" class="edge">
      <title>数据-&gt;热力图图表单元</title>
      <path fill="none" stroke="#ff0000" d="M518.065,-221.71C593.0982,-213.7343 711.4509,-199.1157 753,-182.6 769.2065,-176.1579 785.3413,-165.5881 798.3891,-155.7116"/>
      <polygon fill="#ff0000" stroke="#ff0000" points="800.7707,-158.2921 806.4873,-149.3718 796.4557,-152.7802 800.7707,-158.2921"/>
    </g>
    <!-- 数据&#45;&gt;地图图表单元 -->
    <g id="edge23" class="edge">
      <title>数据-&gt;地图图表单元</title>
      <path fill="none" stroke="#ff0000" d="M467.6712,-209.8927C479.5464,-195.1553 496.4322,-174.1996 509.7814,-157.6328"/>
      <polygon fill="#ff0000" stroke="#ff0000" points="512.8455,-159.4084 516.3946,-149.4257 507.3948,-155.0163 512.8455,-159.4084"/>
    </g>
    <!-- 数据&#45;&gt;全局统计图表单元 -->
    <g id="edge24" class="edge">
      <title>数据-&gt;全局统计图表单元</title>
      <path fill="none" stroke="#ff0000" d="M518.2837,-213.4035C545.793,-205.9875 577.6965,-195.7391 605,-182.6 620.2528,-175.26 635.8416,-164.9513 648.7534,-155.4985"/>
      <polygon fill="#ff0000" stroke="#ff0000" points="650.9195,-158.249 656.8212,-149.4501 646.7206,-152.6481 650.9195,-158.249"/>
    </g>
    <!-- 数据转换规则 -->
    <g id="node21" class="node">
      <title>数据转换规则</title>
      <path fill="#1874cd" stroke="#1874cd" d="M620,-567.5C620,-567.5 726,-567.5 726,-567.5 732,-567.5 738,-573.5 738,-579.5 738,-579.5 738,-591.5 738,-591.5 738,-597.5 732,-603.5 726,-603.5 726,-603.5 620,-603.5 620,-603.5 614,-603.5 608,-597.5 608,-591.5 608,-591.5 608,-579.5 608,-579.5 608,-573.5 614,-567.5 620,-567.5"/>
      <text text-anchor="middle" x="672.5242" y="-581.3" font-family="Microsoft YaHei" font-size="14.00" fill="#ffffff">数据转换规则</text>
    </g>
    <!-- 数据转换规则&#45;&gt;转换 -->
    <g id="edge13" class="edge">
      <title>数据转换规则-&gt;转换</title>
      <path fill="none" stroke="#1874cd" d="M641.8358,-567.3276C617.9354,-553.3909 584.7718,-534.0526 558.927,-518.9821"/>
      <polygon fill="#1874cd" stroke="#1874cd" points="560.5195,-515.8592 550.1179,-513.8453 556.9934,-521.9062 560.5195,-515.8592"/>
      <text text-anchor="middle" x="623.7763" y="-536.4" font-family="Microsoft YaHei" font-size="14.00" fill="#000000">调用</text>
    </g>
  </g>
</svg>
