<?xml version="1.0" standalone="no"?><!DOCTYPE svg PUBLIC "-//W3C//DTD SVG 1.1//EN" "http://www.w3.org/Graphics/SVG/1.1/DTD/svg11.dtd"><svg t="1659421638283" class="icon" viewBox="0 0 1024 1024" version="1.1" xmlns="http://www.w3.org/2000/svg" p-id="7620" xmlns:xlink="http://www.w3.org/1999/xlink" width="200" height="200"><defs><style type="text/css">@font-face { font-family: feedback-iconfont; src: url("//at.alicdn.com/t/font_1031158_u69w8yhxdu.woff2?t=1630033759944") format("woff2"), url("//at.alicdn.com/t/font_1031158_u69w8yhxdu.woff?t=1630033759944") format("woff"), url("//at.alicdn.com/t/font_1031158_u69w8yhxdu.ttf?t=1630033759944") format("truetype"); }
</style></defs><path fill="#314694" d="M128 672V224c0-35.2 28.8-64 64-64h512V96H192c-70.4 0-128 57.6-128 128v448h64zM506.987 608h138.492l-69.246-148.498z" p-id="7621"></path><path fill="#314694" d="M832 224H320c-70.4 0-128 57.6-128 128v448c0 70.4 57.6 128 128 128h512c70.4 0 128-57.6 128-128V352c0-70.4-57.6-128-128-128z m-66.571 565.514c-15.951 7.438-35.088 0.473-42.526-15.478l-47.657-102.201A31.964 31.964 0 0 1 672 672H480c-0.942 0-1.873-0.05-2.796-0.13l-48.107 103.166c-7.438 15.951-26.575 22.916-42.526 15.478-15.951-7.438-22.916-26.575-15.478-42.526l174.71-374.666c2.698-8.031 8.531-14.995 16.768-18.836 15.951-7.438 35.087-0.473 42.526 15.478l175.809 377.024c7.439 15.951 0.474 35.088-15.477 42.526z" p-id="7622"></path></svg>