<?xml version="1.0" encoding="UTF-8"?>
<!DOCTYPE svg PUBLIC "-//W3C//DTD SVG 1.1//EN" "http://www.w3.org/Graphics/SVG/1.1/DTD/svg11.dtd">
<svg xmlns="http://www.w3.org/2000/svg" version="1.1" width="200px" height="200px" style="shape-rendering:geometricPrecision; text-rendering:geometricPrecision; image-rendering:optimizeQuality; fill-rule:evenodd; clip-rule:evenodd" xmlns:xlink="http://www.w3.org/1999/xlink">
<g><path style="opacity:1" fill="#fefefe" d="M -0.5,-0.5 C 66.1667,-0.5 132.833,-0.5 199.5,-0.5C 199.5,66.1667 199.5,132.833 199.5,199.5C 132.833,199.5 66.1667,199.5 -0.5,199.5C -0.5,132.833 -0.5,66.1667 -0.5,-0.5 Z"/></g>
<g><path style="opacity:1" fill="#f1f1f1" d="M 41.5,54.5 C 41.5,74.1667 41.5,93.8333 41.5,113.5C 41.3345,117.514 41.5012,121.514 42,125.5C 42.8333,126.333 43.6667,127.167 44.5,128C 57.872,127.848 70.872,128.682 83.5,130.5C 82.4921,136.535 81.1588,142.535 79.5,148.5C 92.4829,149.499 105.483,149.832 118.5,149.5C 117.145,142.446 115.478,135.446 113.5,128.5C 127.504,128.667 141.504,128.5 155.5,128C 156.667,126.833 157.833,125.667 159,124.5C 159.83,100.663 159.663,76.9964 158.5,53.5C 158.084,51.2475 156.751,49.7475 154.5,49C 134.169,48.5 113.836,48.3334 93.5,48.5C 93.5,45.1667 93.5,41.8333 93.5,38.5C 99.183,35.9278 105.183,34.4278 111.5,34C 127.882,31.8639 143.549,34.1972 158.5,41C 168.393,47.5642 174.226,56.7308 176,68.5C 176.483,76.3578 177.816,84.0245 180,91.5C 199.581,110.334 200.414,129.834 182.5,150C 173.524,156.321 163.857,161.321 153.5,165C 148.238,166.439 142.904,166.772 137.5,166C 128.004,164.248 118.671,161.915 109.5,159C 97.8367,157.033 86.17,157.033 74.5,159C 67.1667,161 59.8333,163 52.5,165C 21.3159,169.153 4.9826,155.486 3.5,124C 3.46512,107.096 9.46512,92.7623 21.5,81C 27.3611,78.8251 33.1945,76.6584 39,74.5C 39.3333,91.1667 39.6667,107.833 40,124.5C 40.1679,100.996 40.6679,77.6631 41.5,54.5 Z"/></g>
<g><path style="opacity:1" fill="#304492" d="M 59.5,35.5 C 70.8333,35.5 82.1667,35.5 93.5,35.5C 93.5,36.5 93.5,37.5 93.5,38.5C 93.5,41.8333 93.5,45.1667 93.5,48.5C 93.5,49.1667 93.5,49.8333 93.5,50.5C 93.5,51.8333 93.5,53.1667 93.5,54.5C 93.5,55.5 93.5,56.5 93.5,57.5C 92.5,57.5 91.5,57.5 90.5,57.5C 80.5,57.5 70.5,57.5 60.5,57.5C 60.1667,57.5 59.8333,57.5 59.5,57.5C 59.2606,55.5328 59.5939,53.6995 60.5,52C 63.2305,51.2716 65.8971,51.4383 68.5,52.5C 69.7989,51.91 70.6322,50.91 71,49.5C 72.4443,51.1554 74.2776,51.822 76.5,51.5C 76.5,50.5 76.5,49.5 76.5,48.5C 71.7252,48.3529 67.3919,47.3529 63.5,45.5C 68.658,45.135 73.658,45.135 78.5,45.5C 78.6463,43.0576 77.813,42.3909 76,43.5C 75,42.8333 74,42.1667 73,41.5C 70.876,42.2272 68.7094,42.8938 66.5,43.5C 65.5745,42.3595 64.7412,42.3595 64,43.5C 63.296,41.273 62.1294,40.9397 60.5,42.5C 59.5318,40.3926 59.1984,38.0593 59.5,35.5 Z"/></g>
<g><path style="opacity:1" fill="#a5adcf" d="M 80.5,42.5 C 83.0115,42.838 85.3448,42.838 87.5,42.5C 88.3857,43.325 88.719,44.325 88.5,45.5C 85.8333,45.5 83.1667,45.5 80.5,45.5C 80.5,44.5 80.5,43.5 80.5,42.5 Z"/></g>
<g><path style="opacity:1" fill="#a5adcf" d="M 63.5,45.5 C 62.5,45.5 61.5,45.5 60.5,45.5C 60.5,44.5 60.5,43.5 60.5,42.5C 62.1294,40.9397 63.296,41.273 64,43.5C 64.7412,42.3595 65.5745,42.3595 66.5,43.5C 68.7094,42.8938 70.876,42.2272 73,41.5C 74,42.1667 75,42.8333 76,43.5C 77.813,42.3909 78.6463,43.0576 78.5,45.5C 73.658,45.135 68.658,45.135 63.5,45.5 Z"/></g>
<g><path style="opacity:1" fill="#626ca8" d="M 59.5,35.5 C 59.1984,38.0593 59.5318,40.3926 60.5,42.5C 60.5,43.5 60.5,44.5 60.5,45.5C 61.5,45.5 62.5,45.5 63.5,45.5C 67.3919,47.3529 71.7252,48.3529 76.5,48.5C 76.5,49.5 76.5,50.5 76.5,51.5C 74.2776,51.822 72.4443,51.1554 71,49.5C 70.6322,50.91 69.7989,51.91 68.5,52.5C 65.8971,51.4383 63.2305,51.2716 60.5,52C 59.5939,53.6995 59.2606,55.5328 59.5,57.5C 58.5489,56.0813 58.2155,54.4147 58.5,52.5C 58.5,51.8333 58.5,51.1667 58.5,50.5C 58.5,49.8333 58.5,49.1667 58.5,48.5C 58.1818,43.9677 58.5151,39.6344 59.5,35.5 Z"/></g>
<g><path style="opacity:1" fill="#423b44" d="M 58.5,48.5 C 58.5,49.1667 58.5,49.8333 58.5,50.5C 54.4862,50.3345 50.4862,50.5012 46.5,51C 45.3333,52.1667 44.1667,53.3333 43,54.5C 42.5001,73.4971 42.3334,92.4971 42.5,111.5C 48.6309,112.092 54.4642,111.425 60,109.5C 60.9182,106.402 61.4182,103.235 61.5,100C 60.5623,90.9782 58.729,82.1449 56,73.5C 55.1837,68.3158 55.3503,63.3158 56.5,58.5C 56.3669,67.613 58.2002,76.2796 62,84.5C 65.0301,93.3321 65.8634,102.332 64.5,111.5C 71.3543,111.824 78.021,111.491 84.5,110.5C 108.759,111.49 133.092,111.823 157.5,111.5C 157.833,92.1552 157.5,72.8218 156.5,53.5C 155.354,52.8551 154.354,52.0217 153.5,51C 133.503,50.5 113.503,50.3334 93.5,50.5C 93.5,49.8333 93.5,49.1667 93.5,48.5C 113.836,48.3334 134.169,48.5 154.5,49C 156.751,49.7475 158.084,51.2475 158.5,53.5C 158.5,73.5 158.5,93.5 158.5,113.5C 119.5,113.5 80.5,113.5 41.5,113.5C 41.5,93.8333 41.5,74.1667 41.5,54.5C 42.2026,52.2843 43.5359,50.451 45.5,49C 49.8206,48.501 54.1539,48.3343 58.5,48.5 Z"/></g>
<g><path style="opacity:1" fill="#f3f1f1" d="M 58.5,52.5 C 58.2155,54.4147 58.5489,56.0813 59.5,57.5C 59.8333,57.5 60.1667,57.5 60.5,57.5C 61.6989,65.8793 64.0322,73.8793 67.5,81.5C 69.1667,81.5 70.8333,81.5 72.5,81.5C 72.5,82.5 72.5,83.5 72.5,84.5C 74.1667,84.5 75.8333,84.5 77.5,84.5C 77.5,83.5 77.5,82.5 77.5,81.5C 81.2699,80.2642 84.4365,77.9309 87,74.5C 88.2924,69.6215 89.7924,64.7882 91.5,60C 91.2568,59.0979 90.9234,58.2646 90.5,57.5C 91.5,57.5 92.5,57.5 93.5,57.5C 93.5,56.5 93.5,55.5 93.5,54.5C 95.2517,54.4176 96.2517,55.2509 96.5,57C 95.3883,63.5032 94.2216,70.0032 93,76.5C 85.6586,86.7069 82.8253,98.0402 84.5,110.5C 78.021,111.491 71.3543,111.824 64.5,111.5C 65.8634,102.332 65.0301,93.3321 62,84.5C 58.2002,76.2796 56.3669,67.613 56.5,58.5C 54.8661,55.7624 55.5328,53.7624 58.5,52.5 Z"/></g>
<g><path style="opacity:1" fill="#f4a89e" d="M 79.5,77.5 C 78.3995,78.6049 77.7329,79.9382 77.5,81.5C 77.5,82.5 77.5,83.5 77.5,84.5C 75.8333,84.5 74.1667,84.5 72.5,84.5C 72.5,83.5 72.5,82.5 72.5,81.5C 71.9044,79.2546 70.9044,77.2546 69.5,75.5C 69.7952,74.1033 70.1286,72.6033 70.5,71C 73.2241,70.7305 75.8908,70.2305 78.5,69.5C 79.48,72.0865 79.8134,74.7531 79.5,77.5 Z"/></g>
<g><path style="opacity:1" fill="#2d2b3f" d="M 60.5,57.5 C 70.5,57.5 80.5,57.5 90.5,57.5C 90.9234,58.2646 91.2568,59.0979 91.5,60C 89.7924,64.7882 88.2924,69.6215 87,74.5C 84.4365,77.9309 81.2699,80.2642 77.5,81.5C 77.7329,79.9382 78.3995,78.6049 79.5,77.5C 84.2849,72.492 86.9515,66.492 87.5,59.5C 82.4889,59.3341 77.4889,59.5007 72.5,60C 71.3659,61.016 71.6992,61.6827 73.5,62C 72.0692,62.4652 70.9025,63.2986 70,64.5C 69.5423,67.1808 68.709,69.6808 67.5,72C 67.8618,73.4343 68.5285,74.6009 69.5,75.5C 70.9044,77.2546 71.9044,79.2546 72.5,81.5C 70.8333,81.5 69.1667,81.5 67.5,81.5C 64.0322,73.8793 61.6989,65.8793 60.5,57.5 Z"/></g>
<g><path style="opacity:1" fill="#433e52" d="M 79.5,77.5 C 79.8134,74.7531 79.48,72.0865 78.5,69.5C 75.8908,70.2305 73.2241,70.7305 70.5,71C 70.1286,72.6033 69.7952,74.1033 69.5,75.5C 68.5285,74.6009 67.8618,73.4343 67.5,72C 68.709,69.6808 69.5423,67.1808 70,64.5C 70.9025,63.2986 72.0692,62.4652 73.5,62C 71.6992,61.6827 71.3659,61.016 72.5,60C 77.4889,59.5007 82.4889,59.3341 87.5,59.5C 86.9515,66.492 84.2849,72.492 79.5,77.5 Z"/></g>
<g><path style="opacity:1" fill="#403e57" d="M 93.5,50.5 C 113.503,50.3334 133.503,50.5 153.5,51C 154.354,52.0217 155.354,52.8551 156.5,53.5C 157.5,72.8218 157.833,92.1552 157.5,111.5C 133.092,111.823 108.759,111.49 84.5,110.5C 82.8253,98.0402 85.6586,86.7069 93,76.5C 94.2216,70.0032 95.3883,63.5032 96.5,57C 96.2517,55.2509 95.2517,54.4176 93.5,54.5C 93.5,53.1667 93.5,51.8333 93.5,50.5 Z"/></g>
<g><path style="opacity:1" fill="#a8a6b1" d="M 101.5,94.5 C 110.857,94.1684 120.19,94.5017 129.5,95.5C 124.833,95.8333 120.167,96.1667 115.5,96.5C 110.449,96.4933 105.783,95.8266 101.5,94.5 Z"/></g>
<g><path style="opacity:1" fill="#c3c2c9" d="M 122.5,91.5 C 128.206,91.1712 133.872,91.5046 139.5,92.5C 136.667,92.8333 133.833,93.1667 131,93.5C 127.748,93.4809 124.915,92.8142 122.5,91.5 Z"/></g>
<g><path style="opacity:1" fill="#bfbec6" d="M 101.5,91.5 C 107.537,91.1707 113.537,91.5041 119.5,92.5C 116.5,92.8333 113.5,93.1667 110.5,93.5C 107.087,93.483 104.087,92.8164 101.5,91.5 Z"/></g>
<g><path style="opacity:1" fill="#6860d1" d="M 145.5,82.5 C 147.833,82.5 150.167,82.5 152.5,82.5C 152.5,83.5 152.5,84.5 152.5,85.5C 150.167,85.5 147.833,85.5 145.5,85.5C 145.5,84.5 145.5,83.5 145.5,82.5 Z"/></g>
<g><path style="opacity:1" fill="#6d63f7" d="M 125.5,73.5 C 129.167,73.5 132.833,73.5 136.5,73.5C 136.5,74.1667 136.5,74.8333 136.5,75.5C 131.59,78.0683 126.257,79.0683 120.5,78.5C 121.785,76.5484 123.451,74.8818 125.5,73.5 Z"/></g>
<g><path style="opacity:1" fill="#0c0f14" d="M 113.5,74.5 C 115.05,75.4408 116.716,76.1075 118.5,76.5C 118.833,77.5 119.5,78.1667 120.5,78.5C 126.257,79.0683 131.59,78.0683 136.5,75.5C 137.525,75.8966 137.692,76.5632 137,77.5C 130.108,80.9089 122.942,81.4089 115.5,79C 113.681,77.5847 113.015,76.0847 113.5,74.5 Z"/></g>
<g><path style="opacity:1" fill="#6059c4" d="M 96.5,76.5 C 99.2469,76.1866 101.914,76.52 104.5,77.5C 103.652,78.9911 102.319,79.6578 100.5,79.5C 98.0182,79.8896 96.6848,78.8896 96.5,76.5 Z"/></g>
<g><path style="opacity:1" fill="#6e65f3" d="M 113.5,74.5 C 113.5,74.1667 113.5,73.8333 113.5,73.5C 116.518,73.3354 119.518,73.502 122.5,74C 121.307,75.0946 119.973,75.928 118.5,76.5C 116.716,76.1075 115.05,75.4408 113.5,74.5 Z"/></g>
<g><path style="opacity:1" fill="#c2be92" d="M 135.5,71.5 C 136.338,71.8417 136.672,72.5084 136.5,73.5C 132.833,73.5 129.167,73.5 125.5,73.5C 125.5,73.1667 125.5,72.8333 125.5,72.5C 129.042,72.8128 132.375,72.4794 135.5,71.5 Z"/></g>
<g><path style="opacity:1" fill="#f5f542" d="M 123.5,70.5 C 127.505,69.1618 131.505,69.4952 135.5,71.5C 132.375,72.4794 129.042,72.8128 125.5,72.5C 125.167,71.5 124.5,70.8333 123.5,70.5 Z"/></g>
<g><path style="opacity:1" fill="#6a7acc" d="M 123.5,70.5 C 124.5,70.8333 125.167,71.5 125.5,72.5C 125.5,72.8333 125.5,73.1667 125.5,73.5C 123.451,74.8818 121.785,76.5484 120.5,78.5C 119.5,78.1667 118.833,77.5 118.5,76.5C 119.973,75.928 121.307,75.0946 122.5,74C 119.518,73.502 116.518,73.3354 113.5,73.5C 112.494,73.0623 112.494,72.3957 113.5,71.5C 117.042,71.8128 120.375,71.4794 123.5,70.5 Z"/></g>
<g><path style="opacity:1" fill="#6a5bf7" d="M 123.5,70.5 C 120.375,71.4794 117.042,71.8128 113.5,71.5C 116.627,68.5451 119.96,68.2118 123.5,70.5 Z"/></g>
<g><path style="opacity:1" fill="#d9d850" d="M 140.5,66.5 C 142.924,66.1924 145.257,66.5258 147.5,67.5C 146.333,67.8333 145.167,68.1667 144,68.5C 142.319,68.3917 141.152,67.7251 140.5,66.5 Z"/></g>
<g><path style="opacity:1" fill="#6f64ed" d="M 106.5,59.5 C 108.924,59.1924 111.257,59.5258 113.5,60.5C 112.333,60.8333 111.167,61.1667 110,61.5C 108.319,61.3917 107.152,60.7251 106.5,59.5 Z"/></g>
<g><path style="opacity:1" fill="#3f3d56" d="M 58.5,50.5 C 58.5,51.1667 58.5,51.8333 58.5,52.5C 55.5328,53.7624 54.8661,55.7624 56.5,58.5C 55.3503,63.3158 55.1837,68.3158 56,73.5C 58.729,82.1449 60.5623,90.9782 61.5,100C 61.4182,103.235 60.9182,106.402 60,109.5C 54.4642,111.425 48.6309,112.092 42.5,111.5C 42.3334,92.4971 42.5001,73.4971 43,54.5C 44.1667,53.3333 45.3333,52.1667 46.5,51C 50.4862,50.5012 54.4862,50.3345 58.5,50.5 Z"/></g>
<g><path style="opacity:1" fill="#b0b7d5" d="M 80.5,48.5 C 82.5851,49.3503 84.5851,49.6837 86.5,49.5C 85.4729,51.024 83.9729,51.6906 82,51.5C 78.2671,51.3873 77.7671,50.3873 80.5,48.5 Z"/></g>
<g><path style="opacity:1" fill="#64607b" d="M 158.5,53.5 C 159.663,76.9964 159.83,100.663 159,124.5C 157.833,125.667 156.667,126.833 155.5,128C 141.504,128.5 127.504,128.667 113.5,128.5C 103.24,127.898 93.2404,128.564 83.5,130.5C 70.872,128.682 57.872,127.848 44.5,128C 43.6667,127.167 42.8333,126.333 42,125.5C 41.5012,121.514 41.3345,117.514 41.5,113.5C 80.5,113.5 119.5,113.5 158.5,113.5C 158.5,93.5 158.5,73.5 158.5,53.5 Z"/></g>
<g><path style="opacity:1" fill="#3c3b53" d="M 113.5,128.5 C 115.478,135.446 117.145,142.446 118.5,149.5C 105.483,149.832 92.4829,149.499 79.5,148.5C 81.1588,142.535 82.4921,136.535 83.5,130.5C 93.2404,128.564 103.24,127.898 113.5,128.5 Z"/></g>
</svg>
