<?xml version="1.0" encoding="UTF-8"?>
<!DOCTYPE svg PUBLIC "-//W3C//DTD SVG 1.1//EN" "http://www.w3.org/Graphics/SVG/1.1/DTD/svg11.dtd">
<svg xmlns="http://www.w3.org/2000/svg" version="1.1" width="200px" height="200px" style="shape-rendering:geometricPrecision; text-rendering:geometricPrecision; image-rendering:optimizeQuality; fill-rule:evenodd; clip-rule:evenodd" xmlns:xlink="http://www.w3.org/1999/xlink">
<g><path style="opacity:1" fill="#fefefe" d="M -0.5,-0.5 C 66.1667,-0.5 132.833,-0.5 199.5,-0.5C 199.5,66.1667 199.5,132.833 199.5,199.5C 132.833,199.5 66.1667,199.5 -0.5,199.5C -0.5,132.833 -0.5,66.1667 -0.5,-0.5 Z"/></g>
<g><path style="opacity:1" fill="#cccccc" d="M 151.5,101.5 C 151.5,104.5 151.5,107.5 151.5,110.5C 142.833,110.5 134.167,110.5 125.5,110.5C 125.884,102.169 126.218,93.8359 126.5,85.5C 116.167,85.5 105.833,85.5 95.5,85.5C 95.5,83.1667 95.5,80.8333 95.5,78.5C 97.0755,77.925 98.7422,77.5916 100.5,77.5C 106.063,79.0739 111.73,79.7406 117.5,79.5C 117.5,72.8333 117.5,66.1667 117.5,59.5C 105.833,59.5 94.1667,59.5 82.5,59.5C 82.5,64.1667 82.5,68.8333 82.5,73.5C 81.8333,73.5 81.1667,73.5 80.5,73.5C 80.5,68.8333 80.5,64.1667 80.5,59.5C 77.5,59.5 74.5,59.5 71.5,59.5C 71.5,64.1667 71.5,68.8333 71.5,73.5C 63.8333,73.5 56.1667,73.5 48.5,73.5C 48.3336,65.16 48.5003,56.8267 49,48.5C 51.9877,46.6009 54.8211,44.6009 57.5,42.5C 61.0236,40.6527 64.6902,38.986 68.5,37.5C 69.2508,38.376 69.7508,39.376 70,40.5C 70.4994,46.1569 70.6661,51.8236 70.5,57.5C 73.8333,57.5 77.1667,57.5 80.5,57.5C 80.169,49.4723 80.5023,41.4723 81.5,33.5C 85.5437,52.8849 97.5437,60.8849 117.5,57.5C 118.167,25.5 118.833,25.5 119.5,57.5C 122.833,57.5 126.167,57.5 129.5,57.5C 129.251,50.4065 129.917,43.4065 131.5,36.5C 138.36,39.1797 144.86,42.513 151,46.5C 151.5,64.8303 151.667,83.1636 151.5,101.5 Z"/></g>
<g><path style="opacity:1" fill="#eeeeef" d="M 57.5,42.5 C 54.8211,44.6009 51.9877,46.6009 49,48.5C 48.5003,56.8267 48.3336,65.16 48.5,73.5C 41.2454,73.1868 34.0787,73.5201 27,74.5C 26.5001,89.8297 26.3334,105.163 26.5,120.5C 25.6686,105.339 25.1686,90.0055 25,74.5C 24.6667,88.1667 24.3333,101.833 24,115.5C 12.9129,91.0196 17.0796,69.5196 36.5,51C 42.85,45.8002 49.85,42.9668 57.5,42.5 Z"/></g>
<g><path style="opacity:1" fill="#fefefe" d="M 119.5,59.5 C 122.5,59.5 125.5,59.5 128.5,59.5C 128.046,66.1593 127.713,72.8259 127.5,79.5C 124.833,79.5 122.167,79.5 119.5,79.5C 119.5,72.8333 119.5,66.1667 119.5,59.5 Z"/></g>
<g><path style="opacity:1" fill="#f5f5f5" d="M 95.5,78.5 C 95.7678,76.901 95.4345,75.5676 94.5,74.5C 90.7016,73.5166 86.7016,73.1832 82.5,73.5C 82.5,68.8333 82.5,64.1667 82.5,59.5C 94.1667,59.5 105.833,59.5 117.5,59.5C 117.5,66.1667 117.5,72.8333 117.5,79.5C 111.73,79.7406 106.063,79.0739 100.5,77.5C 98.7422,77.5916 97.0755,77.925 95.5,78.5 Z"/></g>
<g><path style="opacity:1" fill="#f3f3f3" d="M 80.5,73.5 C 77.5,73.5 74.5,73.5 71.5,73.5C 71.5,68.8333 71.5,64.1667 71.5,59.5C 74.5,59.5 77.5,59.5 80.5,59.5C 80.5,64.1667 80.5,68.8333 80.5,73.5 Z"/></g>
<g><path style="opacity:1" fill="#242750" d="M 28.5,75.5 C 50.327,74.5026 72.327,74.1693 94.5,74.5C 94.8195,79.3633 94.4861,84.03 93.5,88.5C 93.5,84.1667 93.5,79.8333 93.5,75.5C 71.8333,75.5 50.1667,75.5 28.5,75.5 Z"/></g>
<g><path style="opacity:1" fill="#3a3549" d="M 48.5,73.5 C 56.1667,73.5 63.8333,73.5 71.5,73.5C 74.5,73.5 77.5,73.5 80.5,73.5C 81.1667,73.5 81.8333,73.5 82.5,73.5C 86.7016,73.1832 90.7016,73.5166 94.5,74.5C 72.327,74.1693 50.327,74.5026 28.5,75.5C 27.3391,89.9942 27.1724,104.661 28,119.5C 36.081,120.482 44.2476,120.816 52.5,120.5C 52.5,120.833 52.5,121.167 52.5,121.5C 44.1667,121.5 35.8333,121.5 27.5,121.5C 26.8333,121.5 26.5,121.167 26.5,120.5C 26.3334,105.163 26.5001,89.8297 27,74.5C 34.0787,73.5201 41.2454,73.1868 48.5,73.5 Z"/></g>
<g><path style="opacity:1" fill="#324692" d="M 28.5,75.5 C 50.1667,75.5 71.8333,75.5 93.5,75.5C 93.5,79.8333 93.5,84.1667 93.5,88.5C 89.6126,86.5336 86.946,87.5336 85.5,91.5C 86.0476,93.556 87.2142,95.2226 89,96.5C 88.7295,101.116 90.0628,105.116 93,108.5C 93.49,109.793 93.6567,111.127 93.5,112.5C 90.1667,115.167 86.8333,117.833 83.5,120.5C 73.1667,120.5 62.8333,120.5 52.5,120.5C 44.2476,120.816 36.081,120.482 28,119.5C 27.1724,104.661 27.3391,89.9942 28.5,75.5 Z"/></g>
<g><path style="opacity:1" fill="#384173" d="M 33.5,76.5 C 34.5,76.5 35.5,76.5 36.5,76.5C 37.0035,80.3354 38.0035,80.3354 39.5,76.5C 40.7989,77.09 41.6322,78.09 42,79.5C 44.2435,75.2775 45.4102,75.6108 45.5,80.5C 58.5,80.5 71.5,80.5 84.5,80.5C 84.5,79.1667 84.5,77.8333 84.5,76.5C 85.5,76.5 86.5,76.5 87.5,76.5C 87.5,77.8333 87.5,79.1667 87.5,80.5C 80.5368,81.213 71.5368,81.5463 60.5,81.5C 50.5,81.1667 40.5,80.8333 30.5,80.5C 31.325,79.6143 32.325,79.281 33.5,79.5C 33.5,78.5 33.5,77.5 33.5,76.5 Z"/></g>
<g><path style="opacity:1" fill="#302f42" d="M 94.5,74.5 C 95.4345,75.5676 95.7678,76.901 95.5,78.5C 95.5,80.8333 95.5,83.1667 95.5,85.5C 95.2865,87.1439 95.6198,88.6439 96.5,90C 102.681,89.2795 107.848,91.1128 112,95.5C 112.74,96.7494 112.573,97.7494 111.5,98.5C 106.34,100.147 105.34,103.147 108.5,107.5C 109.341,109.379 109.675,111.379 109.5,113.5C 108.732,114.263 108.232,115.263 108,116.5C 104.784,108.918 99.951,107.585 93.5,112.5C 93.6567,111.127 93.49,109.793 93,108.5C 90.0628,105.116 88.7295,101.116 89,96.5C 87.2142,95.2226 86.0476,93.556 85.5,91.5C 86.946,87.5336 89.6126,86.5336 93.5,88.5C 94.4861,84.03 94.8195,79.3633 94.5,74.5 Z"/></g>
<g><path style="opacity:1" fill="#7065fd" d="M 56.5,94.5 C 60.5546,94.1758 64.5546,94.5091 68.5,95.5C 66.5,95.8333 64.5,96.1667 62.5,96.5C 60.0478,96.4609 58.0478,95.7943 56.5,94.5 Z"/></g>
<g><path style="opacity:1" fill="#f6f5ef" d="M 50.5,99.5 C 58.5277,99.169 66.5277,99.5023 74.5,100.5C 70.5,100.833 66.5,101.167 62.5,101.5C 58.107,101.491 54.107,100.824 50.5,99.5 Z"/></g>
<g><path style="opacity:1" fill="#fab8b8" d="M 111.5,98.5 C 113.065,102.367 112.065,105.367 108.5,107.5C 105.34,103.147 106.34,100.147 111.5,98.5 Z"/></g>
<g><path style="opacity:1" fill="#efefef" d="M 95.5,85.5 C 105.833,85.5 116.167,85.5 126.5,85.5C 126.218,93.8359 125.884,102.169 125.5,110.5C 134.167,110.5 142.833,110.5 151.5,110.5C 151.5,107.5 151.5,104.5 151.5,101.5C 163.675,101.306 171.342,107.306 174.5,119.5C 172.053,120.029 170.387,120.696 169.5,121.5C 169.5,121.833 169.5,122.167 169.5,122.5C 168.988,125.632 168.988,128.965 169.5,132.5C 165.285,134.436 160.619,135.103 155.5,134.5C 155.825,126.981 155.492,119.648 154.5,112.5C 144.167,112.5 133.833,112.5 123.5,112.5C 123.5,118.167 123.5,123.833 123.5,129.5C 123.167,130.5 122.5,131.167 121.5,131.5C 120.241,123.591 116.241,117.591 109.5,113.5C 109.675,111.379 109.341,109.379 108.5,107.5C 112.065,105.367 113.065,102.367 111.5,98.5C 112.573,97.7494 112.74,96.7494 112,95.5C 107.848,91.1128 102.681,89.2795 96.5,90C 95.6198,88.6439 95.2865,87.1439 95.5,85.5 Z"/></g>
<g><path style="opacity:1" fill="#f6f4ee" d="M 50.5,104.5 C 58.5277,104.169 66.5277,104.502 74.5,105.5C 70.5,105.833 66.5,106.167 62.5,106.5C 58.107,106.491 54.107,105.824 50.5,104.5 Z"/></g>
<g><path style="opacity:1" fill="#fa6583" d="M 109.5,113.5 C 116.241,117.591 120.241,123.591 121.5,131.5C 121.5,132.167 121.5,132.833 121.5,133.5C 108.086,129.764 94.4197,127.431 80.5,126.5C 80.5,126.167 80.5,125.833 80.5,125.5C 81.6737,124.486 82.3404,123.153 82.5,121.5C 83.1667,121.5 83.5,121.167 83.5,120.5C 86.8333,117.833 90.1667,115.167 93.5,112.5C 99.951,107.585 104.784,108.918 108,116.5C 108.232,115.263 108.732,114.263 109.5,113.5 Z"/></g>
<g><path style="opacity:1" fill="#2f418d" d="M 154.5,112.5 C 154.5,119.5 154.5,126.5 154.5,133.5C 144.985,133.827 135.652,133.494 126.5,132.5C 128.571,131.055 130.904,130.055 133.5,129.5C 135.5,129.5 137.5,129.5 139.5,129.5C 139.833,125.5 140.167,125.5 140.5,129.5C 146.261,129.291 146.594,128.458 141.5,127C 144.417,126.338 145.75,124.505 145.5,121.5C 146.978,121.762 148.311,121.429 149.5,120.5C 147.457,118.955 145.29,117.621 143,116.5C 141.674,116.755 140.674,117.422 140,118.5C 138.302,117.267 136.302,116.6 134,116.5C 132.167,116.833 130.333,117.167 128.5,117.5C 129.718,117.109 130.552,117.776 131,119.5C 131.333,119.167 131.667,118.833 132,118.5C 132.585,120.129 133.419,121.629 134.5,123C 134.164,124.03 133.497,124.53 132.5,124.5C 131.127,124.343 129.793,124.51 128.5,125C 126.963,126.707 125.296,128.207 123.5,129.5C 123.5,123.833 123.5,118.167 123.5,112.5C 133.833,112.5 144.167,112.5 154.5,112.5 Z"/></g>
<g><path style="opacity:1" fill="#545161" d="M 52.5,120.5 C 62.8333,120.5 73.1667,120.5 83.5,120.5C 83.5,121.167 83.1667,121.5 82.5,121.5C 78.1667,121.5 73.8333,121.5 69.5,121.5C 69.5,122.833 69.5,124.167 69.5,125.5C 73.1667,125.5 76.8333,125.5 80.5,125.5C 80.5,125.833 80.5,126.167 80.5,126.5C 76.5,126.5 72.5,126.5 68.5,126.5C 68.7845,124.585 68.4511,122.919 67.5,121.5C 65.4458,121.365 63.7791,122.032 62.5,123.5C 61.5,120.833 60.5,120.833 59.5,123.5C 57.8863,121.925 55.8863,121.259 53.5,121.5C 53.5,125.833 53.5,130.167 53.5,134.5C 49.1667,134.5 44.8333,134.5 40.5,134.5C 44.2984,133.517 48.2984,133.183 52.5,133.5C 52.5,132.5 52.5,131.5 52.5,130.5C 52.5,127.5 52.5,124.5 52.5,121.5C 52.5,121.167 52.5,120.833 52.5,120.5 Z"/></g>
<g><path style="opacity:1" fill="#9594a0" d="M 169.5,122.5 C 169.5,122.167 169.5,121.833 169.5,121.5C 173.514,121.334 177.514,121.501 181.5,122C 184.177,124.836 183.51,126.669 179.5,127.5C 180.301,125.958 180.634,124.292 180.5,122.5C 176.833,122.5 173.167,122.5 169.5,122.5 Z"/></g>
<g><path style="opacity:1" fill="#eaeaea" d="M 27.5,121.5 C 35.8333,121.5 44.1667,121.5 52.5,121.5C 52.5,124.5 52.5,127.5 52.5,130.5C 47.7207,132.424 42.7207,132.924 37.5,132C 34.5271,129.694 31.8605,127.027 29.5,124C 35.8333,123.667 42.1667,123.333 48.5,123C 41.3213,122.829 34.3213,122.329 27.5,121.5 Z"/></g>
<g><path style="opacity:1" fill="#2f2e41" d="M 59.5,123.5 C 60.5,124.833 61.5,124.833 62.5,123.5C 63.7791,122.032 65.4458,121.365 67.5,121.5C 67.7076,123.92 67.3742,126.253 66.5,128.5C 77.0416,130.734 87.3749,133.901 97.5,138C 108.307,142.943 118.973,148.276 129.5,154C 130.636,155.145 131.636,156.312 132.5,157.5C 119.048,165.687 104.382,168.52 88.5,166C 81.863,164.676 75.6963,162.176 70,158.5C 69.5814,157.328 68.9147,156.328 68,155.5C 67.8255,150.649 67.3255,145.982 66.5,141.5C 61.6835,140.674 56.6835,140.174 51.5,140C 56.5,139.667 61.5,139.333 66.5,139C 57.5062,138.5 48.5062,138.334 39.5,138.5C 39.5,137.167 39.5,135.833 39.5,134.5C 39.8333,134.5 40.1667,134.5 40.5,134.5C 44.8333,134.5 49.1667,134.5 53.5,134.5C 53.5,130.167 53.5,125.833 53.5,121.5C 55.8863,121.259 57.8863,121.925 59.5,123.5 Z"/></g>
<g><path style="opacity:1" fill="#d4d4d4" d="M 62.5,123.5 C 61.5,124.833 60.5,124.833 59.5,123.5C 60.5,120.833 61.5,120.833 62.5,123.5 Z"/></g>
<g><path style="opacity:1" fill="#e8e8e8" d="M 82.5,121.5 C 82.3404,123.153 81.6737,124.486 80.5,125.5C 76.8333,125.5 73.1667,125.5 69.5,125.5C 69.5,124.167 69.5,122.833 69.5,121.5C 73.8333,121.5 78.1667,121.5 82.5,121.5 Z"/></g>
<g><path style="opacity:1" fill="#fabab7" d="M 132.5,124.5 C 133.301,126.042 133.634,127.708 133.5,129.5C 130.904,130.055 128.571,131.055 126.5,132.5C 125.5,132.833 124.833,133.5 124.5,134.5C 123.209,134.737 122.209,134.404 121.5,133.5C 121.5,132.833 121.5,132.167 121.5,131.5C 122.5,131.167 123.167,130.5 123.5,129.5C 125.296,128.207 126.963,126.707 128.5,125C 129.793,124.51 131.127,124.343 132.5,124.5 Z"/></g>
<g><path style="opacity:1" fill="#242432" d="M 67.5,121.5 C 68.4511,122.919 68.7845,124.585 68.5,126.5C 72.5,126.5 76.5,126.5 80.5,126.5C 94.4197,127.431 108.086,129.764 121.5,133.5C 122.209,134.404 123.209,134.737 124.5,134.5C 127.289,135.648 129.956,136.981 132.5,138.5C 133.906,138.973 134.573,139.973 134.5,141.5C 134.5,144.833 134.5,148.167 134.5,151.5C 134.747,153.858 134.081,155.858 132.5,157.5C 131.636,156.312 130.636,155.145 129.5,154C 118.973,148.276 108.307,142.943 97.5,138C 87.3749,133.901 77.0416,130.734 66.5,128.5C 67.3742,126.253 67.7076,123.92 67.5,121.5 Z"/></g>
<g><path style="opacity:1" fill="#7b87b9" d="M 133.5,129.5 C 133.634,127.708 133.301,126.042 132.5,124.5C 133.497,124.53 134.164,124.03 134.5,123C 133.419,121.629 132.585,120.129 132,118.5C 131.667,118.833 131.333,119.167 131,119.5C 130.552,117.776 129.718,117.109 128.5,117.5C 130.333,117.167 132.167,116.833 134,116.5C 136.302,116.6 138.302,117.267 140,118.5C 140.674,117.422 141.674,116.755 143,116.5C 145.29,117.621 147.457,118.955 149.5,120.5C 148.311,121.429 146.978,121.762 145.5,121.5C 145.75,124.505 144.417,126.338 141.5,127C 146.594,128.458 146.261,129.291 140.5,129.5C 140.167,125.5 139.833,125.5 139.5,129.5C 137.5,129.5 135.5,129.5 133.5,129.5 Z"/></g>
<g><path style="opacity:1" fill="#343247" d="M 154.5,112.5 C 155.492,119.648 155.825,126.981 155.5,134.5C 160.305,135.487 165.305,135.821 170.5,135.5C 170.737,134.209 170.404,133.209 169.5,132.5C 168.988,128.965 168.988,125.632 169.5,122.5C 173.167,122.5 176.833,122.5 180.5,122.5C 180.634,124.292 180.301,125.958 179.5,127.5C 179.5,128.833 179.5,130.167 179.5,131.5C 178.539,133.265 178.205,135.265 178.5,137.5C 163,136.51 147.666,136.844 132.5,138.5C 129.956,136.981 127.289,135.648 124.5,134.5C 124.833,133.5 125.5,132.833 126.5,132.5C 135.652,133.494 144.985,133.827 154.5,133.5C 154.5,126.5 154.5,119.5 154.5,112.5 Z"/></g>
<g><path style="opacity:1" fill="#44425a" d="M 39.5,134.5 C 39.5,135.833 39.5,137.167 39.5,138.5C 48.5062,138.334 57.5062,138.5 66.5,139C 61.5,139.333 56.5,139.667 51.5,140C 56.6835,140.174 61.6835,140.674 66.5,141.5C 48.8302,141.667 31.1635,141.5 13.5,141C 11.6487,139.316 9.98201,137.483 8.5,135.5C 18.8119,134.501 29.1452,134.168 39.5,134.5 Z"/></g>
<g><path style="opacity:1" fill="#636275" d="M 169.5,132.5 C 170.404,133.209 170.737,134.209 170.5,135.5C 165.305,135.821 160.305,135.487 155.5,134.5C 160.619,135.103 165.285,134.436 169.5,132.5 Z"/></g>
<g><path style="opacity:1" fill="#413e57" d="M 179.5,131.5 C 179.5,132.5 179.5,133.5 179.5,134.5C 183.555,134.176 187.555,134.509 191.5,135.5C 189.146,137.188 187.146,139.188 185.5,141.5C 168.5,141.5 151.5,141.5 134.5,141.5C 134.573,139.973 133.906,138.973 132.5,138.5C 147.666,136.844 163,136.51 178.5,137.5C 178.205,135.265 178.539,133.265 179.5,131.5 Z"/></g>
<g><path style="opacity:1" fill="#e0dfe2" d="M 134.5,141.5 C 151.5,141.5 168.5,141.5 185.5,141.5C 169.008,142.497 152.342,142.83 135.5,142.5C 135.81,145.713 135.477,148.713 134.5,151.5C 134.5,148.167 134.5,144.833 134.5,141.5 Z"/></g>
</svg>
