<?xml version="1.0" encoding="UTF-8"?>
<!DOCTYPE svg PUBLIC "-//W3C//DTD SVG 1.1//EN" "http://www.w3.org/Graphics/SVG/1.1/DTD/svg11.dtd">
<svg xmlns="http://www.w3.org/2000/svg" version="1.1" width="200px" height="200px" style="shape-rendering:geometricPrecision; text-rendering:geometricPrecision; image-rendering:optimizeQuality; fill-rule:evenodd; clip-rule:evenodd" xmlns:xlink="http://www.w3.org/1999/xlink">
<g><path style="opacity:1" fill="#fefefe" d="M -0.5,-0.5 C 66.1667,-0.5 132.833,-0.5 199.5,-0.5C 199.5,46.5 199.5,93.5 199.5,140.5C 189.384,135.306 178.717,132.306 167.5,131.5C 180.05,123.298 182.55,112.631 175,99.5C 160.084,88.0894 148.417,90.756 140,107.5C 138.966,113.527 139.966,119.194 143,124.5C 143.414,124.043 143.914,123.709 144.5,123.5C 145.206,125.704 146.206,127.704 147.5,129.5C 146.167,129.5 144.833,129.5 143.5,129.5C 143.719,130.675 143.386,131.675 142.5,132.5C 141.702,132.043 141.369,131.376 141.5,130.5C 142.043,130.44 142.376,130.107 142.5,129.5C 138.878,128.675 135.211,128.175 131.5,128C 130.058,127.623 129.058,126.79 128.5,125.5C 128.5,124.167 128.5,122.833 128.5,121.5C 127.167,121.5 125.833,121.5 124.5,121.5C 122.184,120.578 120.517,118.911 119.5,116.5C 118.488,115.128 117.488,113.795 116.5,112.5C 117.646,110.333 119.479,109 122,108.5C 122.49,107.207 122.657,105.873 122.5,104.5C 123.097,104.265 123.43,103.765 123.5,103C 122.652,101.334 121.652,99.8336 120.5,98.5C 120.175,73.0672 108.175,55.2339 84.5,45C 51.0225,35.8268 26.5225,46.6601 11,77.5C 4.35014,95.9648 6.01681,113.632 16,130.5C 17.4087,131.781 18.9087,132.781 20.5,133.5C 12.8299,134.609 5.82993,137.276 -0.5,141.5C -0.5,94.1667 -0.5,46.8333 -0.5,-0.5 Z"/></g>
<g><path style="opacity:1" fill="#f1f1f1" d="M 120.5,98.5 C 114.378,98.2936 111.711,101.294 112.5,107.5C 112.5,107.833 112.5,108.167 112.5,108.5C 108.167,109.5 105.5,112.167 104.5,116.5C 101.592,115.431 98.592,115.264 95.5,116C 93.5905,120.023 91.5905,123.856 89.5,127.5C 89.5,120.833 89.5,114.167 89.5,107.5C 86.8333,107.5 84.1667,107.5 81.5,107.5C 80.5093,113.979 80.176,120.646 80.5,127.5C 78.8333,127.5 77.1667,127.5 75.5,127.5C 75.5,120.833 75.5,114.167 75.5,107.5C 72.8333,107.5 70.1667,107.5 67.5,107.5C 67.5,114.5 67.5,121.5 67.5,128.5C 65.8333,128.5 64.1667,128.5 62.5,128.5C 62.5,117.167 62.5,105.833 62.5,94.5C 59.5,94.5 56.5,94.5 53.5,94.5C 53.5,106.167 53.5,117.833 53.5,129.5C 47.5293,130.241 41.5293,130.575 35.5,130.5C 35.5,118.833 35.5,107.167 35.5,95.5C 32.7131,94.5233 29.7131,94.19 26.5,94.5C 26.5,107.167 26.5,119.833 26.5,132.5C 24.7354,133.461 22.7354,133.795 20.5,133.5C 18.9087,132.781 17.4087,131.781 16,130.5C 6.01681,113.632 4.35014,95.9648 11,77.5C 26.5225,46.6601 51.0225,35.8268 84.5,45C 108.175,55.2339 120.175,73.0672 120.5,98.5 Z"/></g>
<g><path style="opacity:1" fill="#776dfd" d="M 167.5,131.5 C 160.556,133.291 153.889,132.624 147.5,129.5C 146.206,127.704 145.206,125.704 144.5,123.5C 143.914,123.709 143.414,124.043 143,124.5C 139.966,119.194 138.966,113.527 140,107.5C 148.417,90.756 160.084,88.0894 175,99.5C 182.55,112.631 180.05,123.298 167.5,131.5 Z"/></g>
<g><path style="opacity:1" fill="#aca6f8" d="M 102.5,95.5 C 95.5,95.5 88.5,95.5 81.5,95.5C 81.5,97.8333 81.5,100.167 81.5,102.5C 80.5269,100.052 80.1936,97.3854 80.5,94.5C 88.0191,94.175 95.3524,94.5084 102.5,95.5 Z"/></g>
<g><path style="opacity:1" fill="#c0bdf6" d="M 35.5,95.5 C 35.1667,95.5 34.8333,95.5 34.5,95.5C 32.1667,95.5 29.8333,95.5 27.5,95.5C 27.5,107.833 27.5,120.167 27.5,132.5C 27.1667,132.5 26.8333,132.5 26.5,132.5C 26.5,119.833 26.5,107.167 26.5,94.5C 29.7131,94.19 32.7131,94.5233 35.5,95.5 Z"/></g>
<g><path style="opacity:1" fill="#6e65fe" d="M 34.5,95.5 C 34.8333,95.5 35.1667,95.5 35.5,95.5C 35.5,107.167 35.5,118.833 35.5,130.5C 35.5,131.5 35.5,132.5 35.5,133.5C 32.6146,133.806 29.9479,133.473 27.5,132.5C 28.4951,120.678 28.8284,108.678 28.5,96.5C 30.1667,96.5 31.8333,96.5 33.5,96.5C 33.3335,108.171 33.5001,119.838 34,131.5C 34.4999,119.505 34.6665,107.505 34.5,95.5 Z"/></g>
<g><path style="opacity:1" fill="#5b51ff" d="M 34.5,95.5 C 34.6665,107.505 34.4999,119.505 34,131.5C 33.5001,119.838 33.3335,108.171 33.5,96.5C 31.8333,96.5 30.1667,96.5 28.5,96.5C 28.8284,108.678 28.4951,120.678 27.5,132.5C 27.5,120.167 27.5,107.833 27.5,95.5C 29.8333,95.5 32.1667,95.5 34.5,95.5 Z"/></g>
<g><path style="opacity:1" fill="#877ffc" d="M 48.5,95.5 C 46.1667,95.5 43.8333,95.5 41.5,95.5C 41.5,104.167 41.5,112.833 41.5,121.5C 40.5067,112.682 40.1734,103.682 40.5,94.5C 43.3854,94.1936 46.0521,94.5269 48.5,95.5 Z"/></g>
<g><path style="opacity:1" fill="#665dff" d="M 48.5,95.5 C 48.5,104.167 48.5,112.833 48.5,121.5C 46.1667,121.5 43.8333,121.5 41.5,121.5C 41.5,112.833 41.5,104.167 41.5,95.5C 43.8333,95.5 46.1667,95.5 48.5,95.5 Z"/></g>
<g><path style="opacity:1" fill="#6b62fa" d="M 61.5,128.5 C 61.8333,128.5 62.1667,128.5 62.5,128.5C 62.5,130.5 62.5,132.5 62.5,134.5C 59.5,134.5 56.5,134.5 53.5,134.5C 53.5,132.833 53.5,131.167 53.5,129.5C 53.8333,129.5 54.1667,129.5 54.5,129.5C 55.4946,118.679 55.8279,107.679 55.5,96.5C 57.1667,96.5 58.8333,96.5 60.5,96.5C 60.1722,107.346 60.5056,118.013 61.5,128.5 Z"/></g>
<g><path style="opacity:1" fill="#544aff" d="M 61.5,128.5 C 60.5056,118.013 60.1722,107.346 60.5,96.5C 58.8333,96.5 57.1667,96.5 55.5,96.5C 55.8279,107.679 55.4946,118.679 54.5,129.5C 54.5,118.167 54.5,106.833 54.5,95.5C 56.8333,95.5 59.1667,95.5 61.5,95.5C 61.5,106.5 61.5,117.5 61.5,128.5 Z"/></g>
<g><path style="opacity:1" fill="#9e98fa" d="M 62.5,128.5 C 62.1667,128.5 61.8333,128.5 61.5,128.5C 61.5,117.5 61.5,106.5 61.5,95.5C 59.1667,95.5 56.8333,95.5 54.5,95.5C 54.5,106.833 54.5,118.167 54.5,129.5C 54.1667,129.5 53.8333,129.5 53.5,129.5C 53.5,117.833 53.5,106.167 53.5,94.5C 56.5,94.5 59.5,94.5 62.5,94.5C 62.5,105.833 62.5,117.167 62.5,128.5 Z"/></g>
<g><path style="opacity:1" fill="#665dff" d="M 67.5,95.5 C 70.1667,95.5 72.8333,95.5 75.5,95.5C 75.5,97.8333 75.5,100.167 75.5,102.5C 72.8333,102.5 70.1667,102.5 67.5,102.5C 67.5,100.167 67.5,97.8333 67.5,95.5 Z"/></g>
<g><path style="opacity:1" fill="#675dff" d="M 102.5,95.5 C 102.5,97.8333 102.5,100.167 102.5,102.5C 95.5,102.5 88.5,102.5 81.5,102.5C 81.5,100.167 81.5,97.8333 81.5,95.5C 88.5,95.5 95.5,95.5 102.5,95.5 Z"/></g>
<g><path style="opacity:1" fill="#faf9ff" d="M 154.5,96.5 C 172.613,96.7697 178.78,105.436 173,122.5C 163.967,131.746 154.967,131.746 146,122.5C 140.376,110.859 143.21,102.192 154.5,96.5 Z"/></g>
<g><path style="opacity:1" fill="#2e2c3e" d="M 120.5,98.5 C 121.652,99.8336 122.652,101.334 123.5,103C 123.43,103.765 123.097,104.265 122.5,104.5C 120.606,105.048 118.94,106.048 117.5,107.5C 116.808,106.975 116.308,106.308 116,105.5C 115.184,106.823 114.017,107.489 112.5,107.5C 111.711,101.294 114.378,98.2936 120.5,98.5 Z"/></g>
<g><path style="opacity:1" fill="#796fff" d="M 151.5,106.5 C 153.591,106.318 155.591,106.652 157.5,107.5C 158.386,108.325 158.719,109.325 158.5,110.5C 152.745,108.054 150.745,109.721 152.5,115.5C 154.259,116.754 155.759,116.421 157,114.5C 159.021,116.651 158.521,118.151 155.5,119C 149.195,118.994 147.029,115.828 149,109.5C 150.045,108.627 150.878,107.627 151.5,106.5 Z"/></g>
<g><path style="opacity:1" fill="#7e73ff" d="M 162.5,106.5 C 165.665,105.964 168.331,106.797 170.5,109C 169.975,109.692 169.308,110.192 168.5,110.5C 166.958,109.253 165.458,109.253 164,110.5C 162.588,115.941 164.088,117.274 168.5,114.5C 169.5,114.833 170.167,115.5 170.5,116.5C 166.645,120.667 163.145,120.334 160,115.5C 159.131,112.007 159.964,109.007 162.5,106.5 Z"/></g>
<g><path style="opacity:1" fill="#878889" d="M 80.5,127.5 C 80.5,127.833 80.5,128.167 80.5,128.5C 78.8333,128.5 77.1667,128.5 75.5,128.5C 75.5,130.167 75.5,131.833 75.5,133.5C 72.8333,133.5 70.1667,133.5 67.5,133.5C 67.5,131.833 67.5,130.167 67.5,128.5C 67.5,121.5 67.5,114.5 67.5,107.5C 70.1667,107.5 72.8333,107.5 75.5,107.5C 75.5,114.167 75.5,120.833 75.5,127.5C 77.1667,127.5 78.8333,127.5 80.5,127.5 Z"/></g>
<g><path style="opacity:1" fill="#908adf" d="M 81.5,107.5 C 81.5,116.167 81.5,124.833 81.5,133.5C 83.5,133.5 85.5,133.5 87.5,133.5C 87.5,133.833 87.5,134.167 87.5,134.5C 85.1667,134.5 82.8333,134.5 80.5,134.5C 80.5,132.5 80.5,130.5 80.5,128.5C 80.5,128.167 80.5,127.833 80.5,127.5C 80.176,120.646 80.5093,113.979 81.5,107.5 Z"/></g>
<g><path style="opacity:1" fill="#6e63fd" d="M 81.5,107.5 C 84.1667,107.5 86.8333,107.5 89.5,107.5C 89.5,114.167 89.5,120.833 89.5,127.5C 89.5,128.167 89.5,128.833 89.5,129.5C 88.8333,130.833 88.1667,132.167 87.5,133.5C 85.5,133.5 83.5,133.5 81.5,133.5C 81.5,124.833 81.5,116.167 81.5,107.5 Z"/></g>
<g><path style="opacity:1" fill="#faaa9e" d="M 122.5,104.5 C 122.657,105.873 122.49,107.207 122,108.5C 119.479,109 117.646,110.333 116.5,112.5C 114.736,111.674 113.402,110.341 112.5,108.5C 112.5,108.167 112.5,107.833 112.5,107.5C 114.017,107.489 115.184,106.823 116,105.5C 116.308,106.308 116.808,106.975 117.5,107.5C 118.94,106.048 120.606,105.048 122.5,104.5 Z"/></g>
<g><path style="opacity:1" fill="#d1cee1" d="M 112.5,108.5 C 113.402,110.341 114.736,111.674 116.5,112.5C 117.488,113.795 118.488,115.128 119.5,116.5C 118.684,118.144 117.35,119.31 115.5,120C 117.141,121.129 118.141,122.629 118.5,124.5C 117.022,124.238 115.689,124.571 114.5,125.5C 112.563,126.954 110.897,128.621 109.5,130.5C 108.5,130.167 107.833,129.5 107.5,128.5C 106.589,124.543 105.589,120.543 104.5,116.5C 105.5,112.167 108.167,109.5 112.5,108.5 Z"/></g>
<g><path style="opacity:1" fill="#28283b" d="M 104.5,116.5 C 105.589,120.543 106.589,124.543 107.5,128.5C 106.292,127.766 104.959,127.433 103.5,127.5C 102.904,126.065 102.904,124.398 103.5,122.5C 100.751,122.726 98.0841,122.393 95.5,121.5C 94.4528,122.922 94.4528,124.422 95.5,126C 95.3613,127.301 94.6946,128.134 93.5,128.5C 92.0413,128.433 90.7079,128.766 89.5,129.5C 89.5,128.833 89.5,128.167 89.5,127.5C 91.5905,123.856 93.5905,120.023 95.5,116C 98.592,115.264 101.592,115.431 104.5,116.5 Z"/></g>
<g><path style="opacity:1" fill="#20263a" d="M 124.5,121.5 C 125.833,121.5 127.167,121.5 128.5,121.5C 128.5,122.833 128.5,124.167 128.5,125.5C 126.833,124.5 125.5,123.167 124.5,121.5 Z"/></g>
<g><path style="opacity:1" fill="#2a293c" d="M 118.5,124.5 C 123.427,124.23 126.761,126.23 128.5,130.5C 128.5,131.167 128.5,131.833 128.5,132.5C 124.351,131.92 120.684,132.586 117.5,134.5C 114.921,134.394 112.588,135.061 110.5,136.5C 109.85,134.565 109.517,132.565 109.5,130.5C 110.897,128.621 112.563,126.954 114.5,125.5C 115.689,124.571 117.022,124.238 118.5,124.5 Z"/></g>
<g><path style="opacity:1" fill="#e5acac" d="M 103.5,127.5 C 102.172,131.254 99.5058,132.421 95.5,131C 94.6195,130.292 93.9528,129.458 93.5,128.5C 94.6946,128.134 95.3613,127.301 95.5,126C 94.4528,124.422 94.4528,122.922 95.5,121.5C 98.0841,122.393 100.751,122.726 103.5,122.5C 102.904,124.398 102.904,126.065 103.5,127.5 Z"/></g>
<g><path style="opacity:1" fill="#f86584" d="M 103.5,127.5 C 104.959,127.433 106.292,127.766 107.5,128.5C 107.833,129.5 108.5,130.167 109.5,130.5C 109.517,132.565 109.85,134.565 110.5,136.5C 111.53,139.229 111.53,141.896 110.5,144.5C 109.542,144.047 108.708,143.381 108,142.5C 107.83,140.285 107.163,138.285 106,136.5C 100.917,137.307 95.7503,137.807 90.5,138C 89.871,140.375 88.871,142.541 87.5,144.5C 86.0937,144.027 85.427,143.027 85.5,141.5C 87.1628,139.562 87.8294,137.228 87.5,134.5C 87.5,134.167 87.5,133.833 87.5,133.5C 88.1667,132.167 88.8333,130.833 89.5,129.5C 90.7079,128.766 92.0413,128.433 93.5,128.5C 93.9528,129.458 94.6195,130.292 95.5,131C 99.5058,132.421 102.172,131.254 103.5,127.5 Z"/></g>
<g><path style="opacity:1" fill="#dc9c94" d="M 119.5,116.5 C 120.517,118.911 122.184,120.578 124.5,121.5C 125.5,123.167 126.833,124.5 128.5,125.5C 129.058,126.79 130.058,127.623 131.5,128C 135.211,128.175 138.878,128.675 142.5,129.5C 142.376,130.107 142.043,130.44 141.5,130.5C 139.815,129.156 138.148,129.323 136.5,131C 139.351,132.881 139.018,133.715 135.5,133.5C 132.971,132.975 130.638,131.975 128.5,130.5C 126.761,126.23 123.427,124.23 118.5,124.5C 118.141,122.629 117.141,121.129 115.5,120C 117.35,119.31 118.684,118.144 119.5,116.5 Z"/></g>
<g><path style="opacity:1" fill="#3f3d55" d="M 141.5,130.5 C 141.369,131.376 141.702,132.043 142.5,132.5C 143.386,131.675 143.719,130.675 143.5,129.5C 144.833,129.5 146.167,129.5 147.5,129.5C 153.889,132.624 160.556,133.291 167.5,131.5C 178.717,132.306 189.384,135.306 199.5,140.5C 199.5,142.5 199.5,144.5 199.5,146.5C 188.475,151.675 176.808,154.842 164.5,156C 147.232,158.114 129.899,158.948 112.5,158.5C 115.977,157.677 119.644,157.177 123.5,157C 126.032,156.381 128.365,155.381 130.5,154C 126.109,151.902 121.442,150.736 116.5,150.5C 116.5,148.5 116.5,146.5 116.5,144.5C 114.5,144.5 112.5,144.5 110.5,144.5C 111.53,141.896 111.53,139.229 110.5,136.5C 112.588,135.061 114.921,134.394 117.5,134.5C 120.885,136.245 124.552,136.745 128.5,136C 129.684,134.855 129.684,133.688 128.5,132.5C 128.5,131.833 128.5,131.167 128.5,130.5C 130.638,131.975 132.971,132.975 135.5,133.5C 139.018,133.715 139.351,132.881 136.5,131C 138.148,129.323 139.815,129.156 141.5,130.5 Z"/></g>
<g><path style="opacity:1" fill="#d5d2e5" d="M 128.5,132.5 C 129.684,133.688 129.684,134.855 128.5,136C 124.552,136.745 120.885,136.245 117.5,134.5C 120.684,132.586 124.351,131.92 128.5,132.5 Z"/></g>
<g><path style="opacity:1" fill="#3f3d55" d="M 62.5,128.5 C 64.1667,128.5 65.8333,128.5 67.5,128.5C 67.5,130.167 67.5,131.833 67.5,133.5C 70.1667,133.5 72.8333,133.5 75.5,133.5C 75.5,131.833 75.5,130.167 75.5,128.5C 77.1667,128.5 78.8333,128.5 80.5,128.5C 80.5,130.5 80.5,132.5 80.5,134.5C 82.8333,134.5 85.1667,134.5 87.5,134.5C 87.8294,137.228 87.1628,139.562 85.5,141.5C 85.5654,141.062 85.3988,140.728 85,140.5C 84.0094,141.939 82.676,142.939 81,143.5C 80.1041,146.025 80.6041,148.192 82.5,150C 77.8097,150.503 73.143,151.17 68.5,152C 64.5158,154.098 64.8492,155.765 69.5,157C 79.828,157.5 90.1613,157.666 100.5,157.5C 100.232,155.901 100.566,154.568 101.5,153.5C 101.557,154.609 101.89,155.609 102.5,156.5C 103.167,157.167 103.833,157.833 104.5,158.5C 83.8052,158.871 63.1385,158.371 42.5,157C 32.7039,156.077 23.0372,154.41 13.5,152C 8.41593,150.623 3.74926,148.457 -0.5,145.5C -0.5,144.167 -0.5,142.833 -0.5,141.5C 5.82993,137.276 12.8299,134.609 20.5,133.5C 22.7354,133.795 24.7354,133.461 26.5,132.5C 26.8333,132.5 27.1667,132.5 27.5,132.5C 29.9479,133.473 32.6146,133.806 35.5,133.5C 35.5,132.5 35.5,131.5 35.5,130.5C 41.5293,130.575 47.5293,130.241 53.5,129.5C 53.5,131.167 53.5,132.833 53.5,134.5C 56.5,134.5 59.5,134.5 62.5,134.5C 62.5,132.5 62.5,130.5 62.5,128.5 Z"/></g>
<g><path style="opacity:1" fill="#454059" d="M 110.5,144.5 C 102.884,148.489 95.2176,148.489 87.5,144.5C 88.871,142.541 89.871,140.375 90.5,138C 95.7503,137.807 100.917,137.307 106,136.5C 107.163,138.285 107.83,140.285 108,142.5C 108.708,143.381 109.542,144.047 110.5,144.5 Z"/></g>
<g><path style="opacity:1" fill="#efeef0" d="M 97.5,141.5 C 99.337,141.639 99.6704,142.306 98.5,143.5C 97.7025,143.043 97.3691,142.376 97.5,141.5 Z"/></g>
<g><path style="opacity:1" fill="#fefefe" d="M -0.5,145.5 C 3.74926,148.457 8.41593,150.623 13.5,152C 23.0372,154.41 32.7039,156.077 42.5,157C 63.1385,158.371 83.8052,158.871 104.5,158.5C 107.167,158.5 109.833,158.5 112.5,158.5C 129.899,158.948 147.232,158.114 164.5,156C 176.808,154.842 188.475,151.675 199.5,146.5C 199.5,164.167 199.5,181.833 199.5,199.5C 132.833,199.5 66.1667,199.5 -0.5,199.5C -0.5,181.5 -0.5,163.5 -0.5,145.5 Z"/></g>
<g><path style="opacity:1" fill="#343348" d="M 85.5,141.5 C 85.427,143.027 86.0937,144.027 87.5,144.5C 95.2176,148.489 102.884,148.489 110.5,144.5C 112.5,144.5 114.5,144.5 116.5,144.5C 116.5,146.5 116.5,148.5 116.5,150.5C 121.442,150.736 126.109,151.902 130.5,154C 128.365,155.381 126.032,156.381 123.5,157C 119.644,157.177 115.977,157.677 112.5,158.5C 109.833,158.5 107.167,158.5 104.5,158.5C 103.833,157.833 103.167,157.167 102.5,156.5C 104.167,156.5 105.833,156.5 107.5,156.5C 107.785,154.712 107.452,153.045 106.5,151.5C 104.664,152.028 102.997,152.694 101.5,153.5C 100.566,154.568 100.232,155.901 100.5,157.5C 90.1613,157.666 79.828,157.5 69.5,157C 64.8492,155.765 64.5158,154.098 68.5,152C 73.143,151.17 77.8097,150.503 82.5,150C 80.6041,148.192 80.1041,146.025 81,143.5C 82.676,142.939 84.0094,141.939 85,140.5C 85.3988,140.728 85.5654,141.062 85.5,141.5 Z"/></g>
<g><path style="opacity:1" fill="#e9e6e7" d="M 102.5,156.5 C 101.89,155.609 101.557,154.609 101.5,153.5C 102.997,152.694 104.664,152.028 106.5,151.5C 107.452,153.045 107.785,154.712 107.5,156.5C 105.833,156.5 104.167,156.5 102.5,156.5 Z"/></g>
<g><path style="opacity:1" fill="#d8d8dc" d="M 89.5,152.5 C 96.053,154.045 96.053,155.378 89.5,156.5C 89.5,155.167 89.5,153.833 89.5,152.5 Z"/></g>
</svg>
