<?xml version="1.0" encoding="UTF-8"?>
<!DOCTYPE svg PUBLIC "-//W3C//DTD SVG 1.1//EN" "http://www.w3.org/Graphics/SVG/1.1/DTD/svg11.dtd">
<svg xmlns="http://www.w3.org/2000/svg" version="1.1" width="200px" height="200px" style="shape-rendering:geometricPrecision; text-rendering:geometricPrecision; image-rendering:optimizeQuality; fill-rule:evenodd; clip-rule:evenodd" xmlns:xlink="http://www.w3.org/1999/xlink">
<g><path style="opacity:0.962" fill="#cccccc" d="M 151.5,101.5 C 151.5,104.5 151.5,107.5 151.5,110.5C 142.833,110.5 134.167,110.5 125.5,110.5C 125.557,104.149 125.89,97.8154 126.5,91.5C 126.5,89.8333 126.5,88.1667 126.5,86.5C 124.833,86.5 123.167,86.5 121.5,86.5C 121.5,85.8333 121.167,85.5 120.5,85.5C 112.167,85.5 103.833,85.5 95.5,85.5C 95.5,83.1667 95.5,80.8333 95.5,78.5C 102.238,78.7685 108.905,78.7685 115.5,78.5C 117.456,72.588 118.123,66.2547 117.5,59.5C 113.167,59.5 108.833,59.5 104.5,59.5C 97.1667,59.5 89.8333,59.5 82.5,59.5C 82.5,64.1667 82.5,68.8333 82.5,73.5C 81.8333,73.5 81.1667,73.5 80.5,73.5C 80.5,68.8333 80.5,64.1667 80.5,59.5C 77.5,59.5 74.5,59.5 71.5,59.5C 71.5,64.1667 71.5,68.8333 71.5,73.5C 63.8333,73.5 56.1667,73.5 48.5,73.5C 48.3336,65.16 48.5003,56.8267 49,48.5C 53.0934,45.5448 57.2601,42.8782 61.5,40.5C 64.2621,39.0359 67.0954,37.7025 70,36.5C 70.49,37.7932 70.6567,39.1266 70.5,40.5C 70.5,46.1667 70.5,51.8333 70.5,57.5C 73.8333,57.5 77.1667,57.5 80.5,57.5C 80.7825,52.0735 80.4491,46.7401 79.5,41.5C 79.5,38.8333 79.5,36.1667 79.5,33.5C 80.5,33.5 81.5,33.5 82.5,33.5C 83.0396,36.8647 83.7063,40.198 84.5,43.5C 87.546,51.2076 93.2126,55.5409 101.5,56.5C 105.434,57.3597 109.434,57.693 113.5,57.5C 114.167,57.5 114.833,57.5 115.5,57.5C 116.492,57.6716 117.158,57.3382 117.5,56.5C 117.5,52.1667 117.5,47.8333 117.5,43.5C 117.751,40.091 117.417,36.7577 116.5,33.5C 117.689,32.5713 119.022,32.238 120.5,32.5C 120.302,38.5318 120.635,44.5318 121.5,50.5C 120.69,52.9415 120.023,55.1082 119.5,57C 122.482,57.498 125.482,57.6646 128.5,57.5C 129.136,50.1849 129.636,42.8516 130,35.5C 137.186,38.1768 144.02,41.5101 150.5,45.5C 151.5,64.1548 151.833,82.8214 151.5,101.5 Z M 120.5,59.5 C 123.167,59.5 125.833,59.5 128.5,59.5C 127.81,65.8097 127.476,72.143 127.5,78.5C 124.813,78.6641 122.146,78.4974 119.5,78C 120.476,71.9242 120.81,65.7576 120.5,59.5 Z"/></g>
<g><path style="opacity:0.968" fill="#f2f2f2" d="M 70.5,40.5 C 73.5176,40.7038 76.5176,41.0371 79.5,41.5C 80.4491,46.7401 80.7825,52.0735 80.5,57.5C 77.1667,57.5 73.8333,57.5 70.5,57.5C 70.5,51.8333 70.5,46.1667 70.5,40.5 Z"/></g>
<g><path style="opacity:0.965" fill="#efeff0" d="M 61.5,40.5 C 57.2601,42.8782 53.0934,45.5448 49,48.5C 48.5003,56.8267 48.3336,65.16 48.5,73.5C 41.2454,73.1868 34.0787,73.5201 27,74.5C 26.8313,89.6723 26.3313,104.672 25.5,119.5C 11.2591,91.8722 15.9258,68.0389 39.5,48C 46.3541,43.9933 53.6875,41.4933 61.5,40.5 Z"/></g>
<g><path style="opacity:0.943" fill="#f2f2f2" d="M 117.5,43.5 C 117.5,47.8333 117.5,52.1667 117.5,56.5C 116.508,56.3284 115.842,56.6618 115.5,57.5C 114.833,57.5 114.167,57.5 113.5,57.5C 107.298,53.4515 106.965,48.9515 112.5,44C 114.134,43.5065 115.801,43.3398 117.5,43.5 Z"/></g>
<g><path style="opacity:0.903" fill="#f3f3f3" d="M 84.5,43.5 C 91.0446,46.7145 96.7113,51.0479 101.5,56.5C 93.2126,55.5409 87.546,51.2076 84.5,43.5 Z"/></g>
<g><path style="opacity:0.994" fill="#f2f2f2" d="M 104.5,59.5 C 108.419,65.6697 112.086,72.0031 115.5,78.5C 108.905,78.7685 102.238,78.7685 95.5,78.5C 95.7678,76.901 95.4345,75.5676 94.5,74.5C 90.7016,73.5166 86.7016,73.1832 82.5,73.5C 82.5,68.8333 82.5,64.1667 82.5,59.5C 89.8333,59.5 97.1667,59.5 104.5,59.5 Z"/></g>
<g><path style="opacity:1" fill="#f2f2f2" d="M 80.5,73.5 C 77.5,73.5 74.5,73.5 71.5,73.5C 71.5,68.8333 71.5,64.1667 71.5,59.5C 74.5,59.5 77.5,59.5 80.5,59.5C 80.5,64.1667 80.5,68.8333 80.5,73.5 Z"/></g>
<g><path style="opacity:1" fill="#242750" d="M 28.5,75.5 C 50.327,74.5026 72.327,74.1693 94.5,74.5C 94.8195,79.3633 94.4861,84.03 93.5,88.5C 93.5,84.1667 93.5,79.8333 93.5,75.5C 71.8333,75.5 50.1667,75.5 28.5,75.5 Z"/></g>
<g><path style="opacity:1" fill="#3a3549" d="M 48.5,73.5 C 56.1667,73.5 63.8333,73.5 71.5,73.5C 74.5,73.5 77.5,73.5 80.5,73.5C 81.1667,73.5 81.8333,73.5 82.5,73.5C 86.7016,73.1832 90.7016,73.5166 94.5,74.5C 72.327,74.1693 50.327,74.5026 28.5,75.5C 27.3391,89.9942 27.1724,104.661 28,119.5C 36.081,120.482 44.2476,120.816 52.5,120.5C 52.5,120.833 52.5,121.167 52.5,121.5C 44.1667,121.5 35.8333,121.5 27.5,121.5C 26.1667,121.5 25.5,120.833 25.5,119.5C 26.3313,104.672 26.8313,89.6723 27,74.5C 34.0787,73.5201 41.2454,73.1868 48.5,73.5 Z"/></g>
<g><path style="opacity:1" fill="#324692" d="M 28.5,75.5 C 50.1667,75.5 71.8333,75.5 93.5,75.5C 93.5,79.8333 93.5,84.1667 93.5,88.5C 89.6126,86.5336 86.946,87.5336 85.5,91.5C 86.0476,93.556 87.2142,95.2226 89,96.5C 88.7295,101.116 90.0628,105.116 93,108.5C 93.49,109.793 93.6567,111.127 93.5,112.5C 90.1667,115.167 86.8333,117.833 83.5,120.5C 73.1667,120.5 62.8333,120.5 52.5,120.5C 44.2476,120.816 36.081,120.482 28,119.5C 27.1724,104.661 27.3391,89.9942 28.5,75.5 Z"/></g>
<g><path style="opacity:1" fill="#384173" d="M 33.5,76.5 C 34.5,76.5 35.5,76.5 36.5,76.5C 37.0035,80.3354 38.0035,80.3354 39.5,76.5C 40.7989,77.09 41.6322,78.09 42,79.5C 44.2435,75.2775 45.4102,75.6108 45.5,80.5C 58.5,80.5 71.5,80.5 84.5,80.5C 84.5,79.1667 84.5,77.8333 84.5,76.5C 85.5,76.5 86.5,76.5 87.5,76.5C 87.5,77.8333 87.5,79.1667 87.5,80.5C 80.5368,81.213 71.5368,81.5463 60.5,81.5C 50.5,81.1667 40.5,80.8333 30.5,80.5C 31.325,79.6143 32.325,79.281 33.5,79.5C 33.5,78.5 33.5,77.5 33.5,76.5 Z"/></g>
<g><path style="opacity:1" fill="#302f42" d="M 94.5,74.5 C 95.4345,75.5676 95.7678,76.901 95.5,78.5C 95.5,80.8333 95.5,83.1667 95.5,85.5C 95.2865,87.1439 95.6198,88.6439 96.5,90C 102.681,89.2795 107.848,91.1128 112,95.5C 112.74,96.7494 112.573,97.7494 111.5,98.5C 106.34,100.147 105.34,103.147 108.5,107.5C 109.341,109.379 109.675,111.379 109.5,113.5C 108.732,114.263 108.232,115.263 108,116.5C 104.784,108.918 99.951,107.585 93.5,112.5C 93.6567,111.127 93.49,109.793 93,108.5C 90.0628,105.116 88.7295,101.116 89,96.5C 87.2142,95.2226 86.0476,93.556 85.5,91.5C 86.946,87.5336 89.6126,86.5336 93.5,88.5C 94.4861,84.03 94.8195,79.3633 94.5,74.5 Z"/></g>
<g><path style="opacity:1" fill="#7065fd" d="M 56.5,94.5 C 60.5546,94.1758 64.5546,94.5091 68.5,95.5C 66.5,95.8333 64.5,96.1667 62.5,96.5C 60.0478,96.4609 58.0478,95.7943 56.5,94.5 Z"/></g>
<g><path style="opacity:1" fill="#f6f5ef" d="M 50.5,99.5 C 58.5277,99.169 66.5277,99.5023 74.5,100.5C 70.5,100.833 66.5,101.167 62.5,101.5C 58.107,101.491 54.107,100.824 50.5,99.5 Z"/></g>
<g><path style="opacity:1" fill="#fab8b8" d="M 111.5,98.5 C 113.065,102.367 112.065,105.367 108.5,107.5C 105.34,103.147 106.34,100.147 111.5,98.5 Z"/></g>
<g><path style="opacity:0.971" fill="#efefef" d="M 95.5,85.5 C 103.833,85.5 112.167,85.5 120.5,85.5C 121.167,85.5 121.5,85.8333 121.5,86.5C 122.833,88.5 124.5,90.1667 126.5,91.5C 125.89,97.8154 125.557,104.149 125.5,110.5C 134.167,110.5 142.833,110.5 151.5,110.5C 151.5,107.5 151.5,104.5 151.5,101.5C 165.219,101.213 173.219,107.88 175.5,121.5C 173.208,121.244 171.041,121.577 169,122.5C 169.046,125.8 169.212,129.134 169.5,132.5C 165.285,134.436 160.619,135.103 155.5,134.5C 155.825,126.981 155.492,119.648 154.5,112.5C 144.167,112.5 133.833,112.5 123.5,112.5C 123.5,118.167 123.5,123.833 123.5,129.5C 123.167,130.5 122.5,131.167 121.5,131.5C 120.241,123.591 116.241,117.591 109.5,113.5C 109.675,111.379 109.341,109.379 108.5,107.5C 112.065,105.367 113.065,102.367 111.5,98.5C 112.573,97.7494 112.74,96.7494 112,95.5C 107.848,91.1128 102.681,89.2795 96.5,90C 95.6198,88.6439 95.2865,87.1439 95.5,85.5 Z"/></g>
<g><path style="opacity:1" fill="#f6f4ee" d="M 50.5,104.5 C 58.5277,104.169 66.5277,104.502 74.5,105.5C 70.5,105.833 66.5,106.167 62.5,106.5C 58.107,106.491 54.107,105.824 50.5,104.5 Z"/></g>
<g><path style="opacity:1" fill="#fa6583" d="M 109.5,113.5 C 116.241,117.591 120.241,123.591 121.5,131.5C 121.5,132.167 121.5,132.833 121.5,133.5C 108.086,129.764 94.4197,127.431 80.5,126.5C 80.5,126.167 80.5,125.833 80.5,125.5C 81.6737,124.486 82.3404,123.153 82.5,121.5C 83.1667,121.5 83.5,121.167 83.5,120.5C 86.8333,117.833 90.1667,115.167 93.5,112.5C 99.951,107.585 104.784,108.918 108,116.5C 108.232,115.263 108.732,114.263 109.5,113.5 Z"/></g>
<g><path style="opacity:1" fill="#2f418d" d="M 154.5,112.5 C 154.5,119.5 154.5,126.5 154.5,133.5C 144.985,133.827 135.652,133.494 126.5,132.5C 128.571,131.055 130.904,130.055 133.5,129.5C 135.5,129.5 137.5,129.5 139.5,129.5C 139.833,125.5 140.167,125.5 140.5,129.5C 146.261,129.291 146.594,128.458 141.5,127C 143.119,126.764 144.119,125.931 144.5,124.5C 145.404,123.791 145.737,122.791 145.5,121.5C 146.978,121.762 148.311,121.429 149.5,120.5C 147.457,118.955 145.29,117.621 143,116.5C 141.624,116.684 140.791,117.351 140.5,118.5C 136.779,116.35 132.779,116.016 128.5,117.5C 129.718,117.109 130.552,117.776 131,119.5C 131.333,119.167 131.667,118.833 132,118.5C 132.585,120.129 133.419,121.629 134.5,123C 134.164,124.03 133.497,124.53 132.5,124.5C 131.127,124.343 129.793,124.51 128.5,125C 126.963,126.707 125.296,128.207 123.5,129.5C 123.5,123.833 123.5,118.167 123.5,112.5C 133.833,112.5 144.167,112.5 154.5,112.5 Z"/></g>
<g><path style="opacity:1" fill="#96a0c7" d="M 144.5,124.5 C 144.66,122.801 144.494,121.134 144,119.5C 143.026,121.878 142.359,121.544 142,118.5C 141.221,121.097 140.721,121.097 140.5,118.5C 140.791,117.351 141.624,116.684 143,116.5C 145.29,117.621 147.457,118.955 149.5,120.5C 148.311,121.429 146.978,121.762 145.5,121.5C 145.737,122.791 145.404,123.791 144.5,124.5 Z"/></g>
<g><path style="opacity:1" fill="#545161" d="M 52.5,120.5 C 62.8333,120.5 73.1667,120.5 83.5,120.5C 83.5,121.167 83.1667,121.5 82.5,121.5C 78.1667,121.5 73.8333,121.5 69.5,121.5C 69.5,122.833 69.5,124.167 69.5,125.5C 73.1667,125.5 76.8333,125.5 80.5,125.5C 80.5,125.833 80.5,126.167 80.5,126.5C 76.5,126.5 72.5,126.5 68.5,126.5C 68.7845,124.585 68.4511,122.919 67.5,121.5C 65.4458,121.365 63.7791,122.032 62.5,123.5C 61.5,120.833 60.5,120.833 59.5,123.5C 57.8863,121.925 55.8863,121.259 53.5,121.5C 53.5,125.833 53.5,130.167 53.5,134.5C 49.1667,134.5 44.8333,134.5 40.5,134.5C 44.2984,133.517 48.2984,133.183 52.5,133.5C 52.5,132.167 52.5,130.833 52.5,129.5C 52.5,126.833 52.5,124.167 52.5,121.5C 52.5,121.167 52.5,120.833 52.5,120.5 Z"/></g>
<g><path style="opacity:0.878" fill="#333146" d="M 154.5,112.5 C 155.492,119.648 155.825,126.981 155.5,134.5C 160.305,135.487 165.305,135.821 170.5,135.5C 170.737,134.209 170.404,133.209 169.5,132.5C 169.212,129.134 169.046,125.8 169,122.5C 171.041,121.577 173.208,121.244 175.5,121.5C 183.861,120.38 185.528,123.047 180.5,129.5C 179.954,131.135 179.62,132.801 179.5,134.5C 170.085,136.282 160.418,137.282 150.5,137.5C 144.252,135.873 138.252,136.207 132.5,138.5C 129.956,136.981 127.289,135.648 124.5,134.5C 124.833,133.5 125.5,132.833 126.5,132.5C 135.652,133.494 144.985,133.827 154.5,133.5C 154.5,126.5 154.5,119.5 154.5,112.5 Z"/></g>
<g><path style="opacity:0.985" fill="#f4f4f4" d="M 28.5,122.5 C 35.1667,122.5 41.8333,122.5 48.5,122.5C 48.5,124.833 48.5,127.167 48.5,129.5C 49.8333,129.5 51.1667,129.5 52.5,129.5C 52.5,130.833 52.5,132.167 52.5,133.5C 48.2984,133.183 44.2984,133.517 40.5,134.5C 40.1667,134.5 39.8333,134.5 39.5,134.5C 39.1667,134.5 38.8333,134.5 38.5,134.5C 38.5,133.833 38.1667,133.5 37.5,133.5C 33.7955,130.433 30.7955,126.766 28.5,122.5 Z"/></g>
<g><path style="opacity:1" fill="#cdcdce" d="M 27.5,121.5 C 35.8333,121.5 44.1667,121.5 52.5,121.5C 52.5,124.167 52.5,126.833 52.5,129.5C 51.1667,129.5 49.8333,129.5 48.5,129.5C 48.5,127.167 48.5,124.833 48.5,122.5C 41.8333,122.5 35.1667,122.5 28.5,122.5C 27.8333,122.5 27.5,122.167 27.5,121.5 Z"/></g>
<g><path style="opacity:0.984" fill="#2e2d40" d="M 59.5,123.5 C 60.5,124.833 61.5,124.833 62.5,123.5C 63.7791,122.032 65.4458,121.365 67.5,121.5C 67.7076,123.92 67.3742,126.253 66.5,128.5C 83.2158,132.357 99.2158,138.191 114.5,146C 119.341,148.921 124.341,151.588 129.5,154C 131.83,155.488 132.164,157.321 130.5,159.5C 125.274,162.525 119.607,164.691 113.5,166C 98.2333,168.364 83.7333,166.198 70,159.5C 66.9923,154.984 65.8256,149.984 66.5,144.5C 66.5,143.5 66.5,142.5 66.5,141.5C 61.6835,140.674 56.6835,140.174 51.5,140C 56.5,139.667 61.5,139.333 66.5,139C 57.5062,138.5 48.5062,138.334 39.5,138.5C 39.5,137.167 39.5,135.833 39.5,134.5C 39.8333,134.5 40.1667,134.5 40.5,134.5C 44.8333,134.5 49.1667,134.5 53.5,134.5C 53.5,130.167 53.5,125.833 53.5,121.5C 55.8863,121.259 57.8863,121.925 59.5,123.5 Z"/></g>
<g><path style="opacity:1" fill="#d4d4d4" d="M 62.5,123.5 C 61.5,124.833 60.5,124.833 59.5,123.5C 60.5,120.833 61.5,120.833 62.5,123.5 Z"/></g>
<g><path style="opacity:1" fill="#e8e8e8" d="M 82.5,121.5 C 82.3404,123.153 81.6737,124.486 80.5,125.5C 76.8333,125.5 73.1667,125.5 69.5,125.5C 69.5,124.167 69.5,122.833 69.5,121.5C 73.8333,121.5 78.1667,121.5 82.5,121.5 Z"/></g>
<g><path style="opacity:1" fill="#fabab7" d="M 132.5,124.5 C 133.301,126.042 133.634,127.708 133.5,129.5C 130.904,130.055 128.571,131.055 126.5,132.5C 125.5,132.833 124.833,133.5 124.5,134.5C 123.209,134.737 122.209,134.404 121.5,133.5C 121.5,132.833 121.5,132.167 121.5,131.5C 122.5,131.167 123.167,130.5 123.5,129.5C 125.296,128.207 126.963,126.707 128.5,125C 129.793,124.51 131.127,124.343 132.5,124.5 Z"/></g>
<g><path style="opacity:1" fill="#242432" d="M 67.5,121.5 C 68.4511,122.919 68.7845,124.585 68.5,126.5C 72.5,126.5 76.5,126.5 80.5,126.5C 94.4197,127.431 108.086,129.764 121.5,133.5C 122.209,134.404 123.209,134.737 124.5,134.5C 127.289,135.648 129.956,136.981 132.5,138.5C 133.906,138.973 134.573,139.973 134.5,141.5C 135.291,147.942 134.291,153.942 131.5,159.5C 131.167,159.5 130.833,159.5 130.5,159.5C 132.164,157.321 131.83,155.488 129.5,154C 124.341,151.588 119.341,148.921 114.5,146C 99.2158,138.191 83.2158,132.357 66.5,128.5C 67.3742,126.253 67.7076,123.92 67.5,121.5 Z"/></g>
<g><path style="opacity:1" fill="#7884b7" d="M 140.5,118.5 C 140.721,121.097 141.221,121.097 142,118.5C 142.359,121.544 143.026,121.878 144,119.5C 144.494,121.134 144.66,122.801 144.5,124.5C 144.119,125.931 143.119,126.764 141.5,127C 146.594,128.458 146.261,129.291 140.5,129.5C 140.167,125.5 139.833,125.5 139.5,129.5C 137.5,129.5 135.5,129.5 133.5,129.5C 133.634,127.708 133.301,126.042 132.5,124.5C 133.497,124.53 134.164,124.03 134.5,123C 133.419,121.629 132.585,120.129 132,118.5C 131.667,118.833 131.333,119.167 131,119.5C 130.552,117.776 129.718,117.109 128.5,117.5C 132.779,116.016 136.779,116.35 140.5,118.5 Z"/></g>
<g><path style="opacity:0.887" fill="#3f3d56" d="M 37.5,133.5 C 38.1667,133.5 38.5,133.833 38.5,134.5C 38.8333,134.5 39.1667,134.5 39.5,134.5C 39.5,135.833 39.5,137.167 39.5,138.5C 48.5062,138.334 57.5062,138.5 66.5,139C 61.5,139.333 56.5,139.667 51.5,140C 56.6835,140.174 61.6835,140.674 66.5,141.5C 61.3054,141.179 56.3054,141.513 51.5,142.5C 39.1622,142.667 26.8288,142.5 14.5,142C 11.9832,139.651 9.64988,137.151 7.5,134.5C 17.4778,133.501 27.4778,133.168 37.5,133.5 Z"/></g>
<g><path style="opacity:1" fill="#636275" d="M 169.5,132.5 C 170.404,133.209 170.737,134.209 170.5,135.5C 165.305,135.821 160.305,135.487 155.5,134.5C 160.619,135.103 165.285,134.436 169.5,132.5 Z"/></g>
<g><path style="opacity:0.958" fill="#3d3b54" d="M 179.5,134.5 C 183.555,134.176 187.555,134.509 191.5,135.5C 189.684,137.817 187.684,139.984 185.5,142C 180.511,142.499 175.511,142.666 170.5,142.5C 158.678,141.505 146.678,141.172 134.5,141.5C 134.573,139.973 133.906,138.973 132.5,138.5C 138.252,136.207 144.252,135.873 150.5,137.5C 160.418,137.282 170.085,136.282 179.5,134.5 Z"/></g>
<g><path style="opacity:0.815" fill="#f6f6f6" d="M 51.5,142.5 C 56.3054,141.513 61.3054,141.179 66.5,141.5C 66.5,142.5 66.5,143.5 66.5,144.5C 61.3638,144.708 56.3638,144.041 51.5,142.5 Z"/></g>
<g><path style="opacity:0.966" fill="#f2f2f2" d="M 134.5,141.5 C 146.678,141.172 158.678,141.505 170.5,142.5C 160.663,155.589 147.663,161.255 131.5,159.5C 134.291,153.942 135.291,147.942 134.5,141.5 Z"/></g>
</svg>
